<?xml version="1.0" encoding="utf-8" ?>
<svg xmlns="http://www.w3.org/2000/svg" xmlns:xlink="http://www.w3.org/1999/xlink" width="1024" height="1024">
	<path fill="#FEFEFE" d="M0 0L1024 0L1024 1024L0 1024L0 0Z"/>
	<path fill="#175844" d="M832.797 582.142L834.15 591.044C832.582 589.832 830.113 588.406 828.888 586.922C829.204 586.44 829.082 586.688 829.294 586.028C829.584 585.127 828.683 584.017 828.251 583.18L830.638 584.974L832.17 584.169L832.797 582.142Z"/>
	<path fill="#175844" d="M66.9977 370.263C64.3463 369.564 61.6464 369.177 58.9417 368.746L58.7513 368.338C60.9705 367.393 63.2205 366.555 65.4824 365.721L66.53 367.318L68.7054 368.449C67.6501 369.124 67.335 369 66.9977 370.263Z"/>
	<path fill="#175844" d="M753.102 440.613C757.16 439.688 761.265 438.97 765.356 438.209L764.567 440.533C761.536 441.78 758.11 441.659 755.016 442.685C754.396 441.403 754.337 441.313 753.102 440.613Z"/>
	<path fill="#064534" d="M100.917 530.494C102.74 528.553 106.015 528.382 108.419 527.189C108.571 527.113 108.721 527.035 108.872 526.958L109.544 527.262C107.478 528.866 105.333 530.351 103.189 531.849C105.507 531.065 108.526 529.431 110.897 529.155L110.504 529.961C109.943 530.353 109.667 530.603 108.98 530.717C109.626 530.661 110.158 530.622 110.779 530.424L110.641 530.141L112.584 530.888C106.337 532.783 101.259 535.38 95.6472 538.64C97.3961 536.195 100.011 533.353 100.917 530.494Z"/>
	<path fill="#0D4844" d="M643.144 245.734C620.718 224.738 609.11 199.342 608.119 168.486Q608.065 166.887 608.05 165.288Q608.035 163.688 608.061 162.088Q608.086 160.489 608.151 158.89Q608.216 157.292 608.321 155.696Q608.426 154.099 608.571 152.506Q608.715 150.913 608.9 149.324Q609.084 147.735 609.308 146.151Q609.532 144.567 609.795 142.989Q610.058 141.411 610.361 139.84Q610.664 138.269 611.005 136.707Q611.347 135.144 611.727 133.59Q612.108 132.036 612.527 130.492Q612.946 128.948 613.403 127.415Q613.86 125.882 614.356 124.361Q614.851 122.84 615.384 121.332Q615.918 119.824 616.488 118.329Q617.059 116.835 617.666 115.355Q618.274 113.875 618.919 112.411Q619.563 110.947 620.244 109.499Q620.924 108.051 621.641 106.621Q622.357 105.191 623.109 103.779Q623.861 102.367 624.648 100.974Q625.435 99.5812 626.256 98.2084Q627.078 96.8356 627.933 95.4838Q628.788 94.1319 629.677 92.8018Q630.566 91.4716 631.487 90.164Q632.409 88.8565 633.363 87.5723Q634.317 86.2881 635.302 85.028Q636.288 83.768 637.305 82.5329Q638.321 81.2979 639.369 80.0885Q640.416 78.8791 641.493 77.6963Q642.57 76.5134 643.676 75.3577C657.502 60.9006 676.671 47.6377 695.407 40.4627C692.437 58.9411 698.172 76.7825 700.928 94.9066C709.076 148.485 704.129 204.647 663.187 244.566C662.891 255.877 663.874 267.272 664.242 278.581C664.513 286.922 664.281 295.238 664.043 303.576C675.012 287.994 694.06 261.577 707.955 249.455C708.264 242.76 708.357 235.922 709.231 229.278C714.909 186.114 736.279 148.319 768.417 119.279C772.952 115.182 778.041 111.588 782.891 107.872C827.277 73.8686 872.141 64.6325 927.193 67.8127C933.21 68.1603 962.351 69.6397 965.39 72.9824C965.245 72.9813 965.1 72.978 964.955 72.9792C957.816 73.0393 950.251 75.3912 943.352 77.1478Q926.634 81.263 910.278 86.6364Q893.921 92.0097 878.02 98.6102C869.755 102.054 861.898 106.584 853.544 109.781C857.994 105.318 890.706 71.9279 891.208 69.1163C889.407 69.0026 887.985 70.4515 886.672 71.598C877.616 79.506 865.686 92.2222 857.381 101.25C853.836 105.103 850.61 109.688 846.689 113.109C841.2 117.897 833.559 121.266 827.244 124.999Q816.18 131.688 805.69 139.246C815.398 118.214 826.777 96.0168 842.578 78.8657C840.607 79.9639 838.472 81.0472 836.773 82.5461C826.46 91.6485 812.41 115.625 806.182 128.365C803.732 133.376 801.919 139.957 798.655 144.404C795.242 149.054 789.389 152.674 784.986 156.469Q778.369 162.168 772.372 168.516C776.048 155.985 778.016 143.098 781.763 130.584C784.476 121.524 788.979 112.846 791.313 103.725C781.154 118.82 775.624 137.197 771.535 154.817C770.321 160.049 770.15 168.066 767.302 172.571C763.081 179.248 750.91 188.68 744.869 195.234C748.627 176.157 750.459 156.769 754.001 137.631C752.898 139.184 751.825 140.721 751.133 142.508C746.543 154.37 741.243 187.211 741.342 199.827C731.03 210.475 715.611 225.172 710.336 239.113C709.302 241.846 708.998 244.884 708.574 247.761C723.048 232.041 736.505 215.075 751.912 200.243C781.218 194.508 813.013 195.342 841.444 185.787C829.359 185.504 816.515 188.143 804.521 189.686C789.038 191.678 768.487 192.458 754.167 198.191C761.345 189.444 775.291 175.918 784.141 168.728C784.359 168.68 784.577 168.63 784.795 168.584C801.593 165.082 862.71 165.688 872.024 159.62L872.091 158.991C868.372 157.53 860.284 158.623 856.118 158.716C837.403 159.134 804.561 159.121 787.211 164.923C798.57 155.947 809.844 146.908 821.619 138.479C833.783 139.242 846.734 137.541 858.905 136.778C868.772 136.159 879.212 136.184 888.977 134.785C892.115 134.336 895.759 133.762 898.47 132.059L898.338 131.49C891.254 129.97 882.5 131.171 875.203 131.421C859.003 131.976 842.096 131.634 826.166 134.924C836.28 128.509 861.254 112.374 872.096 109.903C875.751 109.07 879.881 109.016 883.617 108.704C894.443 107.8 905.29 107.51 916.134 106.93C918.91 106.782 926.211 106.463 927.574 103.896C924.737 101.687 887.475 104.122 881.647 104.522C899.789 95.928 920.191 90.2856 939.506 84.9814C946.743 82.9939 954.28 80.5464 961.741 79.6034C938.665 101.161 919.135 126.097 896.701 148.256C891.078 153.81 884.91 158.896 878.918 164.048C870.295 171.461 861.695 179.013 852.515 185.734C844.059 191.925 835.153 197.393 826.221 202.859C791.703 223.979 754.384 241.878 714.799 251.045C709.264 257.259 704.355 264.042 699.37 270.697C672.312 306.813 655.026 342.556 635.764 382.993C612.105 432.659 589.17 484.177 576.243 537.859C584.432 525.921 592.804 514.342 602.544 503.585C606.441 499.283 612.869 495.123 615.941 490.549C620.52 483.73 623.426 474.939 626.918 467.462Q631.282 457.979 636.41 448.887Q641.538 439.795 647.395 431.154C651.383 425.307 655.883 419.83 661.11 415.041C667.25 409.416 673.975 405.23 678.552 398.021C681.808 392.894 683.703 386.823 686.067 381.25Q689.417 373.56 693.711 366.354C698.377 358.377 703.289 350.435 709.083 343.22Q710.189 341.852 711.324 340.509Q712.459 339.166 713.624 337.848Q714.788 336.53 715.981 335.238Q717.174 333.945 718.394 332.679Q719.615 331.413 720.863 330.174Q722.111 328.935 723.386 327.724Q724.661 326.512 725.962 325.329Q727.263 324.146 728.59 322.991Q729.916 321.836 731.268 320.711Q732.619 319.586 733.995 318.49Q735.37 317.394 736.77 316.329Q738.169 315.264 739.591 314.229Q741.013 313.194 742.458 312.191Q743.902 311.188 745.368 310.216Q746.834 309.245 748.321 308.306Q749.808 307.366 751.315 306.46Q752.822 305.553 754.348 304.68Q755.875 303.806 757.42 302.966Q758.965 302.127 760.528 301.321Q762.091 300.515 763.672 299.743Q765.252 298.971 766.849 298.234Q768.446 297.497 770.058 296.795Q771.671 296.093 773.298 295.427Q774.926 294.76 776.567 294.129Q778.209 293.499 779.864 292.904Q781.519 292.309 783.186 291.75Q784.854 291.192 786.533 290.669Q788.213 290.147 789.903 289.662Q791.594 289.177 793.294 288.729Q794.995 288.28 796.705 287.869Q798.415 287.458 800.133 287.085Q801.852 286.711 803.578 286.375C835.819 280.33 870.64 283.567 902.145 292.4C914.078 295.745 925.572 300.394 937.632 303.288C915.722 308.03 895.144 325.288 876.931 337.867C867.657 344.273 858.036 350.313 848.409 356.172C815.284 376.331 778.469 392.242 740.672 401.08C727.841 404.081 714.549 405.493 701.491 407.132C696.986 407.698 692.134 407.865 687.775 409.125C672.847 413.441 661.4 427.976 653.341 440.472C645.829 452.12 638.954 464.762 634.186 477.794C648.633 465.665 668.774 458.704 686.607 453.296C691.374 451.85 697.047 451.39 701.542 449.374C707.594 446.658 712.753 440.968 717.94 436.856Q726.458 430.226 735.275 423.998C767.468 401.232 816.942 387.626 856.311 391.067C884.062 393.493 909.604 403.733 933.78 417.098C944.435 422.988 954.612 429.153 963.418 437.659C929.694 417.782 882.407 417.988 844.23 418.826L844.913 418.529C851.303 415.777 858.513 414.663 865.279 413.175C873.361 411.397 881.445 409.525 889.586 408.035C892.804 407.446 898.612 407.278 901.378 406.181C901.715 406.047 901.952 405.738 902.239 405.517L901.721 406.104L902.524 405.718C900.313 403.668 892.13 404.236 889.093 404.359C875.965 404.888 861.232 408.336 849.01 413.007C845.193 414.466 841.641 417.561 837.725 418.507C833.055 419.635 827.898 419.707 823.116 420.127C817.917 420.583 812.832 421.279 807.683 422.127C799.988 423.393 792.187 424.531 784.583 426.267C762.42 431.329 718.249 443.929 700.345 456.152C711.16 454.106 720.838 450.191 731.214 446.806C738.415 444.458 745.784 442.56 753.102 440.613C754.337 441.313 754.396 441.403 755.016 442.685C758.11 441.659 761.536 441.78 764.567 440.533L765.356 438.209C772.961 436.974 786.225 433.71 793.39 434.812C799.18 435.702 807.532 441.358 812.872 444.273C830.687 453.998 851.311 465.696 871.729 468.144C863.213 462.073 852.6 457.893 843.357 452.989C830.637 446.24 818.265 438.644 805.328 432.341C812.806 431.271 822.743 429.105 830.129 429.858C837.159 430.576 853.481 440.211 860.906 443.532C870.387 447.774 880.464 451.88 890.361 455.075C892.26 455.688 898.854 458.139 900.273 456.599C896.538 453.918 884.578 450.125 879.388 447.789C865.997 441.762 853.141 434.083 839.267 429.185C848.897 428.563 864.553 426.664 873.85 428.465C878.245 429.316 881.828 431.848 885.867 433.617C895.405 437.796 919.318 448.45 929.095 446.696L929.221 446.166C926.378 444.343 922.951 443.361 919.856 442.012C909.685 437.578 899.452 433.773 889.466 428.872C910.138 429.665 943.051 431.911 962.254 438.756C959.247 439.088 955.668 440.383 952.687 441.174C927.507 447.85 904.126 460.438 879.532 468.885C868.121 472.803 855.51 474.855 843.558 476.571C833.823 477.969 823.821 478.026 814.001 478.404C791.855 479.257 769.243 480.589 747.535 475.162C737.541 472.664 704.601 460.004 698.708 460.214C688.127 460.592 656.646 474.897 646.586 480.644C639.361 484.772 632.748 489.669 625.987 494.488L626.731 494.489C636.296 494.541 646.788 497.545 656.202 496.207C661.503 495.454 666.532 492.495 671.706 491.054C697.019 484.008 717.334 480.091 743.395 487.334C757.518 492.397 770.214 498.417 782.694 506.773C783.664 507.388 784.559 507.932 785.406 508.717C793.119 512.861 800.876 521.157 806.369 527.945C820.87 542.434 829.754 561.949 832.797 582.142L832.17 584.169L830.638 584.974L828.251 583.18C828.683 584.017 829.584 585.127 829.294 586.028C829.082 586.688 829.204 586.44 828.888 586.922C816.699 579.925 802.092 577.924 788.462 575.312C747.425 567.449 712.95 561.395 682.212 529.915C673.56 521.055 666.168 511.069 658.221 501.597C645.454 499.934 631.924 500.262 619.026 499.329C607.667 509.187 598.553 520.394 590.251 532.844C583.523 542.934 576.626 553.956 572.19 565.277C563.498 587.458 560.064 625.179 557.876 649.145C578.203 651.874 598.412 656.018 618.531 659.97Q667.844 669.392 716.686 681.014C722.952 682.484 756.408 689.536 758.469 693.324C760.945 697.875 765.693 727.244 766.983 733.945Q769.984 749.918 773.179 765.854C774.959 774.339 777.793 783.795 778.173 792.433C778.484 799.517 772.038 818.404 769.851 826.436Q760.27 863.054 749.604 899.372C765.498 899.723 781.592 902.367 797.29 904.748C818.732 908 839.536 911.845 860.61 917.013C870.201 919.366 880.042 921.69 889.286 925.196C895.201 927.439 901.013 930.382 906.133 934.115C909.06 936.249 912.383 939.024 912.848 942.85C913.225 945.957 911.703 948.775 909.749 951.079C891.798 972.243 816.728 981.495 788.865 984.02Q758.044 986.563 727.121 987.037Q696.199 987.511 665.314 985.914C638.981 984.391 612.874 981.295 586.594 979.448C574.796 978.619 562.844 978.45 551.016 978.118C528.407 977.484 505.649 978.124 483.029 978.288C476.214 978.338 463.389 979.311 457.3 978.264C452.077 977.365 445.818 973.312 441.001 971.049L409.783 956.366L362.808 934.651C355.427 931.256 347.91 928.098 340.644 924.465C337.59 922.939 334.765 921.408 332.133 919.213C329.748 913.645 328.428 907.432 326.853 901.581L319.532 874.323C312.82 849.502 305.286 824.747 299.308 799.748C298.797 797.611 298.263 795.371 298.432 793.162C299.018 785.501 300.878 777.866 302.29 770.317Q305.886 750.661 309.82 731.07C312.05 719.982 313.383 708.505 316.005 697.537C316.321 696.213 316.781 694.231 317.748 693.193C320.546 690.189 335.136 687.333 339.738 686.125Q390.719 672.91 442.508 663.34C471.479 657.721 501.019 652.164 530.349 648.81C531.412 639.747 532.182 630.586 533.639 621.579C537.51 597.655 543.166 574.335 548.495 550.728C537.03 532.104 515.096 512.365 498.684 498.007C493.995 493.904 488.568 488.48 482.94 485.857C474.224 481.796 447.777 487.026 439.156 490.46C438.913 491.305 438.72 492.128 438.531 492.986C431.199 526.228 422.943 550.069 392.685 569.376C391.846 570.011 390.969 570.84 389.996 571.234C382.93 577.532 373.571 581.727 365.835 587.244C362.012 589.971 358.19 592.857 354.755 596.059C353.167 597.539 351.793 599.626 350.135 600.94C349.136 601.732 348.963 601.663 347.788 601.486C346.673 600.179 346.557 598.442 346.417 596.792C343.816 566.103 345.579 539.775 366.745 515.381C378.948 501.316 398.674 490.727 416.713 486.606C421.051 485.615 425.526 486.011 429.87 484.927C435.764 483.457 441.491 481.349 447.4 479.957C455.547 478.038 463.843 477.501 472.166 476.911C464.228 471.74 440.608 455.137 431.828 454.027C425.991 453.289 418.063 455.449 412.244 456.616C400.697 458.933 376.679 465.326 368.415 472.914C360.244 480.417 345.782 515.985 339.643 528.189C325.078 557.138 311.817 575.571 287.308 597.093C278.479 604.846 269.081 612.296 259.348 618.884C243.15 629.849 203.855 651.355 193.884 666.722C193.765 666.906 193.336 667.61 193.185 667.805C192.386 668.841 191.879 669.135 190.622 669.365L190.326 668.034L190.727 668.666L190.762 667.338L190.199 667.114C189.505 661.073 189.397 654.817 189.072 648.743C187.019 610.462 192.354 574.329 213.819 541.672C240.028 501.799 280.588 469.454 328.891 463.199C337.048 462.143 345.437 461.45 353.666 461.535C359.374 461.594 365.674 462.486 371.292 461.735C379.998 460.572 388.818 456.009 397.371 453.687C406.124 451.311 415.046 450.442 423.888 448.613Q392.787 434.579 360.554 423.386C355.446 424.908 350.025 425.7 344.81 426.808C331.447 429.646 317.507 432.248 304.483 436.344C302.408 438.356 300.528 440.691 298.613 442.86C291.217 453.149 281.04 462.513 271.364 470.609C237.243 499.161 203.244 514.241 159.565 521.375C150.53 522.851 141.187 523.823 132.266 525.836C125.849 527.284 119.042 530.012 112.584 530.888L110.641 530.141L110.779 530.424C110.158 530.622 109.626 530.661 108.98 530.717C109.667 530.603 109.943 530.353 110.504 529.961L110.897 529.155C108.526 529.431 105.507 531.065 103.189 531.849C105.333 530.351 107.478 528.866 109.544 527.262L108.872 526.958C108.721 527.035 108.571 527.113 108.419 527.189C106.015 528.382 102.74 528.553 100.917 530.494C101.676 521.915 109.157 510.517 113.221 502.903C127.726 475.723 146.853 454.059 173.018 437.567C181.89 431.975 191.165 427.023 201.227 423.96C178.178 419.63 147.545 408.871 126.514 398.304C107.069 388.534 87.9483 376.567 66.9977 370.263C67.335 369 67.6501 369.124 68.7054 368.449L66.53 367.318L65.4824 365.721C86.7758 356.511 121.775 353.332 144.884 355.082C135.659 348.581 123.144 343.815 112.174 341.369C109.573 340.789 106.83 340.348 104.208 341.045C94.7356 343.562 69.8832 360.22 60.6844 366.142C63.3134 363.457 65.9765 360.861 68.8938 358.487C81.9642 347.851 97.6144 339.593 112.987 332.846C143.905 319.276 173.06 310.942 207.285 314.499C240.501 317.951 276.179 330.115 303.164 350.267C313.179 357.746 322.764 367.242 330.987 376.642C339.895 386.823 346.55 398.427 355.064 408.8L355.709 409.578C365.752 412.737 375.533 416.976 385.312 420.868C400.895 427.07 417.945 433.174 432.173 442.121C428.656 434.506 424.215 427.264 420.294 419.842C415.465 410.703 410.972 401.145 405.577 392.351C349.84 376.207 299.575 333.713 267.763 285.889C255.867 268.006 242.713 238.441 223.817 228.283C226.103 227.832 228.375 227.619 230.691 227.414C235.494 226.703 240.323 226.445 245.164 226.141C287.41 224.429 330.627 239.062 361.814 267.892C387.575 291.707 406.963 324.323 411.738 359.336C412.794 367.078 413.235 386.776 415.22 392.577C417.133 398.166 422.482 404.888 425.514 410.197C432.507 422.447 438.907 435.015 445.987 447.222C447.589 449.985 475.619 467.045 480.735 470.778C507.065 489.993 532.813 511.594 552.513 537.68C558.109 515.665 566.326 493.306 574.678 472.22C569.007 457.411 559.345 432.608 547.319 422.322C544.702 420.084 541.283 418.645 538.164 417.255C525.121 411.446 511.493 406.652 498.816 400.081C464.755 382.425 437.78 353.005 418.002 320.614C409.956 307.437 403.788 293.493 394.304 281.164C390.059 275.644 385.08 270.96 380.354 265.883C396.962 270.447 424.086 288.989 438.334 299.596C428.227 296.766 414.626 292.193 404.222 292.475C416.79 297.462 430.837 298.69 443.162 304.156C451.765 307.971 466.366 321.048 474.113 327.654C455.117 323.85 436.471 318.703 417.591 314.458C429.76 321.757 462.966 328.492 478.206 332.056C487.048 340.681 496.333 348.99 504.965 357.806C514.232 367.271 522.817 377.342 531.491 387.343Q538.708 395.547 545.36 404.216C549.165 409.119 552.782 414.285 557.074 418.774L557.834 418.411L558.042 418.964L557.633 419.258L558.23 419.25C557.513 416.495 555.963 414.692 554.355 412.398C547.739 404.422 541.729 395.884 535.335 387.721C515.793 364.727 495.516 341.948 473.115 321.645C465.295 314.557 456.765 308.454 448.318 302.163C432.951 290.72 417.056 278.588 399.66 270.385C393.711 267.58 387.371 265.87 381.052 264.133C392.599 264.58 404.137 266.501 415.442 268.816C456.607 277.245 493.518 295.636 522.307 326.744C544.853 351.104 562.435 381.386 561.467 415.647C561.643 418.348 561.499 420.908 561.285 423.599C568.611 435.479 574.073 447.636 579.602 460.434C584.664 449.974 589.156 439.204 594.061 428.661C599.229 417.551 604.9 406.536 609.547 395.202C605.337 372.659 603.554 356.578 592.592 335.398C590.523 331.398 588.126 326.278 584.353 323.654C578.987 319.923 572.846 317.13 567.047 314.132C557.071 308.973 546.991 303.843 537.259 298.235C493.876 273.239 458.845 236.989 430.345 196.115Q417.007 177.216 405.323 157.252C399.232 146.947 393.562 135.712 386.299 126.192C382.085 120.669 376.963 116.352 372.273 111.317C378.035 113.024 383.651 116.243 389.065 118.874C403.978 126.123 418.758 133.506 432.619 142.67C439.682 147.339 446.179 152.736 453.437 157.13C446.526 156.647 413.808 153.55 409.712 156.279C409.58 156.368 409.472 156.489 409.352 156.594C411.593 159.304 452.03 161.903 459.74 164.474C469.056 167.581 487.342 184.153 494.711 191.364C484.29 188.738 434.97 180.557 427.275 183.065L427.071 183.737C428.186 184.785 429.514 185.033 430.976 185.323C443.469 187.8 456.444 188.794 469.048 190.683C479.168 192.199 489.271 194.643 499.406 195.834C507.778 204.213 515.333 213.478 523.778 221.723Q495.137 215.891 466.027 213.261C460.522 212.749 454.344 211.786 448.837 212.33L448.368 212.91C449.818 214.084 451.928 214.362 453.736 214.671C463.474 216.334 473.393 217.159 483.169 218.728C497.949 221.1 512.715 224.166 527.525 226.247C536.25 236.935 544.1 249.157 553.651 259.05C544.012 257.104 534.779 253.985 525.282 251.485C515.669 248.954 505.863 246.909 496.152 244.777C489.321 243.277 481.733 241.138 474.731 241.449C475.591 242.029 549.981 262.668 556.18 263.96C562.056 271.236 569.769 284.069 574.262 292.465C561.766 284.012 533.161 279.373 518.273 275.817C528.182 279.65 538.929 281.712 549.15 284.735C557.737 287.274 565.968 290.675 574.412 293.616C576.854 298.128 579.354 302.626 581.648 307.214C583.448 310.815 585.027 314.776 587.344 318.072C589.863 321.655 592.94 324.654 595.71 328.017C592.994 320.017 589.839 312.003 586.208 304.371C582.979 297.587 579.15 291.044 576.462 283.997C579.797 270.79 583.149 244.064 579.797 231.026C579.019 240.778 578.435 250.55 577.577 260.295C576.923 267.714 575.857 275.211 575.889 282.66C572.489 276.142 564.779 263.336 562.938 256.999C561.355 251.551 562.633 244.239 562.401 238.512C561.624 219.333 559.538 197.803 552.174 179.982C553.675 193.106 556.189 206.001 557.458 219.188C558.527 230.293 558.257 241.747 559.87 252.743C543.304 228.821 525.544 205.601 504.188 185.662C498.019 179.902 491.06 174.56 484.429 169.332C481.312 166.874 477.779 164.532 475.093 161.59C472.693 158.961 471.377 155.506 469.364 152.583C461.544 141.229 449.198 122.95 438.054 115.229C443.809 124.367 450.785 132.818 457.386 141.354C462.136 147.498 466.678 154.151 472.23 159.59C472.391 159.748 472.546 159.91 472.705 160.069L472.994 160.353C450.386 144.256 398.148 112.11 371.603 108.22L368.908 107.811C402.17 105.889 438.308 107.949 469.877 119.506C478.888 122.804 487.305 127.066 495.775 131.534C510.668 139.389 523.908 148.295 536.506 159.512C572.513 191.57 592.241 237.771 594.967 285.544C595.179 289.26 595.383 292.965 595.208 296.687C595.002 301.091 594.077 306.277 594.826 310.634C596.015 317.557 600.416 324.157 603.005 330.687C609.536 347.165 614.966 364.345 617.076 381.986C621.439 374.092 625.36 365.968 629.675 358.05C638.355 342.125 647.718 326.304 657.907 311.305C655.401 295.319 650.071 277.988 646.438 261.956C645.238 256.659 643.7 251.14 643.144 245.734Z"/>
	<path fill="#175844" d="M689.12 400.424C688.916 402.145 688.472 403.343 689.252 404.918L690.387 405.284C689.457 405.701 687.693 405.846 686.677 405.76C685.587 405.667 685.523 405.538 684.869 404.742L685.111 403.39C686.189 401.863 687.487 401.273 689.12 400.424Z"/>
	<path fill="#394A4A" d="M230.691 227.414C235.494 226.703 240.323 226.445 245.164 226.141C244.941 226.281 244.723 226.428 244.497 226.562C243.336 227.245 241.986 227.183 240.68 227.22L239.904 227.801C244.042 227.934 249.374 227.653 253.301 228.911C249.333 228.942 237.505 228.069 234.621 229.782C234.293 229.777 233.96 229.818 233.636 229.767C232.107 229.528 231.587 228.511 230.691 227.414Z"/>
	<path fill="#FEFEFE" d="M734.752 219.667C741.819 218.999 748.891 219.538 755.964 219.795C762.224 220.022 768.391 219.961 774.627 220.706L774.024 220.771C768.186 221.232 738.752 222.405 734.351 220.608L734.752 219.667Z"/>
	<path fill="#FEFEFE" d="M728.907 452.023C738.245 452.393 764.3 469.243 771.17 476.022C769.522 475.955 768.248 475.801 766.753 475.065C760.314 471.897 754.353 466.933 748.295 463.036C742.032 459.006 735.384 455.679 728.907 452.023Z"/>
	<path fill="#FEFEFE" d="M685.122 502.984C686.178 503.355 687.205 503.761 688.165 504.343C698.739 510.751 704.053 525.414 708.779 536.173C710.563 540.234 712.752 544.433 713.81 548.74C710.379 546.787 699.966 523.104 696.664 517.819C693.293 512.424 689.351 507.704 685.122 502.984Z"/>
	<path fill="#FEFEFE" d="M464.442 370.473C471.264 370.86 494.947 379.398 503.422 381.882C511.316 384.196 519.59 385.8 527.35 388.487C529.081 389.086 530.314 389.916 531.624 391.182C520.161 391.363 475.708 375.788 464.442 370.473Z"/>
	<path fill="#8DCF9E" d="M417.21 490.07C418.338 490.015 418.852 489.789 419.85 490.371C415.384 496.989 391.234 504.206 383.25 507.005C382.191 507.438 381.154 507.845 380.062 508.191L379.981 507.843C384.354 501.447 409.701 491.929 417.21 490.07Z"/>
	<path fill="#FEFEFE" d="M767.208 530.306C780.724 542.35 790.135 556.637 797.374 573.175C791.109 569.445 770.585 537.659 767.208 530.306Z"/>
	<path fill="#FEFEFE" d="M433.137 338.02C437.561 338.323 447.507 343.071 452.523 344.656Q467.112 349.114 481.914 352.807C487.703 354.247 501.944 356.638 506.232 359.897C492.567 361.733 446.484 345.863 433.137 338.02Z"/>
	<path fill="#FEFEFE" d="M522.642 152.717C523.274 153.157 523.343 153.166 523.949 153.797C531.428 161.581 535.505 205.677 534.989 217.158C533.584 215.736 533.284 213.639 532.901 211.745C531.157 203.097 530.689 194.187 529.418 185.459C527.805 174.392 525.252 163.584 522.642 152.717Z"/>
	<path fill="#175844" d="M803.253 561.082C797.494 556.052 791.162 550.966 785.968 545.369C786.88 545.057 787.786 544.844 788.524 544.198C788.64 544.097 788.734 543.972 788.839 543.86C798.264 552.465 809.131 560.237 817.416 569.928C820.229 572.518 822.616 575.774 824.885 578.848C824.268 579.337 823.62 579.745 822.959 580.172C821.314 579.742 805.458 563.489 803.253 561.082Z"/>
	<path fill="#8DCF9E" d="M266.534 422.23C275.276 424.857 284.07 427.284 292.509 430.801C287.703 430.826 281.966 432.695 277.39 432.097C268.222 429.19 258.585 426.256 249.163 424.348C254.955 423.598 260.751 423.098 266.534 422.23Z"/>
	<path fill="#FEFEFE" d="M818.879 396.594L820.589 396.597C820.005 397.401 808.185 402.956 805.9 404.243C792.565 411.757 780.196 420.646 767.231 428.712L766.088 428.789L766.095 427.854C774.661 416.082 804.952 400.098 818.879 396.594Z"/>
	<path fill="#FEFEFE" d="M480.801 127.849C481.426 128.025 481.443 128.002 482.116 128.349C492.226 133.565 506.422 177.445 509.692 189.283C508.052 188.522 506.512 187.088 505.677 185.465C502.255 178.807 499.885 168.998 497.098 161.768C492.484 149.798 486.851 139.1 480.801 127.849Z"/>
	<path fill="#FEFEFE" d="M321.119 371.87C328.301 376.679 343.203 396.673 347.62 404.486C342.301 402.825 336.96 400.266 331.757 398.207C328.116 389.475 324.325 380.773 321.119 371.87Z"/>
	<path fill="#8DCF9E" d="M406.523 270.554Q407.85 270.634 409.172 270.782C413.781 271.299 418.549 272.016 422.765 274.048C431.786 278.395 441.456 290.457 447.62 298.253C437.224 295.441 416.917 276.305 406.523 270.554Z"/>
	<path fill="#8DCF9E" d="M403.951 502.126L404.042 502.165L403.943 502.857C400.994 505.916 398.032 509.368 394.509 511.773C387.282 516.708 373.679 519.713 364.433 524.892L364.233 524.665C364.325 524.366 364.383 524.054 364.509 523.768C365.074 522.494 366.343 521.138 367.182 519.989C369.134 517.318 371.064 515.013 373.832 513.129C381.202 508.112 395.134 505.524 403.951 502.126Z"/>
	<path fill="#FEFEFE" d="M404.675 340.861C404.784 341.031 404.916 341.189 405.004 341.372C407.147 345.831 412.158 383.237 410.536 387.332L409.773 386.781C407.239 382.859 404.708 378.698 401.505 375.291C401.343 364.076 402.175 351.817 404.675 340.861Z"/>
	<path fill="#FEFEFE" d="M858.782 395.129C860.552 394.988 862.189 394.754 863.919 395.232C863.48 395.867 849.309 400.414 847.2 401.25C833.021 406.869 819.406 414.077 805.658 420.678C804.641 421.097 803.852 421.436 802.748 421.57C801.827 421.682 802.173 421.732 801.428 421.143C801.583 420.711 801.608 420.56 801.928 420.15C803.797 417.762 807.675 415.512 810.233 413.912C825.23 404.536 841.44 398.474 858.782 395.129Z"/>
	<path fill="#8DCF9E" d="M387.239 518.465C387.492 518.505 387.688 518.714 387.902 518.855C383.517 523.876 378.88 532.201 373.761 535.998C370.402 538.489 365.949 539.941 362.206 541.779C359.008 543.35 356.179 545.399 353.333 547.526L352.864 547.426C352.564 545.649 353.717 543.286 354.369 541.611C355.593 538.467 356.945 534.449 359.024 531.753C362.711 526.973 381.075 521.145 387.239 518.465Z"/>
	<path fill="#8DCF9E" d="M109.544 527.262C114.525 524.779 119.471 520.646 123.975 517.346C132.684 510.964 141.192 504.562 150.383 498.879L146.853 506.838C144.758 511.534 142.395 516.343 141.118 521.335C130.975 523.206 120.402 524.958 110.897 529.155C108.526 529.431 105.507 531.065 103.189 531.849C105.333 530.351 107.478 528.866 109.544 527.262Z"/>
	<path fill="#8DCF9E" d="M672.936 494.057C687.773 489.3 705.412 485.332 720.986 485.751C727.075 485.915 733.112 486.932 739.107 487.941C737.523 488.337 735.886 488.676 734.336 489.181C725.917 491.375 717.617 494.065 709.78 497.868C696.57 494.882 686.643 492.631 672.936 494.057Z"/>
	<path fill="#8DCF9E" d="M788.839 543.86C795.344 546.378 815.728 553.245 820.319 556.628C822.231 558.037 823.494 559.87 824.479 562.009C827.849 569.331 828.349 577.396 830.638 584.974L828.251 583.18L824.885 578.848C822.616 575.774 820.229 572.518 817.416 569.928C809.131 560.237 798.264 552.465 788.839 543.86Z"/>
	<path fill="#FEFEFE" d="M391.479 364.155C391.221 363.48 391.141 363.04 391.264 362.32C393.942 346.638 392.289 329.924 393.661 314.032C408.62 337.23 398.179 348.244 398.498 373.034C396.825 370.578 394.08 365.362 391.479 364.155Z"/>
	<path fill="#FEFEFE" d="M734.688 513.886C735.125 513.984 735.271 514.002 735.739 514.191C740.471 516.092 750.174 520.846 753.877 524.325C763.311 533.188 769 556.362 774.606 568.78C767.224 566.531 753.227 538.023 748.44 530.807C744.363 524.662 739.982 519.028 734.688 513.886Z"/>
	<path fill="#8DCF9E" d="M435.831 492.015C436.071 492.262 436.083 492.213 436.156 492.613C436.602 495.07 434.706 499.813 433.979 502.334C429.298 518.548 424.141 533.528 413.533 546.993C413.341 546.794 413.294 546.779 413.196 546.443C412.245 543.18 422.605 503.61 424.867 498.385C428.332 495.974 432.132 494.04 435.831 492.015Z"/>
	<path fill="#FEFEFE" d="M663.427 499.724C677.047 498.543 702.097 501.497 714.493 506.553C727.598 511.899 739.191 546.314 744.267 559.108L743.531 559.549L743.628 559.721L744.352 559.35L744.695 560.462L744.417 561.143L745.005 561.201L744.562 561.795L742.69 561.134C738.237 557.225 735.756 550.528 733.17 545.294C726.812 532.424 716.05 510.279 702.409 504.839C693.222 501.175 679.519 501.103 669.606 500.796C666.79 500.709 662.098 501.319 659.609 500.31L663.427 499.724Z"/>
	<path fill="#FEFEFE" d="M218.234 596.467C218.595 596.681 218.366 596.503 218.652 597.231C215.701 604.186 211.346 610.784 208.077 617.661C202.611 629.16 198.034 641.075 192.735 652.658C191.256 646.199 192.171 626.448 192.506 619.026C200.627 611.332 209.56 603.549 218.234 596.467Z"/>
	<path fill="#FEFEFE" d="M764.567 440.533C765.917 440.408 767.006 440.445 768.27 440.986C776.616 444.565 784.557 449.851 792.792 453.821L820.589 467.078C825.85 469.55 831.431 471.807 836.455 474.707C813.651 471.803 793.089 460.741 772.717 450.842C766.886 448.008 760.74 445.689 755.016 442.685C758.11 441.659 761.536 441.78 764.567 440.533Z"/>
	<path fill="#8DCF9E" d="M370.97 540.543C371.439 542.341 364.813 554.618 363.787 557.008C358.474 569.379 353.856 582.485 350.023 595.4C349.301 592.747 349.49 589.598 349.348 586.846C348.728 574.815 348.525 563.208 351.305 551.384C358.092 548.194 363.979 543.575 370.97 540.543Z"/>
	<path fill="#8DCF9E" d="M689.12 400.424C690.661 396.684 693.026 394.574 696.812 393.095C709.319 388.207 734.461 393.83 747.693 396.458C728.717 400.846 709.672 402.856 690.387 405.284L689.252 404.918C688.472 403.343 688.916 402.145 689.12 400.424Z"/>
	<path fill="#FEFEFE" d="M297.273 350.322C297.481 350.417 297.69 350.509 297.896 350.608C303.505 353.293 311.383 360.256 314.764 365.478C318.765 371.657 324.528 388.417 327.196 396.043Q319.097 392.944 310.895 390.131C306.277 376.848 301.487 363.756 297.273 350.322Z"/>
	<path fill="#8DCF9E" d="M465.131 288.84C470.655 290.969 477.377 294.264 482.188 297.677C491.443 304.242 495.199 330.876 496.99 342.048C492.82 337.731 488.047 333.572 484.774 328.497C481.28 323.078 479.476 316.272 476.997 310.307C473.793 302.594 469.781 295.734 465.131 288.84Z"/>
	<path fill="#8DCF9E" d="M767.461 526.98C776.705 526.157 799.889 530.252 807.673 534.913C812.661 537.899 818.611 547.354 820.023 552.917C819.914 552.884 819.809 552.838 819.697 552.818C816.436 552.235 781.87 538.292 778.489 536.256C774.317 533.743 770.953 530.33 767.461 526.98Z"/>
	<path fill="#FEFEFE" d="M253.301 228.911C260.858 229.484 268.577 229.809 276.048 231.096C281.875 241.487 289.554 250.456 294.239 261.56C287.671 256.745 281.147 251.836 274.243 247.509C265.411 241.975 244.404 230.944 234.621 229.782C237.505 228.069 249.333 228.942 253.301 228.911Z"/>
	<path fill="#FEFEFE" d="M205.587 425.128C212.862 425.989 220.229 426.619 227.559 426.435C233.257 426.291 239.588 425.135 245.21 425.932C251.754 426.859 263.291 432.076 270.988 434.074C266.661 434.837 262.399 435.844 258.123 436.845C255.197 437.714 252.243 438.501 249.303 439.323C233.696 434.621 211.118 430.99 194.836 429.205C198.454 427.943 202.016 426.514 205.587 425.128Z"/>
	<path fill="#8DCF9E" d="M737.424 319.572C735.869 323.658 730.753 329.401 728.182 333.339C720.3 345.412 712.161 359.302 707.614 372.996C701.25 378.172 694.798 383.104 688.651 388.554C688.591 388.178 688.561 388.099 688.611 387.641C689.651 378.012 712.036 344.291 718.933 336.465C724.362 330.305 731.155 324.869 737.424 319.572Z"/>
	<path fill="#8DCF9E" d="M745.796 510.353C757.707 508.979 767.645 510.007 779.378 512.3C790.337 515.44 794.652 519.114 802.383 527.091C802.786 527.641 803.109 528.244 803.454 528.83L802.749 529.177C799.129 528.815 795.756 527.359 792.176 526.725C782.886 525.082 768.331 524.811 760.139 520.818C755.144 518.383 750.398 513.594 745.796 510.353Z"/>
	<path fill="#8DCF9E" d="M240.357 238.414C252.514 241.655 290.006 266.7 299.518 275.123C293.277 273.892 287.061 271.952 280.838 270.534C273.917 268.957 266.483 268.025 259.842 265.516C256.951 262.389 254.878 258.428 252.567 254.86C248.843 249.113 244.938 243.518 240.357 238.414Z"/>
	<path fill="#FEFEFE" d="M298.265 415.206C309.7 414.123 332.188 414.895 342.8 418.524C332.897 419.775 323.067 422.903 313.475 425.58C309.717 426.559 305.672 427.903 301.794 428.146C295.264 428.557 278.626 422.32 270.66 420.6C280.99 416.655 287.265 415.839 298.265 415.206Z"/>
	<path fill="#8DCF9E" d="M432.597 276.867C438.056 277.753 443.885 279.699 449.086 281.534C452.575 282.765 456.087 284.163 459.006 286.493C469.734 295.052 473.728 312.741 479.419 324.727C477.032 322.945 474.86 320.276 472.539 318.293C466.818 313.402 460.08 308.91 455.119 303.24C447.452 294.476 441.278 284.819 432.597 276.867Z"/>
	<path fill="#FEFEFE" d="M364.333 464.87L364.076 465.481C356.754 467.521 350.603 473.911 343.02 475.497C336.279 476.907 328.471 476.623 321.573 477.05C308.372 477.869 294.857 479.337 281.995 482.455L282.02 481.961C285.494 479.376 290.082 477.55 294.052 475.844C316.548 466.177 340.206 464.58 364.333 464.87Z"/>
	<path fill="#8DCF9E" d="M865.058 288.511C876.61 288.627 906.951 295.313 917.232 300.648C907.264 300.6 897.341 300.064 887.379 300.613C871.22 301.813 856.106 304.458 840.414 308.473Q843.13 305.565 846.041 302.853Q848.951 300.141 852.043 297.636Q855.135 295.132 858.392 292.848Q861.65 290.564 865.058 288.511Z"/>
	<path fill="#FEFEFE" d="M162.768 478.208C164.032 478.068 164.742 477.92 165.983 478.34L165.202 478.52L165.714 478.569L164.65 478.766L165.429 478.771C145.535 490.921 124.271 505.431 108.383 522.625C107.899 523.137 107.595 523.283 106.972 523.582C106.374 518.823 125.113 488.599 128.79 483.729C140.041 481.61 151.352 479.204 162.768 478.208Z"/>
	<path fill="#8DCF9E" d="M686.69 48.6089C679.747 59.9028 663.464 83.2979 664.754 96.6072C663.093 101.309 661.002 105.779 659.188 110.412C659.219 104.334 656.83 97.5209 655.576 91.5671C654.206 85.0607 653.154 78.5176 652.158 71.9452C662.987 62.6508 674.01 55.2032 686.69 48.6089Z"/>
	<path fill="#FEFEFE" d="M265.853 333.796C272.827 335.278 287.648 343.496 293.064 347.758C298.765 360.655 301.753 375.101 307.349 388.351C303.255 387.382 299.214 385.599 295.266 384.138C292.804 377.936 289.107 371.868 285.834 366.057C279.578 354.95 273.266 344.17 265.853 333.796Z"/>
	<path fill="#8DCF9E" d="M537.245 353.26L536.754 349.644L536.961 349.442L536.768 348.888C536.848 349.079 536.895 349.288 537.006 349.463C537.082 349.584 537.218 349.656 537.319 349.758C539.26 351.716 540.834 355.167 542.282 357.551C552.544 374.446 559.056 394.457 558.666 414.412L554.257 408.704C554.547 409.95 555.046 411.206 554.355 412.398C547.739 404.422 541.729 395.884 535.335 387.721L536.95 386.856C538.364 388.218 539.616 390.422 540.808 392.028C538.235 381.051 536.896 365.42 535.212 353.804L536.213 352.737L537.245 353.26Z"/>
	<path fill="#064534" d="M535.212 353.804L536.213 352.737L537.245 353.26C539.295 363.192 542.348 391.177 546.089 398.011C548.226 401.914 551.858 404.955 554.257 408.704C554.547 409.95 555.046 411.206 554.355 412.398C547.739 404.422 541.729 395.884 535.335 387.721L536.95 386.856C538.364 388.218 539.616 390.422 540.808 392.028C538.235 381.051 536.896 365.42 535.212 353.804Z"/>
	<path fill="#8DCF9E" d="M743.395 487.334C757.518 492.397 770.214 498.417 782.694 506.773L779.491 507.526L780.454 508.611C779.369 509.015 761.226 506.006 757.481 505.886C751.107 505.681 744.817 506.405 738.78 508.506C734.646 506.99 721.171 502.723 718.485 500.307C717.784 499.678 717.955 499.614 717.875 498.749C720.515 495.441 731.237 492.451 735.412 490.867L734.336 489.181C735.886 488.676 737.523 488.337 739.107 487.941C740.538 488.337 742.001 487.72 743.395 487.334Z"/>
	<path fill="#064534" d="M743.395 487.334C757.518 492.397 770.214 498.417 782.694 506.773L779.491 507.526C774.984 506.04 770.125 502.21 765.946 499.82Q759.896 496.342 753.469 493.625Q747.042 490.908 740.332 488.992L735.412 490.867L734.336 489.181C735.886 488.676 737.523 488.337 739.107 487.941C740.538 488.337 742.001 487.72 743.395 487.334Z"/>
	<path fill="#8DCF9E" d="M690.256 50.4249C691.385 52.2992 691.807 64.7026 692.34 68.244C693.299 74.6107 694.68 80.924 695.976 87.2289C688.061 92.4191 676.155 104.932 669.427 112.061C668.398 113.237 667.579 114.496 666.084 114.993C665.994 114.674 665.857 114.364 665.815 114.035C665.524 111.779 667.851 105.993 668.499 103.654C674.527 81.8874 678.329 70.2037 690.256 50.4249Z"/>
	<path fill="#8DCF9E" d="M400.698 523.548C405.051 512.014 412.171 509.39 420.962 502.112C416.458 517.936 413.484 533.826 410.642 550.018C404.269 556.279 397.189 561.751 390.046 567.096C392.686 552.384 396.956 538.003 400.698 523.548Z"/>
	<path fill="#8DCF9E" d="M695.148 180.606C694.642 185.045 692.867 189.629 691.307 193.822C684.327 212.583 673.267 230.73 657.899 243.835C657.672 235.2 658.099 226.258 657.123 217.688C662.715 211.769 669 206.406 674.94 200.829Q685.29 190.963 695.148 180.606Z"/>
	<path fill="#FEFEFE" d="M242.46 560.556C241.99 562.987 238.521 566.838 237.041 568.997C232.986 574.915 229.084 581.677 224.485 587.172C221.906 590.254 217.541 592.82 214.421 595.405C207.34 601.272 200.579 607.55 193.309 613.184C191.884 608.85 195.834 592.827 197.306 587.911C207.224 577.979 229.174 566.065 242.46 560.556Z"/>
	<path fill="#8DCF9E" d="M612.391 172.384C620.352 183.897 629.406 194.582 637.831 205.738C640.838 209.72 643.177 215.182 646.756 218.566L647.214 217.684C648.389 221.381 647.685 237.882 648.652 243.965C646.197 242.795 644.275 241.177 642.289 239.349C624.436 222.925 613.508 196.368 612.391 172.384Z"/>
	<path fill="#FEFEFE" d="M280.214 231.798C290.944 233.63 301.197 236.898 311.492 240.349C316.205 256.364 322.202 273.536 326.101 289.611C321.842 285.886 317.997 281.488 313.849 277.594C309.43 273.446 302.848 269.123 299.437 264.205C296.828 260.443 295.324 255.637 293.062 251.616C289.229 244.803 284.553 238.306 280.214 231.798Z"/>
	<path fill="#FEFEFE" d="M153.947 455.426C162.081 456.04 170.445 455.561 178.607 455.55C187.97 455.537 197.231 455.97 206.572 456.576Q191.468 462.964 177.406 471.402C177.291 471.471 177.178 471.541 177.062 471.608C176.869 471.718 176.672 471.822 176.478 471.931C175.197 472.653 174.034 473.215 172.578 473.507C167.813 474.463 162.713 474.654 157.875 475.224Q144.981 476.673 132.298 479.41C138.033 470.545 146.565 462.96 153.947 455.426Z"/>
	<path fill="#8DCF9E" d="M399.184 521.631L399.966 521.99L399.366 523.727L399.891 524.4L400.189 523.36L400.698 523.548C396.956 538.003 392.686 552.384 390.046 567.096L390.826 567.394C390.636 567.49 390.442 567.577 390.257 567.681C389.132 568.313 388.173 569.15 387.182 569.968C387.848 570.434 387.626 570.503 388.239 570.367C389.594 570.065 390.937 569.549 392.186 568.955L392.685 569.376C391.846 570.011 390.969 570.84 389.996 571.234C387.025 571.314 383.748 572.749 381.074 574.026L380.909 573.369C371.168 578.97 362.653 585.308 353.978 592.392C355.588 587.639 357.956 582.835 360.421 578.462L360.998 581.574L361.461 581.591C369.431 561.098 383.729 537.203 399.184 521.631Z"/>
	<path fill="#064534" d="M399.184 521.631L399.966 521.99L399.366 523.727L399.891 524.4L400.189 523.36L400.698 523.548C396.956 538.003 392.686 552.384 390.046 567.096L390.826 567.394C390.636 567.49 390.442 567.577 390.257 567.681C389.132 568.313 388.173 569.15 387.182 569.968C387.848 570.434 387.626 570.503 388.239 570.367C389.594 570.065 390.937 569.549 392.186 568.955L392.685 569.376C391.846 570.011 390.969 570.84 389.996 571.234C387.025 571.314 383.748 572.749 381.074 574.026L380.909 573.369Q384.545 570.825 388.067 568.127C390.91 552.279 394.706 537.087 399.184 521.631Z"/>
	<path fill="#FEFEFE" d="M372.472 284.128C372.574 284.231 372.678 284.332 372.779 284.436C377.143 288.897 391.421 306.593 391.391 311.949C388.759 328.016 390.809 344.76 389.215 360.913C384.475 355.44 379.527 350.15 374.791 344.672C373.864 333.819 374.092 322.497 373.742 311.578C373.448 302.422 372.568 293.285 372.472 284.128Z"/>
	<path fill="#8DCF9E" d="M730.39 373.71C748.016 374.103 765.485 380.191 782.246 385.19C773.25 388.548 764.24 391.753 755.012 394.421C749.528 395.068 735.448 391.136 729.555 389.933C720.838 388.154 712.245 386.452 703.376 385.638C713.312 377.684 717.297 374.529 730.39 373.71Z"/>
	<path fill="#FEFEFE" d="M556.853 695.859C580.328 698.698 605.64 700.874 627.909 709.197C624.138 709.614 620.374 710.217 616.616 710.741C610.893 712.536 603.65 712.909 597.699 713.785L556.706 719.866Q556.846 707.863 556.853 695.859Z"/>
	<path fill="#8DCF9E" d="M777.95 296.476L778.591 296.535C778.394 297.604 769.782 306.769 768.385 308.445C763.298 314.542 758.323 320.723 754.155 327.494C750.272 333.803 745.782 344.172 740.943 349.264C736.358 354.088 723.04 361.066 716.787 365.678L716.424 365.777L716.067 365.281Q716.636 363.464 717.345 361.697C720.317 354.36 724.751 347.26 728.577 340.327C732.965 332.376 738.943 321.376 745.35 314.973C753.335 306.993 767.631 300.908 777.95 296.476Z"/>
	<path fill="#8DCF9E" d="M909.052 305.209C913.093 304.731 917.297 305.004 921.344 305.282C916.558 308.591 911.151 311.122 906.21 314.227C898.446 319.106 891.012 324.558 883.518 329.839C873.997 328.417 864.384 325.554 855.042 323.172L835.344 317.501C859.299 310.444 884.232 307.301 909.052 305.209Z"/>
	<path fill="#8DCF9E" d="M630.51 98.564C635.483 89.8211 642.438 81.0264 649.649 74.0474C650.466 80.8343 654.638 107.279 658.839 111.084C655.32 122.574 654.261 134.408 651.655 146.091C648.41 142.031 646.423 135.663 644.286 130.905C642.442 125.368 639.296 119.903 636.905 114.548C634.558 109.289 632.702 103.88 630.51 98.564Z"/>
	<path fill="#8DCF9E" d="M616.083 134.049C623.445 152.378 635.34 168.757 645.91 185.309L646.945 185.393L646.221 185.784L646.762 186.251L647.491 183.036L646.676 212.574C642.374 207.803 638.536 202.204 634.634 197.08Q623.108 182.2 612.31 166.783C612.458 155.703 613.094 144.778 616.083 134.049Z"/>
	<path fill="#FEFEFE" d="M190.196 431.551C194.978 432.752 200.036 433.298 204.908 434.076C217.089 436.02 229.784 437.747 241.567 441.475C237.994 443.276 233.978 444.481 230.272 446.019C224.948 448.23 219.383 451.236 213.851 452.741C212.194 453.191 210.295 453.026 208.599 452.946C191.517 452.13 174.555 451.799 157.459 452.447C167.977 444.749 178.597 437.548 190.196 431.551Z"/>
	<path fill="#8DCF9E" d="M699.573 149.79C699.472 155.542 698.721 174.022 695.407 178.103C687.155 185.212 678.877 192.834 671.532 200.886C668.656 203.517 658.648 211.87 656.983 214.139C656.83 206.307 655.964 190.778 657.829 183.764C657.875 184.346 658.041 184.842 658.205 185.4C661.435 184.407 695.157 154.311 699.573 149.79Z"/>
	<path fill="#8DCF9E" d="M664.363 120.413L664.969 120.544C665.109 120.302 665.246 120.057 665.391 119.817C666.689 117.675 668.994 115.665 670.738 113.852C678.48 105.803 690.045 96.8835 696.227 88.3866C697.482 97.5515 698.816 106.8 699.111 116.056C694.228 120.439 661.826 150.635 660.019 153.816C660.554 145.842 662.083 127.379 664.363 120.413Z"/>
	<path fill="#FEFEFE" d="M326.822 479.714C329.955 479.414 333.225 479.481 336.378 479.37C328.773 484.048 316.99 492.833 309.546 496.091C302.328 499.25 291.109 499.231 283.067 500.989C271.587 503.5 260.431 507.103 249.275 510.759C246.553 511.888 243.602 512.688 240.792 513.595C249.202 504.548 259.421 494.796 270.566 489.381C284.183 482.764 311.525 480.808 326.822 479.714Z"/>
	<path fill="#8DCF9E" d="M829.267 286.226C839.457 285.902 849.725 286.852 859.87 287.68C850.34 294.427 841.749 302.419 833.509 310.665C824.944 313.009 816.33 315.248 807.886 318.006C800.115 320.532 792.757 323.607 785.346 327.015C792.496 317.861 818.487 287.768 829.267 286.226Z"/>
	<path fill="#8DCF9E" d="M829.909 319.618C832.053 319.261 871.982 330.594 881.538 331.283Q871.342 338.095 861.03 344.731L849.391 342.53Q831.448 338.997 813.596 335.025C807.546 333.69 801.168 332.635 795.285 330.699C806.534 326.402 818.201 322.471 829.909 319.618Z"/>
	<path fill="#8DCF9E" d="M660.051 155.476C662.368 153.115 665.074 151.072 667.467 148.762C673.797 142.649 679.957 136.357 686.404 130.366C690.715 126.361 695.802 122.43 699.426 117.831C699.621 122.949 701.289 145.011 698.946 148.169C684.652 159.062 671.352 170.666 657.998 182.694C657.769 174.031 658.62 163.996 660.051 155.476Z"/>
	<path fill="#FEFEFE" d="M315.399 242.133C323.23 244.305 336.724 252.403 343.47 257.203C343.639 266.844 345.776 276.935 347.111 286.498C348.466 296.202 349.316 306.109 351.365 315.691C348.855 314.125 346.536 310.971 344.483 308.812C340.807 304.945 336.647 301.051 333.777 296.533C327.815 287.152 319.482 254.658 315.399 242.133Z"/>
	<path fill="#FEFEFE" d="M269.84 528.616L270.218 529.116C267.672 532.551 264.339 535.496 261.482 538.687C257 543.695 252.546 550.52 247.15 554.451C243.912 556.81 239.255 558.206 235.619 560.05C223.1 566.399 210.164 572.704 199.411 581.856L199.298 581.755C198.404 577.065 206.089 561.307 208.782 556.713C215.761 544.809 256.494 532.143 269.84 528.616Z"/>
	<path fill="#8DCF9E" d="M819.371 287.234L820.222 287.214C819.742 288.578 806.675 298.823 804.37 300.946C794.714 309.837 785.328 320 777.496 330.534C768.318 334.957 758.966 339.163 750.187 344.347L749.456 344.308C749.673 342.282 751.743 339.401 752.747 337.565C761.825 320.975 773.323 307.79 785.933 293.91C795.404 290.206 809.182 288.17 819.371 287.234Z"/>
	<path fill="#FEFEFE" d="M346.336 259.634C352.112 262.204 366.493 276.526 370.595 281.884C369.183 300.543 371.187 320.185 371.987 338.913L371.323 339.419C366.976 334.121 357.648 325.185 355.066 319.427C352.995 314.809 350.121 285.699 349.192 279.055C348.291 272.609 346.737 266.12 346.336 259.634Z"/>
	<path fill="#FEFEFE" d="M299.343 501.674C300.549 501.47 301.148 501.261 302.336 501.71C297.191 505.903 291.847 509.847 286.843 514.212C284.252 516.473 281.66 520.06 278.789 521.802C272.789 525.443 264.723 526.461 258.051 528.576C244.034 533.018 230.607 537.886 217.742 545.077C216.992 545.518 216.552 545.667 215.684 545.726C216.38 540.686 232.105 523.16 235.96 518.764C257.227 512.133 277.233 505.119 299.343 501.674Z"/>
	<path fill="#FEFEFE" d="M228.035 320.899C238.913 322.54 250.799 327.067 260.772 331.546C267.663 341.055 273.464 351.617 279.357 361.772C283.265 368.508 287.737 375.39 290.653 382.608C281.906 379.322 273.033 376.742 264.046 374.201C258.614 358.35 239.058 334.369 228.035 320.899Z"/>
	<path fill="#FEFEFE" d="M526.627 696.735C527.166 696.724 526.834 696.671 527.515 697.213C527.629 705.585 527.157 714.03 526.929 722.403C503.416 719.427 480.127 714.649 456.683 711.164Q450.129 710.101 443.552 709.196C465.721 700.493 501.997 699.606 526.627 696.735Z"/>
	<path fill="#FEFEFE" d="M142.833 324.499L144.201 324.417C159.705 331.389 181.833 348.269 194.464 359.887C185.029 358.192 175.666 357.013 166.121 356.107C162.132 355.849 157.543 355.944 153.709 354.818C147.534 353.002 141.87 348.887 136.08 346.101C127.973 342.201 119.364 339.691 110.712 337.336C121.23 332.38 131.828 328.231 142.833 324.499Z"/>
	<path fill="#8DCF9E" d="M628.6 102.195C630.43 106.981 632.169 112.154 634.831 116.543L635.461 116.516C637.953 121.085 640.297 125.814 642.663 130.456C643.245 131.596 643.535 132.921 644.22 133.983C644.346 132.921 644.356 131.972 644.286 130.905C646.423 135.663 648.41 142.031 651.655 146.091L651.346 148.548C649.764 159.78 648.465 170.952 647.395 182.244C636.42 165.075 624.99 148.034 617.135 129.155Q618.022 125.584 619.19 122.095Q620.357 118.606 621.797 115.22Q623.237 111.834 624.94 108.572Q626.644 105.311 628.6 102.195Z"/>
	<path fill="#064534" d="M634.831 116.543L635.461 116.516C637.953 121.085 640.297 125.814 642.663 130.456C643.245 131.596 643.535 132.921 644.22 133.983C644.346 132.921 644.356 131.972 644.286 130.905C646.423 135.663 648.41 142.031 651.655 146.091L651.346 148.548C646.871 144.399 637.715 123.226 634.831 116.543Z"/>
	<path fill="#FEFEFE" d="M557.008 678.388C567.011 678.855 577.628 680.988 587.562 682.471C618.628 687.108 649.995 692.956 680.462 700.626L674.385 701.47C663.882 703.878 652.914 705.375 642.273 707.061C637.797 705.139 632.718 703.844 628.023 702.516C604.832 695.957 580.922 692.911 557.005 690.547L557.008 678.388Z"/>
	<path fill="#FEFEFE" d="M186.921 317.119C199.176 316.697 211.044 318.228 223.089 320.243C236.325 335.704 250.888 355.105 260.196 373.16Q248.708 370.008 237.079 367.422C234.449 363.231 230.788 359.356 227.48 355.668C214.933 341.679 200.882 329.619 186.921 317.119Z"/>
	<path fill="#8DCF9E" d="M490.667 303.764L492.14 304.8C504.848 313.787 526.582 331.865 533.276 345.715C534.45 348.144 534.757 351.158 535.212 353.804C536.896 365.42 538.235 381.051 540.808 392.028C539.616 390.422 538.364 388.218 536.95 386.856C533.754 382.133 529.029 377.997 526.327 373.047C522.295 365.661 520.238 356.804 517.812 348.782C514.481 337.766 511.113 326.663 506.691 316.029C508.373 332.791 514.99 349.986 520.32 365.94C513.129 359.479 506.513 352.009 500.223 344.667C498.579 331.004 495.315 316.72 490.667 303.764Z"/>
	<path fill="#FEFEFE" d="M178.755 317.71L182.338 317.559C199.83 332.966 217.278 348.912 232.522 366.598C224.207 364.425 215.926 362.811 207.425 361.565L199.661 360.284Q193.941 354.697 187.827 349.545Q181.712 344.393 175.235 339.704Q168.759 335.016 161.955 330.815Q155.152 326.615 148.058 322.926C158.24 320.288 168.248 318.468 178.755 317.71Z"/>
	<path fill="#FEFEFE" d="M525.773 678.204L527.524 678.05C529.369 680.129 528.098 687.993 527.947 690.877C504.62 693.549 480.579 694.677 457.495 698.887C449.25 700.39 440.037 706.404 432.032 706.723C424.042 707.04 411.564 703.19 403.61 701.438C400.059 700.688 396.566 699.764 393.06 698.828C419.066 696.63 444.928 690.733 470.569 686.085C488.836 682.773 507.358 680.508 525.773 678.204Z"/>
	<path fill="#8DCF9E" d="M788.887 333.522C793.005 333.459 797.737 334.946 801.788 335.77L825.875 340.664C837.034 342.884 848.202 344.44 859.437 346.17C849.907 352.29 840.084 357.822 830.174 363.291C824.343 364.955 771.704 349.417 760.204 347.486C769.478 342.507 778.966 337.071 788.887 333.522Z"/>
	<path fill="#8DCF9E" d="M753.358 351.491C763.239 351.202 774.846 354.878 784.467 357.095C798.107 360.237 811.652 363.584 825.489 365.784C815.988 370.549 806.512 375.192 796.796 379.518C793.386 380.988 789.8 382.153 786.307 383.421C779.856 380.343 772.26 378.633 765.397 376.673C752.861 373.095 740.233 369.243 727.296 367.44C735.538 361.767 744.437 356.032 753.358 351.491Z"/>
	<path fill="#FEFEFE" d="M664.754 96.6072C667.55 90.0705 670.039 82.2454 674.397 76.5898C671.036 89.9155 665.353 106.941 664.363 120.413C662.083 127.379 660.554 145.842 660.019 153.816L660.051 155.476C658.62 163.996 657.769 174.031 657.998 182.694L657.829 183.764C655.964 190.778 656.83 206.307 656.983 214.139L657.123 217.688C658.099 226.258 657.672 235.2 657.899 243.835C659.162 249.111 658.624 255.721 658.795 261.188L659.922 291.391C656.284 275.737 650.86 259.844 648.652 243.965C647.685 237.882 648.389 221.381 647.214 217.684Q646.973 215.126 646.676 212.574L647.491 183.036L647.395 182.244C648.465 170.952 649.764 159.78 651.346 148.548L651.655 146.091C654.261 134.408 655.32 122.574 658.839 111.084L659.188 110.412C661.002 105.779 663.093 101.309 664.754 96.6072Z"/>
	<path fill="#FEFEFE" d="M766.794 806.425C766.934 810.023 759.265 834.67 757.869 839.76C751.723 862.174 746.737 885.304 739.121 907.247Q732.728 900.22 726.858 892.75C721.745 885.949 715.968 879.684 710.729 872.981C723.36 856.979 736.927 841.77 750.208 826.318C755.818 819.791 760.893 812.679 766.794 806.425Z"/>
	<path fill="#FEFEFE" d="M310.024 805.961C316.733 812.6 324.128 822.931 330.464 830.409C343.03 845.241 356.057 859.688 368.383 874.722Q359.971 883.504 351.972 892.664C347.32 898.064 342.774 903.735 337.589 908.629C335.389 901.452 333.747 894.051 331.804 886.797Q326.181 866.552 320.83 846.234C317.271 833 312.345 819.441 310.024 805.961Z"/>
	<path fill="#FEFEFE" d="M707.004 877.302C710.733 879.221 732.129 907.439 737.676 913.299C727.646 919.362 716.329 923.791 705.635 928.576Q679.468 940.069 653.626 952.278C646.383 955.402 639.481 959.318 632.13 962.206C638.506 955.795 644.375 948.768 650.381 942.008Q667.277 923.359 683.504 904.126C691.202 895.127 699.789 886.671 707.004 877.302Z"/>
	<path fill="#FEFEFE" d="M371.25 878.389C375.843 882.522 379.943 887.402 384.073 891.993C393.615 902.599 402.745 913.56 411.993 924.421C422.795 937.106 434.859 949.411 444.454 963.041C436.769 959.798 429.247 955.957 421.697 952.402Q380.38 933.627 339.364 914.201C349.786 902.086 360.864 890.533 371.25 878.389Z"/>
	<path fill="#FEFEFE" d="M750.756 700.466C751.381 700.447 751.552 700.675 752.075 700.993C753.918 707.081 754.589 713.754 755.968 719.991C761.125 743.325 765.196 766.842 770.33 790.185C760.588 780.064 749.046 770.809 738.023 762.115L708.264 737.479C701.876 732.28 695.043 727.315 689.169 721.542C709.287 713.405 730.21 707.431 750.756 700.466Z"/>
	<path fill="#FEFEFE" d="M323.816 700.693C334.49 702.744 345.175 706.9 355.621 709.985C371.907 714.795 388.303 719.108 404.648 723.698C388.536 733.583 372.932 744.243 357.004 754.421C340.478 765.081 323.906 775.59 307.519 786.471C312.751 757.869 318.012 729.18 323.816 700.693Z"/>
	<path fill="#8DCF9E" d="M261.053 268.942C271.926 271.703 298.434 275.891 306.549 281.357C312.043 285.057 316.796 290.662 321.423 295.38C312.264 294.453 285.633 287.337 278.016 291.139C278.39 291.546 278.678 292.053 279.138 292.359C280.562 293.306 316.516 295.396 327.885 302.155C334.232 305.929 339.897 313.5 344.965 318.922C335.178 316.345 302.764 309.358 293.701 309.707C293.457 310.527 293.244 310.432 292.532 310.839L293.743 309.681L292.494 310.536L292.608 311.055C296.736 314.287 334.535 318.053 344.131 321.714C349.605 323.803 363.496 337.295 365.826 342.811C366.876 343.28 367.877 343.662 368.718 344.475C368.419 345.566 368.669 345.127 368.08 345.848C372.481 347.301 377.994 355.892 380.974 359.522C374.284 358.204 351.952 353.749 346.777 355.425L346.524 356.169C347.544 357.144 378.969 362.144 383.895 363.269C391.263 369.824 397.8 379.685 403.61 387.703C359.846 374.334 322.255 345.729 292.245 311.806C287.793 306.773 283.198 301.776 279.123 296.43C272.55 287.806 266.756 278.156 261.053 268.942Z"/>
	<path fill="#064534" d="M368.08 345.848C361.071 344.537 325.416 339.26 322.037 336.562L322.586 336.077C331.906 335.081 355.774 340.564 365.826 342.811C366.876 343.28 367.877 343.662 368.718 344.475C368.419 345.566 368.669 345.127 368.08 345.848Z"/>
	<path fill="#8DCF9E" d="M291.363 435.648C294.045 435.521 298.94 434.176 301.285 435.3L301.384 436.012L299.541 437.883C299.323 438.055 299.102 438.225 298.886 438.399C294.156 442.206 289.875 447.852 285.67 452.305Q276.512 461.837 266.589 470.57C240.97 493.044 207.113 507.859 174.109 515.342C163.567 517.733 152.712 518.736 142.228 521.174C144.174 516.391 146.309 511.712 148.47 507.024C149.974 504.26 150.942 501.005 151.789 497.982C159.245 492.882 173.613 483.104 181.781 480.434L182.089 481.277L181.652 483.555C182.59 482.618 182.409 481.291 183.395 480.919L183.698 481.058C184.195 479.94 184.704 478.777 185.639 477.952C191.967 472.363 207.775 465.766 216.076 461.74Q215.151 464.055 214.284 466.393C214.319 466.594 214.379 466.793 214.389 466.996C214.6 471.307 210.2 477.412 208.965 481.757C208.634 482.919 208.134 483.993 207.622 485.083L207.702 485.817C211.437 480.27 212.324 472.44 216.175 466.841L216.69 467.052Q218.702 463.4 220.58 459.677C229.102 455.121 238.842 451.959 247.856 448.452C245.543 453.645 233.596 484.48 234.296 488.269L235.18 488.597C237.528 487.165 248.482 453.43 251.137 447.331C257.877 444.733 264.756 442.516 271.609 440.237C269.905 444.162 260.834 466.253 261.498 469.292C262.594 469.801 262.007 469.73 263.27 469.411C268.4 460.006 271.022 448.805 275.058 438.845C279.293 437.845 283.575 437.018 287.836 436.134C286.728 440.219 285.357 444.31 285.514 448.588L285.566 448.38L286.514 448.636C289.102 444.963 290.145 439.934 291.363 435.648Z"/>
	<path fill="#064534" d="M181.781 480.434L182.089 481.277L181.652 483.555C182.59 482.618 182.409 481.291 183.395 480.919L183.698 481.058C181.65 487.424 173.932 507.649 170.04 512.925C169.388 513.809 169.327 514.046 168.207 514.21C167.72 511.948 180.054 484.584 181.781 480.434Z"/>
	<path fill="#064534" d="M214.284 466.393C214.319 466.594 214.379 466.793 214.389 466.996C214.6 471.307 210.2 477.412 208.965 481.757C208.634 482.919 208.134 483.993 207.622 485.083L207.702 485.817C211.437 480.27 212.324 472.44 216.175 466.841L216.69 467.052C212.704 476.636 208.457 486.147 204.66 495.8C203.619 498.448 202.129 500.911 201.328 503.651C201.302 503.739 201.04 504.695 200.985 504.825C200.462 506.06 200.33 506.163 199.177 506.659L198.343 506.156C198.086 504.899 198.608 503.747 199.05 502.586C200.494 498.794 202.549 495.238 204.087 491.482C207.509 483.125 210.616 474.652 214.284 466.393Z"/>
	<path fill="#FEFEFE" d="M422.118 727.327C443.995 731.334 465.991 734.896 487.914 738.652C500.423 740.794 513.213 742.566 525.498 745.762C520.708 770.088 517.192 794.553 512.89 818.951C512.256 823.215 511.576 827.448 510.735 831.676C501.001 817.925 489.52 804.746 478.61 791.9Q459.67 769.428 440.289 747.335C434.317 740.598 427.911 734.214 422.118 727.327Z"/>
	<path fill="#FEFEFE" d="M687.438 727.753C692.603 729.893 702.746 739.781 707.796 743.918Q739.072 769.254 769.689 795.384C766.18 800.373 761.696 804.911 757.697 809.527L736.885 833.76C727.204 844.476 718.344 855.92 708.682 866.653C707.625 853.955 705.354 841.336 703.388 828.754L691.815 755.195C690.409 746.052 688.5 736.94 687.438 727.753Z"/>
	<path fill="#FEFEFE" d="M526.327 656.182C527.576 655.953 528.309 655.778 529.555 656.165C530.515 658.352 529.723 660.981 529.383 663.319Q497.581 667.217 465.977 672.489C453.817 674.636 441.747 677.289 429.61 679.565C415.094 682.287 376.059 688.841 364.486 695.754C370.491 698.089 376.924 699.645 383.121 701.404C405.388 707.727 427.752 712.082 450.544 715.885Q475.651 720.332 500.822 724.392C510.172 725.853 519.779 727.551 529.245 727.93C542.985 728.48 557.215 725.209 570.835 723.452C602.601 719.356 634.765 715.569 666.073 708.798C683.069 705.122 699.336 699.28 716.275 695.543C706.607 693.31 697.047 690.605 687.363 688.411Q622.495 673.951 556.977 662.807L557.369 656.134Q584.004 659.9 610.402 665.071Q661.968 674.93 712.961 687.42C722.759 689.864 732.663 691.916 742.364 694.734C729.891 699.031 717.24 702.739 704.707 706.849C696.652 709.491 688.745 712.824 680.495 714.804C668.873 717.594 656.569 718.924 644.745 720.769Q609.273 726.404 573.694 731.314C561.218 733.114 540.979 737.902 529.034 737.528C523.142 737.344 517.189 735.902 511.413 734.825Q498.51 732.377 485.578 730.085C463.791 726.33 441.699 723.401 420.082 718.779C391.223 712.609 362.122 703.822 333.836 695.367C350.431 689.009 370.417 685.362 387.796 681.473Q456.574 666.154 526.327 656.182Z"/>
	<path fill="#FEFEFE" d="M671.813 724.232L672.085 724.223L672.226 724.673C656.294 733.352 639.898 746.504 624.651 756.878L576.382 790.339C556.159 804.298 535.946 818.13 516.378 833.013C516.118 832.939 515.951 832.681 515.752 832.498C516.687 823.89 518.668 815.293 520.126 806.753C521.742 797.277 522.989 787.739 524.582 778.257C526.408 767.388 528.557 756.559 529.93 745.62C567.497 741.074 605.016 734.833 642.418 729.087C652.222 727.581 661.992 725.511 671.813 724.232Z"/>
	<path fill="#FEFEFE" d="M407.011 728.371L407.827 728.621C407.967 730.999 397.754 763.547 396.342 768.77C387.277 802.291 379.619 836.093 370.861 869.671C361.011 858.905 351.698 847.562 342.143 836.527C330.353 822.365 317.13 808.687 306.417 793.723C319.88 783.666 334.086 775.057 348.167 765.922C367.711 753.244 387.076 740.439 407.011 728.371Z"/>
	<path fill="#8DCF9E" d="M363.419 474.021L363.825 474.54C355.243 485.854 349.836 499.33 343.92 512.135C338.244 524.419 332.046 536.954 324.853 548.418C306.872 577.074 283.619 598.826 255.479 617.533C249.942 621.214 244.148 624.5 238.552 628.091C225.033 636.766 211.877 645.792 199.434 655.955C204.277 646.408 208.469 636.571 213.284 627.026C220.85 612.027 228.947 597.791 237.677 583.46C236.689 589.945 236.549 596.516 235.951 603.042C235.395 609.101 234.213 615.391 234.374 621.456C234.419 623.119 234.457 624.062 235.705 625.2C237.57 624.124 237.737 616.387 237.947 613.899C238.429 608.19 239.003 602.437 239.348 596.723C239.684 591.171 239.382 585.38 241.308 580.065C244.097 572.368 255.758 559.06 261.199 552.32C260.557 560.092 259.658 567.86 258.881 575.62C258.488 580.318 254.586 610.403 256.389 612.879L257.332 612.751C260.579 608.164 263.269 558.466 264.088 549.128C269.826 541.675 281.41 531.184 288.547 524.476C288.527 539.865 286.64 555.774 285.102 571.085C284.665 575.432 282.706 584.428 283.276 588.308C283.443 589.442 283.623 589.511 284.498 590.142L285.575 589.752C288.519 584.831 291.236 530.404 291.989 521.141C299.727 514.294 307.964 507.915 316.027 501.454C315.858 515.029 314.524 528.81 313.301 542.333C312.835 547.479 311.377 553.765 311.705 558.845C311.755 559.633 312.067 559.652 312.625 560.135L313.578 559.887C317.037 554.947 318.551 508.892 318.644 499.283Q327.749 493.428 337.044 487.88Q337.236 497.707 336.628 507.517C336.401 510.799 335.813 514.222 335.849 517.502C335.863 518.763 335.873 519.706 336.566 520.806L337.44 520.577C337.941 519.846 338.467 519.129 338.672 518.249C339.973 512.673 339.866 492.892 340.044 486.102L363.419 474.021Z"/>
	<path fill="#FEFEFE" d="M683.029 734.323C684.158 737.925 684.529 742.265 685.141 746.005L688.965 769.312C694.53 803.009 698.901 836.958 704.795 870.584C699.097 879.344 690.661 887.246 683.79 895.176C676.125 904.022 668.821 913.18 661.161 922.023C652.753 931.73 644.075 941.121 635.851 951.002C632.227 955.097 628.82 959.38 625.371 963.622C627.474 953.596 630.219 943.765 632.566 933.802L652.491 851.691L670.721 780.072C674.677 764.813 678.38 749.388 683.029 734.323Z"/>
	<path fill="#8DCF9E" d="M66.53 367.318C94.7043 364.601 123.447 363.319 151.754 364.157C143.029 368.255 134.014 371.79 125.115 375.492C120.74 377.312 115.814 378.882 111.853 381.49L111.81 382.121C125.191 382.686 146.351 367.09 159.824 365.123C169.173 363.758 183.727 366.551 193.327 367.943C179.755 374.847 166.156 382.039 152.314 388.378C149.503 389.665 137.093 394.223 135.677 395.761C144.639 398.592 181.687 377.348 190.809 372.605Q194.818 370.545 198.789 368.414C209.029 369.983 219.198 371.897 229.424 373.523C218.055 380.938 205.646 387.301 193.734 393.799C188.187 396.825 173.104 403.667 169.396 407.966L169.383 408.72C175.809 409.268 225.504 379.074 235.818 374.663C244.172 376.619 255.797 378.16 263.425 381.554C265.099 381.492 265.818 381.843 267.227 382.72C270.165 384.731 288.776 389.022 293.584 390.373C287.334 395.503 250.984 414.035 249.528 417.513C252.249 417.801 255.766 416.216 258.241 415.03C262.055 413.201 265.607 410.634 269.279 408.512Q283.328 400.474 297.222 392.172C301.164 393.324 304.95 394.755 308.774 396.25C298.55 402.868 288.148 410.381 276.756 414.815C267.804 418.3 258.732 419.514 249.283 420.741C236.324 422.423 223.469 423.533 210.41 422.195C201.857 421.318 193.63 418.824 185.391 416.478C163.515 410.249 142.631 402.686 122.437 392.103C109.02 385.072 82.9142 370.047 68.7054 368.449L66.53 367.318Z"/>
	<path fill="#064534" d="M263.425 381.554C265.099 381.492 265.818 381.843 267.227 382.72C256.076 388.124 210.787 420.209 203.397 418.727L203.404 418.111C209.455 412.535 219.953 407.893 227.232 403.576C239.375 396.374 251.329 388.839 263.425 381.554Z"/>
	<path fill="#FEFEFE" d="M411.328 733.404C413.979 738.712 419.088 770.685 420.72 779.29Q432.05 837.349 442.321 895.604L449.308 938.219C450.724 947.428 451.722 956.723 453.725 965.83C448.836 959.068 443.037 952.896 437.633 946.537C416.89 922.401 395.603 898.672 375.172 874.279C376.309 866.174 378.697 858.127 380.64 850.177C383.804 837.231 386.9 824.296 390.317 811.412C393.985 797.586 397.147 783.635 400.815 769.813Q405.831 751.539 411.328 733.404Z"/>
	<path fill="#FEFEFE" d="M416.378 728.262C418.552 730.203 420.51 732.869 422.495 735.036C428.83 741.949 434.905 749.033 441.087 756.078C464.242 782.468 486.496 809.547 509.218 836.297Q491.697 881.717 472.99 926.661C467.979 938.801 463.087 950.999 457.364 962.827C455.578 941.581 451.382 920.248 447.787 899.253Q437.992 842.425 427.103 785.796Q424.346 770.724 421.313 755.705C419.433 746.73 416.698 737.438 416.378 728.262Z"/>
	<path fill="#FEFEFE" d="M513.365 842.297C516.361 844.527 518.92 848.424 521.31 851.303C529.572 861.25 537.374 871.472 545.363 881.629L592.719 940.818C600.518 950.377 608.106 960.149 616.29 969.384Q590.071 969.823 563.848 969.745L495.826 969.854C484.075 969.861 472.253 970.131 460.517 969.597C463.672 961.293 467.354 953.192 470.739 944.979L487.287 904.308C495.834 883.602 503.906 862.603 513.365 842.297Z"/>
	<path fill="#FEFEFE" d="M679.405 726.481L679.757 726.851C680.146 729.837 671.885 755.32 670.42 760.635C660.982 794.88 652.971 829.429 644.262 863.852L627.849 931.443C625.072 942.844 621.731 954.129 619.358 965.624C612.272 956.637 604.721 948.035 597.509 939.151C589.742 929.581 582.284 919.741 574.588 910.108C565.445 898.576 555.991 887.256 546.984 875.623C537.347 863.177 527.896 850.069 517.262 838.469C532.401 826.6 548.307 815.75 564.107 804.789Q592.196 785.072 620.557 765.747L658.029 739.99C664.976 735.313 671.943 730.296 679.405 726.481Z"/>
</svg>
