<?xml version="1.0" encoding="UTF-8"?>
<!-- Generated by Pixelmator Pro 2.4.7 -->
<svg width="1024" height="1024" viewBox="0 0 1024 1024" xmlns="http://www.w3.org/2000/svg" xmlns:xlink="http://www.w3.org/1999/xlink">
    <path id="Percorso" fill="#175844" stroke="none" d="M 66.997704 370.263 C 64.346298 369.563965 61.6464 369.177002 58.9417 368.745972 L 58.751301 368.338013 C 60.970501 367.393005 63.220501 366.554993 65.482399 365.721008 L 66.529999 367.317993 L 68.705399 368.448975 C 67.650101 369.124023 67.334999 369 66.997704 370.263 Z"/>
    <path id="path1" fill="#175844" stroke="none" d="M 753.10199 440.613037 C 757.159973 439.687988 761.265015 438.969971 765.356018 438.208984 L 764.567017 440.532959 C 761.536011 441.780029 758.109985 441.658997 755.015991 442.684998 C 754.395996 441.403015 754.336975 441.312988 753.10199 440.613037 Z"/>
    <path id="path2" fill="#064534" stroke="none" d="M 100.917 530.494019 C 102.739998 528.552979 106.014999 528.382019 108.418999 527.189026 C 108.570999 527.112976 108.721001 527.034973 108.872002 526.958008 L 109.543999 527.262024 C 107.477997 528.866028 105.333 530.351013 103.189003 531.848999 C 105.507004 531.065002 108.526001 529.43103 110.897003 529.155029 L 110.503998 529.960999 C 109.943001 530.353027 109.667 530.603027 108.980003 530.71698 C 109.625999 530.661011 110.157997 530.622009 110.778999 530.424011 L 110.640999 530.140991 L 112.584 530.888 C 106.336998 532.78302 101.259003 535.380005 95.647202 538.640015 C 97.396103 536.195007 100.011002 533.353027 100.917 530.494019 Z"/>
    <path id="path3" fill="#0d4844" stroke="none" d="M 643.143982 245.734009 C 620.718018 224.738037 609.109985 199.34198 608.119019 168.485962 C 608.083008 167.419963 608.059998 166.353963 608.049988 165.287964 C 608.039978 164.221313 608.04364 163.154663 608.060974 162.088013 C 608.077657 161.022013 608.107666 159.956014 608.151001 158.890015 C 608.194336 157.824666 608.250997 156.759989 608.320984 155.695984 C 608.391012 154.631327 608.474345 153.567993 608.570984 152.505981 C 608.667013 151.44397 608.776693 150.383301 608.900024 149.323975 C 609.022664 148.264648 609.158651 147.206991 609.307983 146.151001 C 609.457316 145.095011 609.619649 144.041016 609.794983 142.989014 C 609.970317 141.937012 610.158997 140.887329 610.361023 139.839966 C 610.563009 138.792643 610.777669 137.748332 611.005005 136.707031 C 611.232992 135.664998 611.473653 134.625977 611.72699 133.589966 C 611.980977 132.553996 612.24764 131.521342 612.526978 130.492004 C 612.806315 129.462667 613.098328 128.436991 613.403015 127.414978 C 613.707662 126.393005 614.02533 125.37502 614.356018 124.361023 C 614.686015 123.346985 615.028666 122.337321 615.383972 121.332031 C 615.740011 120.32666 616.108012 119.325643 616.487976 118.328979 C 616.868673 117.333008 617.261353 116.341675 617.666016 115.35498 C 618.07133 114.368327 618.488993 113.387004 618.919006 112.411011 C 619.348328 111.435018 619.789998 110.464355 620.244019 109.499023 C 620.697347 108.533691 621.163005 107.574341 621.640991 106.620972 C 622.118327 105.667643 622.607666 104.720317 623.109009 103.778992 C 623.610352 102.837667 624.123352 101.902669 624.64801 100.973999 C 625.172668 100.045451 625.708659 99.123576 626.255981 98.208374 C 626.803996 97.293172 627.362996 96.384989 627.932983 95.483826 C 628.503011 94.58254 629.084351 93.688538 629.677002 92.801819 C 630.269653 91.915019 630.872986 91.035746 631.487 90.164001 C 632.101664 89.292338 632.72699 88.428446 633.362976 87.572327 C 633.999003 86.716166 634.645345 85.868062 635.302002 85.028015 C 635.959351 84.188009 636.627014 83.356303 637.304993 82.532898 C 637.98232 81.709574 638.670329 80.894775 639.369019 80.088501 C 640.067017 79.282227 640.775004 78.484823 641.492981 77.696289 C 642.210999 76.907715 642.93868 76.128174 643.676025 75.357666 C 657.502014 60.900574 676.671021 47.637695 695.406982 40.462708 C 692.437012 58.941101 698.171997 76.782471 700.927979 94.906616 C 709.075989 148.484985 704.129028 204.646973 663.187012 244.565979 C 662.890991 255.877014 663.874023 267.271973 664.242004 278.580994 C 664.513 286.921997 664.281006 295.238037 664.04303 303.575989 C 675.012024 287.994019 694.059998 261.577026 707.955017 249.455017 C 708.263977 242.76001 708.356995 235.921997 709.231018 229.278015 C 714.908997 186.114014 736.278992 148.31897 768.416992 119.278992 C 772.952026 115.182007 778.041016 111.588013 782.890991 107.872009 C 827.276978 73.868591 872.140991 64.632507 927.192993 67.812683 C 933.210022 68.160278 962.351013 69.639709 965.390015 72.982422 C 965.244995 72.981323 965.099976 72.978027 964.955017 72.979187 C 957.815979 73.039307 950.250977 75.391174 943.35199 77.147827 C 932.206645 79.891276 921.181986 83.054138 910.278015 86.636414 C 899.373352 90.218608 888.620687 94.20988 878.02002 98.610229 C 869.755005 102.054016 861.89801 106.583984 853.544006 109.781006 C 857.994019 105.317993 890.705994 71.927917 891.208008 69.116333 C 889.406982 69.002625 887.984985 70.451477 886.671997 71.598022 C 877.616028 79.505981 865.685974 92.222168 857.380981 101.25 C 853.835999 105.103027 850.609985 109.687988 846.689026 113.109009 C 841.200012 117.896973 833.559021 121.265991 827.244019 124.999023 C 819.868001 129.458333 812.683329 134.207316 805.690002 139.245972 C 815.39801 118.213989 826.776978 96.016785 842.578003 78.865723 C 840.606995 79.963867 838.471985 81.04718 836.77301 82.546082 C 826.460022 91.648499 812.409973 115.625 806.182007 128.36499 C 803.731995 133.375977 801.919006 139.957031 798.655029 144.403992 C 795.242004 149.054016 789.388977 152.674011 784.986023 156.468994 C 780.574687 160.268311 776.370015 164.283976 772.372009 168.515991 C 776.047974 155.984985 778.015991 143.098022 781.763 130.583984 C 784.476013 121.523987 788.979004 112.846008 791.312988 103.724976 C 781.153992 118.820007 775.624023 137.197021 771.534973 154.817017 C 770.320984 160.049011 770.150024 168.065979 767.302002 172.570984 C 763.080994 179.247986 750.909973 188.679993 744.869019 195.234009 C 748.627014 176.156982 750.458984 156.768982 754.000977 137.630981 C 752.89801 139.184021 751.825012 140.721008 751.132996 142.507996 C 746.54303 154.369995 741.242981 187.210999 741.34198 199.827026 C 731.030029 210.474976 715.611023 225.171997 710.335999 239.113037 C 709.302002 241.846008 708.997986 244.884033 708.573975 247.760986 C 723.047974 232.041016 736.505005 215.075012 751.911987 200.242981 C 781.218018 194.507996 813.013 195.34198 841.44397 185.786987 C 829.359009 185.504028 816.515015 188.143005 804.520996 189.686035 C 789.038025 191.677979 768.487 192.458008 754.166992 198.190979 C 761.344971 189.44397 775.291016 175.917969 784.140991 168.728027 C 784.359009 168.679993 784.577026 168.630005 784.794983 168.583984 C 801.593018 165.082031 862.710022 165.687988 872.023987 159.619995 L 872.091003 158.990967 C 868.372009 157.530029 860.283997 158.622986 856.117981 158.716003 C 837.403015 159.134033 804.560974 159.120972 787.210999 164.922974 C 798.570007 155.947021 809.843994 146.90802 821.619019 138.479004 C 833.78302 139.242004 846.734009 137.541016 858.905029 136.778015 C 868.771973 136.158997 879.211975 136.184021 888.97699 134.785034 C 892.11499 134.335999 895.758972 133.761963 898.469971 132.059021 L 898.338013 131.48999 C 891.254028 129.969971 882.5 131.171021 875.203003 131.421021 C 859.002991 131.976013 842.096008 131.634033 826.166016 134.924011 C 836.280029 128.509033 861.254028 112.374023 872.096008 109.903015 C 875.750977 109.070007 879.880981 109.015991 883.617004 108.703979 C 894.442993 107.799988 905.289978 107.51001 916.133972 106.929993 C 918.909973 106.781982 926.210999 106.463013 927.573975 103.895996 C 924.737 101.687012 887.474976 104.122009 881.646973 104.521973 C 899.789001 95.927979 920.190979 90.285583 939.505981 84.981384 C 946.742981 82.993896 954.280029 80.546387 961.741028 79.603394 C 938.664978 101.161011 919.13501 126.096985 896.700989 148.255981 C 891.078003 153.809998 884.909973 158.895996 878.91803 164.047974 C 870.294983 171.460999 861.695007 179.013 852.515015 185.734009 C 844.059021 191.924988 835.153015 197.393005 826.221008 202.859009 C 791.703003 223.979004 754.383972 241.877991 714.799011 251.044983 C 709.263977 257.259033 704.35498 264.041992 699.369995 270.697021 C 672.312012 306.812988 655.026001 342.55603 635.763977 382.993042 C 612.10498 432.658997 589.169983 484.177002 576.242981 537.859009 C 584.432007 525.921021 592.804016 514.34198 602.544006 503.584961 C 606.440979 499.282959 612.869019 495.122986 615.940979 490.549011 C 620.52002 483.72998 623.426025 474.938965 626.91803 467.462036 C 629.827332 461.140015 632.991313 454.948324 636.409973 448.886963 C 639.828674 442.825684 643.490356 436.914693 647.39502 431.153992 C 651.382996 425.307007 655.882996 419.829956 661.109985 415.041016 C 667.25 409.416016 673.974976 405.22998 678.552002 398.020996 C 681.807983 392.894043 683.703003 386.822998 686.067017 381.25 C 688.300334 376.123332 690.848328 371.158 693.710999 366.354004 C 698.377014 358.377014 703.289001 350.434998 709.083008 343.219971 C 709.820353 342.307983 710.567342 341.404338 711.323975 340.509033 C 712.080648 339.613688 712.847331 338.726685 713.624023 337.848022 C 714.400024 336.96936 715.185689 336.099365 715.981018 335.238037 C 716.776347 334.376017 717.580668 333.52299 718.393982 332.678955 C 719.207987 331.834961 720.030986 330.99998 720.862976 330.174011 C 721.695007 329.348002 722.536011 328.531331 723.385986 327.723999 C 724.236003 326.915975 725.094666 326.117635 725.961975 325.328979 C 726.829325 324.540324 727.705343 323.760986 728.590027 322.990967 C 729.474019 322.220988 730.366679 321.460999 731.268005 320.710999 C 732.168681 319.960999 733.077677 319.220662 733.994995 318.48999 C 734.911662 317.759359 735.83667 317.039022 736.77002 316.328979 C 737.702677 315.619019 738.643005 314.919027 739.591003 314.229004 C 740.539001 313.538981 741.49467 312.85966 742.458008 312.19104 C 743.420654 311.522339 744.390645 310.863993 745.367981 310.216003 C 746.345317 309.568665 747.329651 308.932007 748.320984 308.30603 C 749.312317 307.679321 750.310323 307.063965 751.315002 306.459961 C 752.319682 305.855306 753.330688 305.261983 754.348022 304.679993 C 755.366007 304.097351 756.389994 303.526021 757.419983 302.966003 C 758.450012 302.406677 759.486023 301.858358 760.528015 301.321045 C 761.570007 300.783691 762.618001 300.25769 763.671997 299.743042 C 764.725342 299.228353 765.784342 298.725342 766.848999 298.234009 C 767.913656 297.742676 768.983317 297.263021 770.057983 296.795044 C 771.133341 296.327026 772.213338 295.871012 773.297974 295.427002 C 774.383341 294.98234 775.473022 294.549683 776.567017 294.129028 C 777.661662 293.709025 778.760661 293.30068 779.864014 292.903992 C 780.967326 292.507304 782.074646 292.12264 783.185974 291.75 C 784.297994 291.378011 785.413676 291.01768 786.53302 290.669006 C 787.653015 290.320984 788.776347 289.985311 789.903015 289.661987 C 791.030334 289.338664 792.160665 289.027669 793.294006 288.729004 C 794.427999 288.429688 795.565002 288.143026 796.705017 287.869019 C 797.844991 287.595011 798.987651 287.333659 800.132996 287.084961 C 801.278992 286.835653 802.427327 286.598999 803.578003 286.375 C 835.81897 280.329956 870.640015 283.567017 902.14502 292.400024 C 914.078003 295.744995 925.572021 300.394043 937.632019 303.287964 C 915.721985 308.030029 895.143982 325.287964 876.93103 337.867004 C 867.656982 344.27301 858.036011 350.312988 848.408997 356.171997 C 815.283997 376.330994 778.468994 392.242004 740.671997 401.079956 C 727.841003 404.080994 714.549011 405.493042 701.491028 407.131958 C 696.986023 407.697998 692.133972 407.86499 687.775024 409.125 C 672.846985 413.44104 661.400024 427.976013 653.341003 440.471985 C 645.828979 452.119995 638.953979 464.761963 634.185974 477.794006 C 648.632996 465.665039 668.773987 458.703979 686.606995 453.296021 C 691.374023 451.849976 697.046997 451.390015 701.541992 449.374023 C 707.593994 446.657959 712.752991 440.968018 717.940002 436.855957 C 723.618673 432.435994 729.397013 428.150004 735.275024 423.997986 C 767.468018 401.231995 816.942017 387.625977 856.310974 391.067017 C 884.062012 393.493042 909.604004 403.733032 933.780029 417.098022 C 944.434998 422.988037 954.612 429.153015 963.41803 437.658997 C 929.69397 417.781982 882.406982 417.988037 844.22998 418.825989 L 844.913025 418.528992 C 851.302979 415.776978 858.513 414.662964 865.278992 413.174988 C 873.361023 411.396973 881.445007 409.525024 889.585999 408.035034 C 892.804016 407.446045 898.612 407.278015 901.377991 406.18103 C 901.715027 406.046997 901.952026 405.738037 902.239014 405.516968 L 901.721008 406.104004 L 902.523987 405.718018 C 900.312988 403.667969 892.130005 404.235962 889.093018 404.359009 C 875.965027 404.888 861.231995 408.335999 849.01001 413.006958 C 845.192993 414.466003 841.640991 417.561035 837.724976 418.506958 C 833.054993 419.63501 827.89801 419.707031 823.116028 420.127014 C 817.916992 420.583008 812.83197 421.278992 807.682983 422.127014 C 799.987976 423.393005 792.187012 424.531006 784.583008 426.266968 C 762.419983 431.328979 718.249023 443.928955 700.344971 456.151978 C 711.159973 454.105957 720.838013 450.19104 731.213989 446.80603 C 738.414978 444.458008 745.783997 442.559998 753.10199 440.613037 C 754.336975 441.312988 754.395996 441.403015 755.015991 442.684998 C 758.109985 441.658997 761.536011 441.780029 764.567017 440.532959 L 765.356018 438.208984 C 772.960999 436.973999 786.224976 433.709961 793.390015 434.812012 C 799.179993 435.702026 807.531982 441.358032 812.872009 444.27301 C 830.687012 453.997986 851.310974 465.696045 871.729004 468.144043 C 863.213013 462.072998 852.599976 457.893005 843.356995 452.989014 C 830.637024 446.23999 818.265015 438.644043 805.328003 432.341003 C 812.80603 431.270996 822.742981 429.10498 830.129028 429.858032 C 837.158997 430.575989 853.481018 440.210999 860.906006 443.531982 C 870.387024 447.773987 880.463989 451.880005 890.361023 455.075012 C 892.26001 455.687988 898.854004 458.139038 900.27301 456.598999 C 896.538025 453.917969 884.578003 450.125 879.388 447.789001 C 865.997009 441.761963 853.140991 434.083008 839.267029 429.184998 C 848.896973 428.562988 864.552979 426.664001 873.849976 428.464966 C 878.244995 429.31604 881.828003 431.848022 885.867004 433.617004 C 895.405029 437.796021 919.317993 448.450012 929.094971 446.696045 L 929.221008 446.166016 C 926.377991 444.343018 922.950989 443.360962 919.856018 442.011963 C 909.684998 437.578003 899.452026 433.77301 889.466003 428.872009 C 910.138 429.665039 943.051025 431.911011 962.254028 438.755981 C 959.247009 439.088013 955.66803 440.382996 952.687012 441.174011 C 927.507019 447.849976 904.125977 460.437988 879.531982 468.88501 C 868.120972 472.802979 855.51001 474.85498 843.557983 476.571045 C 833.822998 477.968994 823.820984 478.026001 814.000977 478.403992 C 791.85498 479.256958 769.242981 480.588989 747.534973 475.161987 C 737.541016 472.664001 704.601013 460.004028 698.708008 460.213989 C 688.127014 460.592041 656.645996 474.896973 646.585999 480.644043 C 639.361023 484.771973 632.747986 489.669006 625.987 494.488037 L 626.731018 494.489014 C 636.296021 494.541016 646.788025 497.545044 656.202026 496.207031 C 661.502991 495.453979 666.531982 492.494995 671.705994 491.053955 C 697.018982 484.007996 717.333984 480.091003 743.39502 487.333984 C 757.518005 492.396973 770.213989 498.416992 782.69397 506.77301 C 783.664001 507.388 784.559021 507.932007 785.406006 508.717041 C 793.119019 512.861023 800.875977 521.156982 806.369019 527.945007 C 820.869995 542.434021 829.754028 561.948975 832.796997 582.142029 L 832.169983 584.169006 L 830.638 584.973999 L 828.250977 583.179993 C 828.682983 584.017029 829.583984 585.127014 829.294006 586.028015 C 829.08197 586.687988 829.203979 586.440002 828.888 586.921997 C 816.698975 579.924988 802.09198 577.924011 788.461975 575.312012 C 747.424988 567.448975 712.950012 561.39502 682.211975 529.914978 C 673.559998 521.054993 666.16803 511.06897 658.221008 501.596985 C 645.453979 499.93396 631.924011 500.261963 619.026001 499.328979 C 607.666992 509.187012 598.552979 520.393982 590.250977 532.843994 C 583.52301 542.934021 576.625977 553.955994 572.190002 565.276978 C 563.497986 587.458008 560.064026 625.179016 557.875977 649.14502 C 578.203003 651.874023 598.411987 656.018005 618.531006 659.969971 C 651.406331 666.251343 684.124654 673.266012 716.685974 681.013977 C 722.952026 682.484009 756.40802 689.536011 758.468994 693.323975 C 760.945007 697.875 765.692993 727.244019 766.982971 733.945007 C 768.983663 744.593689 771.049011 755.230021 773.179016 765.854004 C 774.958984 774.338989 777.79303 783.794983 778.172974 792.432983 C 778.484009 799.517029 772.038025 818.403992 769.851013 826.435974 C 763.463684 850.848002 756.714681 875.160014 749.604004 899.372009 C 765.497986 899.723022 781.59198 902.367004 797.289978 904.747986 C 818.731995 908 839.536011 911.844971 860.609985 917.013 C 870.200989 919.366028 880.041992 921.690002 889.286011 925.195984 C 895.200989 927.439026 901.013 930.382019 906.132996 934.11499 C 909.059998 936.249023 912.382996 939.023987 912.848022 942.849976 C 913.224976 945.95697 911.703003 948.775024 909.749023 951.078979 C 891.797974 972.242981 816.728027 981.494995 788.86499 984.02002 C 768.317668 985.715332 747.736328 986.720988 727.120972 987.036987 C 706.506307 987.352987 685.903992 986.978658 665.314026 985.914001 C 638.981018 984.390991 612.874023 981.294983 586.593994 979.447998 C 574.796021 978.619019 562.843994 978.450012 551.015991 978.117981 C 528.406982 977.484009 505.648987 978.124023 483.028992 978.288025 C 476.213989 978.338013 463.389008 979.310974 457.299988 978.263977 C 452.076996 977.36499 445.817993 973.312012 441.001007 971.049011 L 409.78299 956.366028 L 362.808014 934.651001 C 355.427002 931.255981 347.910004 928.098022 340.644012 924.465027 C 337.589996 922.939026 334.765015 921.40802 332.132996 919.213013 C 329.747986 913.64502 328.428009 907.432007 326.852997 901.580994 L 319.532013 874.322998 C 312.820007 849.502014 305.286011 824.747009 299.308014 799.747986 C 298.796997 797.611023 298.263 795.370972 298.432007 793.161987 C 299.018005 785.500977 300.877991 777.866028 302.290009 770.317017 C 304.687327 757.213013 307.197327 744.130676 309.820007 731.070007 C 312.049988 719.981995 313.382996 708.505005 316.005005 697.536987 C 316.321014 696.213013 316.781006 694.231018 317.747986 693.192993 C 320.54599 690.189026 335.135986 687.333008 339.738007 686.125 C 373.725332 677.314982 407.981995 669.719991 442.507996 663.340027 C 471.479004 657.721008 501.019012 652.164001 530.348999 648.809998 C 531.411987 639.747009 532.182007 630.585999 533.638977 621.578979 C 537.51001 597.655029 543.166016 574.335022 548.494995 550.728027 C 537.030029 532.104004 515.096008 512.36499 498.68399 498.006958 C 493.994995 493.903992 488.567993 488.47998 482.940002 485.856995 C 474.223999 481.796021 447.777008 487.026001 439.156006 490.459961 C 438.912994 491.304993 438.720001 492.127991 438.531006 492.985962 C 431.199005 526.228027 422.942993 550.06897 392.684998 569.375977 C 391.846008 570.010986 390.968994 570.840027 389.996002 571.234009 C 382.929993 577.531982 373.571014 581.72699 365.834991 587.244019 C 362.011993 589.971008 358.190002 592.856995 354.755005 596.059021 C 353.166992 597.539001 351.792999 599.625977 350.13501 600.940002 C 349.135986 601.731995 348.963013 601.663025 347.787994 601.486023 C 346.673004 600.179016 346.557007 598.442017 346.416992 596.791992 C 343.81601 566.103027 345.57901 539.775024 366.744995 515.380981 C 378.947998 501.31604 398.674011 490.72699 416.713013 486.605957 C 421.050995 485.61499 425.526001 486.010986 429.869995 484.927002 C 435.764008 483.457031 441.490997 481.348999 447.399994 479.957031 C 455.546997 478.037964 463.842987 477.500977 472.165985 476.911011 C 464.227997 471.73999 440.608002 455.136963 431.828003 454.026978 C 425.990997 453.289001 418.062988 455.448975 412.243988 456.615967 C 400.696991 458.932983 376.678986 465.325989 368.415009 472.914001 C 360.243988 480.416992 345.782013 515.984985 339.643005 528.189026 C 325.078003 557.138 311.816986 575.570984 287.308014 597.093018 C 278.479004 604.846008 269.080994 612.296021 259.347992 618.883972 C 243.149994 629.848999 203.854996 651.35498 193.884003 666.721985 C 193.764999 666.906006 193.335999 667.609985 193.184998 667.804993 C 192.386002 668.841003 191.878998 669.13501 190.621994 669.36499 L 190.326004 668.033997 L 190.727005 668.666016 L 190.761993 667.338013 L 190.199005 667.114014 C 189.505005 661.072998 189.397003 654.817017 189.072006 648.742981 C 187.018997 610.461975 192.354004 574.328979 213.819 541.671997 C 240.028 501.799011 280.588013 469.453979 328.890991 463.198975 C 337.048004 462.143005 345.437012 461.450012 353.665985 461.535034 C 359.373993 461.593994 365.674011 462.485962 371.291992 461.734985 C 379.997986 460.572021 388.817993 456.009033 397.371002 453.687012 C 406.123993 451.311035 415.04599 450.442017 423.888 448.613037 C 403.153992 439.256999 382.042653 430.847982 360.553986 423.385986 C 355.446014 424.907959 350.024994 425.700012 344.809998 426.807983 C 331.446991 429.645996 317.506989 432.247986 304.483002 436.343994 C 302.40799 438.355957 300.528015 440.69104 298.613007 442.859985 C 291.21701 453.148987 281.040009 462.513 271.364014 470.609009 C 237.242996 499.161011 203.244003 514.241028 159.565002 521.375 C 150.529999 522.851013 141.186996 523.822998 132.266006 525.835999 C 125.848999 527.283997 119.042 530.012024 112.584 530.888 L 110.640999 530.140991 L 110.778999 530.424011 C 110.157997 530.622009 109.625999 530.661011 108.980003 530.71698 C 109.667 530.603027 109.943001 530.353027 110.503998 529.960999 L 110.897003 529.155029 C 108.526001 529.43103 105.507004 531.065002 103.189003 531.848999 C 105.333 530.351013 107.477997 528.866028 109.543999 527.262024 L 108.872002 526.958008 C 108.721001 527.034973 108.570999 527.112976 108.418999 527.189026 C 106.014999 528.382019 102.739998 528.552979 100.917 530.494019 C 101.676003 521.914978 109.156998 510.516968 113.221001 502.903015 C 127.725998 475.723022 146.852997 454.05896 173.018005 437.567017 C 181.889999 431.974976 191.164993 427.02301 201.227005 423.959961 C 178.177994 419.630005 147.544998 408.870972 126.514 398.303955 C 107.069 388.533997 87.948303 376.567017 66.997704 370.263 C 67.334999 369 67.650101 369.124023 68.705399 368.448975 L 66.529999 367.317993 L 65.482399 365.721008 C 86.775803 356.510986 121.775002 353.332031 144.884003 355.082031 C 135.658997 348.580994 123.143997 343.815002 112.174004 341.369019 C 109.572998 340.789001 106.830002 340.348022 104.208 341.045044 C 94.735603 343.562012 69.883202 360.219971 60.684399 366.141968 C 63.3134 363.457031 65.976501 360.860962 68.893799 358.487 C 81.964203 347.851013 97.614403 339.593018 112.987 332.846008 C 143.904999 319.276001 173.059998 310.942017 207.285004 314.499023 C 240.501007 317.950989 276.178986 330.11499 303.164001 350.266968 C 313.178986 357.745972 322.764008 367.242004 330.987 376.641968 C 339.894989 386.822998 346.549988 398.427002 355.063995 408.799988 L 355.709015 409.578003 C 365.752014 412.737 375.53299 416.976013 385.312012 420.868042 C 400.894989 427.070007 417.945007 433.174011 432.173004 442.120972 C 428.656006 434.505981 424.214996 427.264038 420.294006 419.842041 C 415.464996 410.703003 410.971985 401.14502 405.576996 392.351013 C 349.839996 376.207031 299.575012 333.713013 267.763 285.889038 C 255.867004 268.005981 242.712997 238.440979 223.817001 228.28302 C 226.102997 227.832031 228.375 227.619019 230.690994 227.414001 C 235.494003 226.703003 240.322998 226.445007 245.164001 226.140991 C 287.410004 224.429016 330.627014 239.062012 361.813995 267.891968 C 387.575012 291.707031 406.963013 324.322998 411.738007 359.335999 C 412.794006 367.078003 413.234985 386.776001 415.220001 392.577026 C 417.132996 398.166016 422.481995 404.888 425.514008 410.197021 C 432.506989 422.447021 438.907013 435.015015 445.987 447.221985 C 447.588989 449.984985 475.618988 467.045044 480.734985 470.778015 C 507.065002 489.993042 532.812988 511.593994 552.513 537.679993 C 558.109009 515.664978 566.325989 493.30603 574.677979 472.219971 C 569.007019 457.411011 559.344971 432.608032 547.31897 422.322021 C 544.702026 420.083984 541.28302 418.64502 538.164001 417.255005 C 525.120972 411.446045 511.493011 406.651978 498.81601 400.080994 C 464.755005 382.424988 437.779999 353.005005 418.002014 320.614014 C 409.955994 307.437012 403.787994 293.493042 394.303986 281.164001 C 390.05899 275.644043 385.079987 270.959961 380.354004 265.882996 C 396.962006 270.447021 424.085999 288.989014 438.334015 299.596008 C 428.22699 296.765991 414.626007 292.192993 404.221985 292.474976 C 416.790009 297.462036 430.837006 298.690002 443.161987 304.156006 C 451.765015 307.971008 466.365997 321.047974 474.113007 327.653992 C 455.117004 323.849976 436.471008 318.703003 417.591003 314.458008 C 429.76001 321.756958 462.966003 328.492004 478.205994 332.05603 C 487.048004 340.68103 496.333008 348.98999 504.964996 357.80603 C 514.231995 367.270996 522.817017 377.342041 531.491028 387.343018 C 536.302348 392.812337 540.925334 398.436666 545.359985 404.216003 C 549.164978 409.119019 552.781982 414.285034 557.073975 418.773987 L 557.833984 418.411011 L 558.041992 418.963989 L 557.632996 419.257996 L 558.22998 419.25 C 557.513 416.494995 555.963013 414.692017 554.35498 412.39801 C 547.739014 404.421997 541.729004 395.884033 535.335022 387.721008 C 515.79303 364.72699 495.515991 341.947998 473.11499 321.64502 C 465.295013 314.557007 456.765015 308.453979 448.317993 302.162964 C 432.950989 290.719971 417.056 278.588013 399.660004 270.38501 C 393.710999 267.579956 387.371002 265.869995 381.052002 264.132996 C 392.598999 264.579956 404.136993 266.500977 415.441986 268.81604 C 456.606995 277.244995 493.518005 295.635986 522.307007 326.744019 C 544.853027 351.104004 562.434998 381.385986 561.46698 415.646973 C 561.643005 418.348022 561.499023 420.907959 561.284973 423.598999 C 568.611023 435.479004 574.072998 447.635986 579.60199 460.43396 C 584.664001 449.973999 589.156006 439.203979 594.060974 428.661011 C 599.229004 417.551025 604.900024 406.536011 609.546997 395.202026 C 605.336975 372.658997 603.554016 356.578003 592.59198 335.39801 C 590.52301 331.39801 588.125977 326.278015 584.353027 323.653992 C 578.987 319.922974 572.846008 317.130005 567.046997 314.131958 C 557.070984 308.973022 546.991028 303.843018 537.258972 298.234985 C 493.876007 273.239014 458.845001 236.989014 430.345001 196.11499 C 421.452993 183.515666 413.112325 170.56134 405.322998 157.252014 C 399.231995 146.947021 393.562012 135.712036 386.299011 126.192017 C 382.084991 120.669006 376.963013 116.35199 372.27301 111.317017 C 378.035004 113.023987 383.651001 116.242981 389.065002 118.874023 C 403.977997 126.122986 418.757996 133.505981 432.618988 142.669983 C 439.682007 147.338989 446.178986 152.735962 453.437012 157.130005 C 446.526001 156.646973 413.808014 153.549988 409.712006 156.278992 C 409.579987 156.367981 409.471985 156.489014 409.35199 156.593994 C 411.592987 159.304016 452.029999 161.903015 459.73999 164.473999 C 469.056 167.580994 487.34201 184.153015 494.710999 191.364014 C 484.290009 188.738037 434.970001 180.557007 427.274994 183.065002 L 427.071014 183.737 C 428.186005 184.785034 429.514008 185.03302 430.976013 185.322998 C 443.468994 187.799988 456.444 188.794006 469.048004 190.682983 C 479.167999 192.198975 489.270996 194.643005 499.406006 195.833984 C 507.778015 204.213013 515.333008 213.478027 523.778015 221.723022 C 504.684001 217.835002 485.433665 215.014323 466.027008 213.260986 C 460.522003 212.749023 454.343994 211.786011 448.837006 212.330017 L 448.368011 212.910034 C 449.817993 214.083984 451.928009 214.362 453.735992 214.671021 C 463.473999 216.333984 473.393005 217.158997 483.169006 218.728027 C 497.949005 221.099976 512.715027 224.166016 527.525024 226.247009 C 536.25 236.934998 544.099976 249.156982 553.651001 259.049988 C 544.012024 257.104004 534.778992 253.984985 525.281982 251.484985 C 515.669006 248.953979 505.863007 246.908997 496.152008 244.776978 C 489.321014 243.276978 481.733002 241.138 474.730988 241.448975 C 475.591003 242.028992 549.981018 262.667969 556.179993 263.959961 C 562.05603 271.235962 569.768982 284.06897 574.262024 292.464966 C 561.765991 284.011963 533.161011 279.372986 518.27301 275.817017 C 528.182007 279.650024 538.929016 281.712036 549.150024 284.734985 C 557.737 287.273987 565.968018 290.674988 574.411987 293.615967 C 576.854004 298.127991 579.354004 302.625977 581.64801 307.213989 C 583.447998 310.815002 585.026978 314.776001 587.343994 318.072021 C 589.862976 321.655029 592.940002 324.653992 595.710022 328.016968 C 592.994019 320.016968 589.838989 312.002991 586.208008 304.370972 C 582.979004 297.587036 579.150024 291.044006 576.461975 283.997009 C 579.796997 270.790039 583.148987 244.063965 579.796997 231.026001 C 579.018982 240.778015 578.434998 250.549988 577.577026 260.295044 C 576.922974 267.713989 575.856995 275.210999 575.888977 282.660034 C 572.489014 276.141968 564.778992 263.335999 562.937988 256.999023 C 561.35498 251.551025 562.632996 244.239014 562.401001 238.511963 C 561.624023 219.333008 559.538025 197.802979 552.174011 179.981995 C 553.674988 193.106018 556.189026 206.000977 557.458008 219.187988 C 558.526978 230.292969 558.257019 241.747009 559.869995 252.742981 C 543.304016 228.820984 525.544006 205.601013 504.187988 185.661987 C 498.019012 179.901978 491.059998 174.559998 484.428986 169.332031 C 481.312012 166.874023 477.778992 164.531982 475.092987 161.589966 C 472.692993 158.960999 471.377014 155.505981 469.364014 152.583008 C 461.544006 141.229004 449.197998 122.950012 438.053986 115.229004 C 443.80899 124.367004 450.785004 132.817993 457.385986 141.354004 C 462.135986 147.497986 466.678009 154.151001 472.230011 159.589966 C 472.390991 159.747986 472.54599 159.910034 472.704987 160.06897 L 472.993988 160.353027 C 450.385986 144.255981 398.14801 112.109985 371.602997 108.219971 L 368.90799 107.810974 C 402.170013 105.888977 438.308014 107.948975 469.877014 119.505981 C 478.888 122.804016 487.304993 127.065979 495.774994 131.533997 C 510.667999 139.389038 523.90802 148.294983 536.505981 159.511963 C 572.513 191.570007 592.241028 237.770996 594.96698 285.544006 C 595.179016 289.26001 595.382996 292.964966 595.208008 296.687012 C 595.002014 301.091003 594.077026 306.276978 594.825989 310.634033 C 596.015015 317.557007 600.416016 324.156982 603.005005 330.687012 C 609.536011 347.165039 614.966003 364.344971 617.075989 381.985962 C 621.439026 374.092041 625.359985 365.968018 629.674988 358.049988 C 638.35498 342.125 647.718018 326.303955 657.906982 311.304993 C 655.401001 295.31897 650.070984 277.988037 646.437988 261.955994 C 645.237976 256.658997 643.700012 251.140015 643.143982 245.734009 Z"/>
    <path id="path4" fill="#175844" stroke="none" d="M 689.119995 400.424011 C 688.916016 402.14502 688.471985 403.343018 689.252014 404.917969 L 690.387024 405.283997 C 689.45697 405.700989 687.692993 405.846008 686.677002 405.76001 C 685.586975 405.666992 685.52301 405.537964 684.869019 404.742004 L 685.111023 403.390015 C 686.189026 401.863037 687.487 401.27301 689.119995 400.424011 Z"/>
    <path id="path5" fill="#394a4a" stroke="none" d="M 230.690994 227.414001 C 235.494003 226.703003 240.322998 226.445007 245.164001 226.140991 C 244.940994 226.281006 244.723007 226.427979 244.496994 226.562012 C 243.335999 227.244995 241.985992 227.182983 240.679993 227.219971 L 239.904007 227.801025 C 244.042007 227.934021 249.373993 227.653015 253.300995 228.911011 C 249.332993 228.942017 237.505005 228.06897 234.621002 229.781982 C 234.292999 229.776978 233.960007 229.817993 233.636002 229.766968 C 232.106995 229.528015 231.587006 228.510986 230.690994 227.414001 Z"/>
    <path id="path6" fill="#fefefe" stroke="none" d="M 734.752014 219.666992 C 741.81897 218.999023 748.890991 219.537964 755.963989 219.794983 C 762.223999 220.021973 768.390991 219.960999 774.627014 220.705994 L 774.023987 220.770996 C 768.185974 221.231995 738.752014 222.405029 734.351013 220.608032 L 734.752014 219.666992 Z"/>
    <path id="path7" fill="#fefefe" stroke="none" d="M 728.906982 452.02301 C 738.244995 452.393005 764.299988 469.243042 771.169983 476.021973 C 769.521973 475.954956 768.247986 475.801025 766.752991 475.065002 C 760.314026 471.896973 754.353027 466.932983 748.294983 463.036011 C 742.031982 459.005981 735.383972 455.678955 728.906982 452.02301 Z"/>
    <path id="path8" fill="#fefefe" stroke="none" d="M 685.122009 502.984009 C 686.177979 503.35498 687.205017 503.760986 688.164978 504.343018 C 698.739014 510.750977 704.052979 525.414001 708.778992 536.172974 C 710.562988 540.234009 712.752014 544.432983 713.809998 548.73999 C 710.379028 546.786987 699.966003 523.104004 696.664001 517.81897 C 693.29303 512.424011 689.351013 507.703979 685.122009 502.984009 Z"/>
    <path id="path9" fill="#fefefe" stroke="none" d="M 464.441986 370.473022 C 471.264008 370.859985 494.946991 379.39801 503.421997 381.881958 C 511.31601 384.196045 519.590027 385.799988 527.349976 388.487 C 529.080994 389.085999 530.314026 389.916016 531.624023 391.182007 C 520.161011 391.363037 475.708008 375.787964 464.441986 370.473022 Z"/>
    <path id="path10" fill="#8dcf9e" stroke="none" d="M 417.209991 490.070007 C 418.338013 490.015015 418.85199 489.789001 419.850006 490.370972 C 415.384003 496.989014 391.234009 504.205994 383.25 507.005005 C 382.19101 507.437988 381.153992 507.844971 380.062012 508.19104 L 379.980988 507.843018 C 384.354004 501.447021 409.700989 491.928955 417.209991 490.070007 Z"/>
    <path id="path11" fill="#fefefe" stroke="none" d="M 767.208008 530.30603 C 780.723999 542.349976 790.13501 556.637024 797.374023 573.174988 C 791.109009 569.445007 770.585022 537.658997 767.208008 530.30603 Z"/>
    <path id="path12" fill="#fefefe" stroke="none" d="M 433.136993 338.02002 C 437.561005 338.322998 447.506989 343.071045 452.52301 344.656006 C 462.249003 347.628011 472.046 350.345011 481.914001 352.807007 C 487.703003 354.247009 501.944 356.638 506.231995 359.896973 C 492.566986 361.733032 446.484009 345.863037 433.136993 338.02002 Z"/>
    <path id="path13" fill="#fefefe" stroke="none" d="M 522.642029 152.71698 C 523.273987 153.156982 523.343018 153.166016 523.948975 153.796997 C 531.427979 161.580994 535.505005 205.677002 534.989014 217.15802 C 533.583984 215.735962 533.283997 213.639038 532.901001 211.744995 C 531.156982 203.096985 530.689026 194.187012 529.41803 185.458984 C 527.804993 174.391968 525.252014 163.583984 522.642029 152.71698 Z"/>
    <path id="path14" fill="#175844" stroke="none" d="M 803.252991 561.08197 C 797.494019 556.052002 791.161987 550.966003 785.968018 545.369019 C 786.880005 545.057007 787.786011 544.843994 788.523987 544.197998 C 788.640015 544.096985 788.734009 543.971985 788.838989 543.859985 C 798.263977 552.465027 809.130981 560.237 817.416016 569.927979 C 820.229004 572.518005 822.616028 575.773987 824.88501 578.848022 C 824.268005 579.336975 823.619995 579.744995 822.958984 580.171997 C 821.314026 579.742004 805.458008 563.489014 803.252991 561.08197 Z"/>
    <path id="path15" fill="#8dcf9e" stroke="none" d="M 266.533997 422.22998 C 275.276001 424.856995 284.070007 427.283997 292.509003 430.801025 C 287.703003 430.825989 281.966003 432.695007 277.390015 432.096985 C 268.221985 429.190002 258.584991 426.255981 249.162994 424.348022 C 254.955002 423.598022 260.751007 423.098022 266.533997 422.22998 Z"/>
    <path id="path16" fill="#fefefe" stroke="none" d="M 818.879028 396.593994 L 820.588989 396.596985 C 820.005005 397.401001 808.184998 402.955994 805.900024 404.243042 C 792.565002 411.756958 780.195984 420.645996 767.231018 428.712036 L 766.088013 428.789001 L 766.094971 427.854004 C 774.661011 416.082031 804.952026 400.098022 818.879028 396.593994 Z"/>
    <path id="path17" fill="#fefefe" stroke="none" d="M 480.800995 127.848999 C 481.425995 128.025024 481.442993 128.002014 482.115997 128.348999 C 492.226013 133.565002 506.421997 177.445007 509.691986 189.28302 C 508.052002 188.521973 506.511993 187.088013 505.677002 185.464966 C 502.255005 178.807007 499.88501 168.997986 497.097992 161.768005 C 492.484009 149.797974 486.851013 139.099976 480.800995 127.848999 Z"/>
    <path id="path18" fill="#fefefe" stroke="none" d="M 321.118988 371.869995 C 328.300995 376.678955 343.203003 396.672974 347.619995 404.485962 C 342.300995 402.825012 336.959991 400.265991 331.756989 398.207031 C 328.115997 389.474976 324.325012 380.77301 321.118988 371.869995 Z"/>
    <path id="path19" fill="#8dcf9e" stroke="none" d="M 406.52301 270.553955 C 407.407674 270.60734 408.29067 270.68335 409.171997 270.781982 C 413.781006 271.299011 418.549011 272.015991 422.765015 274.047974 C 431.786011 278.39502 441.455994 290.457031 447.619995 298.252991 C 437.223999 295.44104 416.916992 276.304993 406.52301 270.553955 Z"/>
    <path id="path20" fill="#8dcf9e" stroke="none" d="M 403.950989 502.125977 L 404.041992 502.165039 L 403.942993 502.856995 C 400.993988 505.916016 398.032013 509.368042 394.509003 511.77301 C 387.282013 516.708008 373.678986 519.713013 364.433014 524.892029 L 364.233002 524.664978 C 364.325012 524.366028 364.382996 524.054016 364.509003 523.768005 C 365.074005 522.494019 366.342987 521.138 367.182007 519.989014 C 369.134003 517.317993 371.063995 515.013 373.832001 513.129028 C 381.201996 508.112 395.134003 505.523987 403.950989 502.125977 Z"/>
    <path id="path21" fill="#fefefe" stroke="none" d="M 404.674988 340.860962 C 404.783997 341.031006 404.915985 341.188965 405.003998 341.372009 C 407.147003 345.830994 412.15799 383.237 410.536011 387.332031 L 409.77301 386.781006 C 407.239014 382.859009 404.708008 378.697998 401.505005 375.291016 C 401.342987 364.075989 402.174988 351.817017 404.674988 340.860962 Z"/>
    <path id="path22" fill="#fefefe" stroke="none" d="M 858.781982 395.129028 C 860.552002 394.988037 862.189026 394.754028 863.919006 395.231995 C 863.47998 395.867004 849.309021 400.414001 847.200012 401.25 C 833.020996 406.869019 819.406006 414.077026 805.65802 420.677979 C 804.640991 421.096985 803.85199 421.436035 802.747986 421.570007 C 801.827026 421.682007 802.172974 421.731995 801.427979 421.143005 C 801.583008 420.710999 801.607971 420.559998 801.927979 420.150024 C 803.796997 417.761963 807.674988 415.511963 810.232971 413.911987 C 825.22998 404.536011 841.440002 398.473999 858.781982 395.129028 Z"/>
    <path id="path23" fill="#8dcf9e" stroke="none" d="M 387.239014 518.465027 C 387.492004 518.505005 387.687988 518.713989 387.902008 518.85498 C 383.516998 523.875977 378.880005 532.200989 373.760986 535.997986 C 370.402008 538.489014 365.949005 539.940979 362.205994 541.778992 C 359.007996 543.349976 356.178986 545.398987 353.333008 547.526001 L 352.864014 547.426025 C 352.563995 545.648987 353.71701 543.286011 354.368988 541.611023 C 355.592987 538.46698 356.945007 534.448975 359.023987 531.752991 C 362.710999 526.973022 381.075012 521.14502 387.239014 518.465027 Z"/>
    <path id="path24" fill="#8dcf9e" stroke="none" d="M 109.543999 527.262024 C 114.525002 524.778992 119.471001 520.645996 123.974998 517.346008 C 132.684006 510.963989 141.192001 504.562012 150.382996 498.879028 L 146.852997 506.838013 C 144.757996 511.533997 142.395004 516.343018 141.117996 521.335022 C 130.975006 523.205994 120.402 524.958008 110.897003 529.155029 C 108.526001 529.43103 105.507004 531.065002 103.189003 531.848999 C 105.333 530.351013 107.477997 528.866028 109.543999 527.262024 Z"/>
    <path id="path25" fill="#8dcf9e" stroke="none" d="M 672.935974 494.057007 C 687.77301 489.299988 705.411987 485.332031 720.986023 485.750977 C 727.075012 485.915039 733.112 486.932007 739.106995 487.94104 C 737.52301 488.337036 735.885986 488.676025 734.335999 489.18103 C 725.916992 491.375 717.617004 494.065002 709.780029 497.868042 C 696.570007 494.881958 686.643005 492.630981 672.935974 494.057007 Z"/>
    <path id="path26" fill="#8dcf9e" stroke="none" d="M 788.838989 543.859985 C 795.343994 546.377991 815.728027 553.244995 820.31897 556.627991 C 822.231018 558.036987 823.494019 559.869995 824.479004 562.008972 C 827.848999 569.330994 828.348999 577.395996 830.638 584.973999 L 828.250977 583.179993 L 824.88501 578.848022 C 822.616028 575.773987 820.229004 572.518005 817.416016 569.927979 C 809.130981 560.237 798.263977 552.465027 788.838989 543.859985 Z"/>
    <path id="path27" fill="#fefefe" stroke="none" d="M 391.479004 364.155029 C 391.221008 363.47998 391.140991 363.040039 391.264008 362.320007 C 393.941986 346.638 392.289001 329.924011 393.661011 314.031982 C 408.619995 337.22998 398.178986 348.244019 398.497986 373.033997 C 396.825012 370.578003 394.079987 365.362 391.479004 364.155029 Z"/>
    <path id="path28" fill="#fefefe" stroke="none" d="M 734.687988 513.885986 C 735.125 513.984009 735.270996 514.002014 735.739014 514.190979 C 740.471008 516.09198 750.174011 520.846008 753.877014 524.325012 C 763.310974 533.187988 769 556.362 774.606018 568.780029 C 767.223999 566.531006 753.22699 538.02301 748.440002 530.807007 C 744.362976 524.661987 739.981995 519.028015 734.687988 513.885986 Z"/>
    <path id="path29" fill="#8dcf9e" stroke="none" d="M 435.830994 492.015015 C 436.071014 492.261963 436.083008 492.213013 436.156006 492.613037 C 436.60199 495.070007 434.705994 499.812988 433.979004 502.333984 C 429.298004 518.547974 424.140991 533.528015 413.53299 546.992981 C 413.341003 546.794006 413.294006 546.778992 413.196014 546.442993 C 412.244995 543.179993 422.605011 503.609985 424.867004 498.38501 C 428.332001 495.973999 432.131989 494.040039 435.830994 492.015015 Z"/>
    <path id="path30" fill="#fefefe" stroke="none" d="M 663.427002 499.723999 C 677.046997 498.542969 702.096985 501.497009 714.492981 506.552979 C 727.598022 511.898987 739.190979 546.314026 744.267029 559.107971 L 743.531006 559.549011 L 743.627991 559.721008 L 744.35199 559.349976 L 744.695007 560.461975 L 744.416992 561.143005 L 745.005005 561.200989 L 744.562012 561.794983 L 742.690002 561.133972 C 738.237 557.224976 735.755981 550.528015 733.169983 545.294006 C 726.812012 532.424011 716.049988 510.278992 702.408997 504.838989 C 693.221985 501.174988 679.518982 501.103027 669.606018 500.796021 C 666.789978 500.708984 662.098022 501.31897 659.609009 500.309998 L 663.427002 499.723999 Z"/>
    <path id="path31" fill="#fefefe" stroke="none" d="M 218.233994 596.46698 C 218.595001 596.68103 218.365997 596.502991 218.651993 597.231018 C 215.701004 604.185974 211.345993 610.783997 208.076996 617.661011 C 202.610992 629.159973 198.033997 641.075012 192.735001 652.65802 C 191.255997 646.198975 192.171005 626.447998 192.505997 619.026001 C 200.626999 611.33197 209.559998 603.549011 218.233994 596.46698 Z"/>
    <path id="path32" fill="#fefefe" stroke="none" d="M 764.567017 440.532959 C 765.916992 440.407959 767.005981 440.445007 768.27002 440.985962 C 776.616028 444.565002 784.557007 449.851013 792.791992 453.821045 L 820.588989 467.078003 C 825.849976 469.549988 831.43103 471.807007 836.455017 474.707031 C 813.651001 471.802979 793.088989 460.740967 772.71698 450.842041 C 766.885986 448.007996 760.73999 445.688965 755.015991 442.684998 C 758.109985 441.658997 761.536011 441.780029 764.567017 440.532959 Z"/>
    <path id="path33" fill="#8dcf9e" stroke="none" d="M 370.970001 540.54303 C 371.438995 542.341003 364.812988 554.617981 363.786987 557.007996 C 358.473999 569.379028 353.855988 582.484985 350.02301 595.400024 C 349.300995 592.747009 349.48999 589.598022 349.347992 586.846008 C 348.727997 574.815002 348.524994 563.208008 351.304993 551.383972 C 358.09201 548.19397 363.979004 543.575012 370.970001 540.54303 Z"/>
    <path id="path34" fill="#8dcf9e" stroke="none" d="M 689.119995 400.424011 C 690.661011 396.68396 693.026001 394.573975 696.812012 393.094971 C 709.31897 388.207031 734.460999 393.829956 747.692993 396.458008 C 728.71698 400.846008 709.671997 402.855957 690.387024 405.283997 L 689.252014 404.917969 C 688.471985 403.343018 688.916016 402.14502 689.119995 400.424011 Z"/>
    <path id="path35" fill="#fefefe" stroke="none" d="M 297.27301 350.322021 C 297.480988 350.416992 297.690002 350.509033 297.895996 350.608032 C 303.505005 353.292969 311.382996 360.255981 314.764008 365.478027 C 318.765015 371.656982 324.528015 388.416992 327.196014 396.042969 C 321.796661 393.976969 316.362986 392.006307 310.894989 390.130981 C 306.277008 376.848022 301.487 363.755981 297.27301 350.322021 Z"/>
    <path id="path36" fill="#8dcf9e" stroke="none" d="M 465.131012 288.839966 C 470.654999 290.968994 477.377014 294.264038 482.187988 297.677002 C 491.442993 304.242004 495.199005 330.875977 496.98999 342.047974 C 492.820007 337.730957 488.046997 333.572021 484.773987 328.497009 C 481.279999 323.078003 479.476013 316.271973 476.997009 310.307007 C 473.792999 302.593994 469.781006 295.734009 465.131012 288.839966 Z"/>
    <path id="path37" fill="#8dcf9e" stroke="none" d="M 767.460999 526.97998 C 776.705017 526.156982 799.888977 530.252014 807.672974 534.913025 C 812.661011 537.898987 818.611023 547.354004 820.02301 552.916992 C 819.914001 552.883972 819.809021 552.838013 819.697021 552.817993 C 816.435974 552.234985 781.869995 538.291992 778.489014 536.255981 C 774.317017 533.742981 770.953003 530.330017 767.460999 526.97998 Z"/>
    <path id="path38" fill="#fefefe" stroke="none" d="M 253.300995 228.911011 C 260.858002 229.484009 268.576996 229.809021 276.048004 231.096008 C 281.875 241.487 289.553986 250.455994 294.239014 261.559998 C 287.67099 256.744995 281.147003 251.835999 274.243011 247.509033 C 265.411011 241.974976 244.404007 230.94397 234.621002 229.781982 C 237.505005 228.06897 249.332993 228.942017 253.300995 228.911011 Z"/>
    <path id="path39" fill="#fefefe" stroke="none" d="M 205.587006 425.127991 C 212.862 425.989014 220.229004 426.619019 227.559006 426.434998 C 233.257004 426.291016 239.587997 425.13501 245.210007 425.932007 C 251.753998 426.859009 263.290985 432.075989 270.988007 434.073975 C 266.661011 434.837036 262.398987 435.843994 258.122986 436.844971 C 255.197006 437.713989 252.242996 438.500977 249.302994 439.322998 C 233.695999 434.620972 211.117996 430.98999 194.835999 429.204956 C 198.453995 427.942993 202.016006 426.514038 205.587006 425.127991 Z"/>
    <path id="path40" fill="#8dcf9e" stroke="none" d="M 737.424011 319.572021 C 735.869019 323.657959 730.752991 329.401001 728.182007 333.338989 C 720.299988 345.411987 712.161011 359.302002 707.614014 372.995972 C 701.25 378.171997 694.797974 383.104004 688.651001 388.553955 C 688.591003 388.177979 688.560974 388.098999 688.611023 387.640991 C 689.651001 378.011963 712.036011 344.291016 718.932983 336.464966 C 724.362 330.304993 731.155029 324.869019 737.424011 319.572021 Z"/>
    <path id="path41" fill="#8dcf9e" stroke="none" d="M 745.796021 510.353027 C 757.70697 508.979004 767.64502 510.006958 779.377991 512.299988 C 790.336975 515.440002 794.651978 519.114014 802.382996 527.091003 C 802.786011 527.640991 803.109009 528.244019 803.453979 528.830017 L 802.749023 529.177002 C 799.129028 528.815002 795.755981 527.359009 792.176025 526.724976 C 782.885986 525.08197 768.330994 524.810974 760.138977 520.817993 C 755.143982 518.382996 750.39801 513.593994 745.796021 510.353027 Z"/>
    <path id="path42" fill="#8dcf9e" stroke="none" d="M 240.356995 238.414001 C 252.514008 241.655029 290.006012 266.700012 299.518005 275.122986 C 293.277008 273.891968 287.061005 271.952026 280.838013 270.533997 C 273.916992 268.957031 266.483002 268.025024 259.84201 265.515991 C 256.950989 262.389038 254.878006 258.427979 252.567001 254.859985 C 248.843002 249.113037 244.938004 243.518005 240.356995 238.414001 Z"/>
    <path id="path43" fill="#fefefe" stroke="none" d="M 298.265015 415.205994 C 309.700012 414.122986 332.187988 414.89502 342.799988 418.523987 C 332.897003 419.775024 323.066986 422.903015 313.475006 425.579956 C 309.71701 426.55896 305.671997 427.903015 301.794006 428.145996 C 295.264008 428.557007 278.626007 422.320007 270.660004 420.599976 C 280.98999 416.655029 287.265015 415.838989 298.265015 415.205994 Z"/>
    <path id="path44" fill="#8dcf9e" stroke="none" d="M 432.596985 276.867004 C 438.056 277.752991 443.88501 279.698975 449.085999 281.533997 C 452.575012 282.765015 456.087006 284.162964 459.006012 286.493042 C 469.734009 295.052002 473.727997 312.740967 479.419006 324.72699 C 477.032013 322.945007 474.859985 320.276001 472.539001 318.292969 C 466.817993 313.401978 460.079987 308.910034 455.118988 303.23999 C 447.451996 294.476013 441.278015 284.81897 432.596985 276.867004 Z"/>
    <path id="path45" fill="#fefefe" stroke="none" d="M 364.333008 464.869995 L 364.075989 465.480957 C 356.753998 467.520996 350.602997 473.911011 343.019989 475.497009 C 336.278992 476.906982 328.471008 476.622986 321.572998 477.049988 C 308.372009 477.869019 294.856995 479.337036 281.994995 482.454956 L 282.019989 481.960999 C 285.493988 479.375977 290.082001 477.549988 294.052002 475.843994 C 316.548004 466.177002 340.205994 464.579956 364.333008 464.869995 Z"/>
    <path id="path46" fill="#8dcf9e" stroke="none" d="M 865.057983 288.510986 C 876.609985 288.627014 906.950989 295.312988 917.231995 300.64801 C 907.263977 300.599976 897.341003 300.063965 887.379028 300.613037 C 871.219971 301.812988 856.106018 304.458008 840.414001 308.473022 C 842.22467 306.534342 844.100342 304.661011 846.041016 302.853027 C 847.980998 301.045003 849.981669 299.30599 852.04303 297.635986 C 854.10435 295.966634 856.220683 294.370646 858.392029 292.848022 C 860.564026 291.325317 862.786011 289.879639 865.057983 288.510986 Z"/>
    <path id="path47" fill="#fefefe" stroke="none" d="M 162.768005 478.208008 C 164.031998 478.067993 164.742004 477.920044 165.983002 478.339966 L 165.201996 478.52002 L 165.714005 478.56897 L 164.649994 478.765991 L 165.429001 478.770996 C 145.535004 490.921021 124.271004 505.43103 108.383003 522.625 C 107.899002 523.137024 107.595001 523.28302 106.972 523.58197 C 106.374001 518.822998 125.112999 488.598999 128.789993 483.729004 C 140.041 481.609985 151.352005 479.203979 162.768005 478.208008 Z"/>
    <path id="path48" fill="#8dcf9e" stroke="none" d="M 686.690002 48.608887 C 679.747009 59.902832 663.463989 83.297913 664.754028 96.607178 C 663.093018 101.309021 661.002014 105.778992 659.187988 110.411987 C 659.218994 104.333984 656.830017 97.520874 655.575989 91.567078 C 654.205994 85.060669 653.153992 78.517578 652.15802 71.94519 C 662.987 62.650818 674.01001 55.203186 686.690002 48.608887 Z"/>
    <path id="path49" fill="#fefefe" stroke="none" d="M 265.852997 333.796021 C 272.826996 335.278015 287.64801 343.495972 293.063995 347.757996 C 298.765015 360.655029 301.752991 375.101013 307.348999 388.351013 C 303.255005 387.381958 299.213989 385.598999 295.265991 384.138 C 292.803986 377.936035 289.106995 371.868042 285.834015 366.057007 C 279.578003 354.950012 273.265991 344.170044 265.852997 333.796021 Z"/>
    <path id="path50" fill="#8dcf9e" stroke="none" d="M 537.244995 353.26001 L 536.754028 349.644043 L 536.960999 349.442017 L 536.768005 348.888 C 536.848022 349.078979 536.89502 349.287964 537.005981 349.463013 C 537.08197 349.583984 537.218018 349.656006 537.31897 349.757996 C 539.26001 351.716003 540.833984 355.166992 542.281982 357.551025 C 552.544006 374.446045 559.05603 394.457031 558.666016 414.411987 L 554.257019 408.703979 C 554.546997 409.950012 555.046021 411.205994 554.35498 412.39801 C 547.739014 404.421997 541.729004 395.884033 535.335022 387.721008 L 536.950012 386.855957 C 538.364014 388.218018 539.616028 390.421997 540.807983 392.028015 C 538.234985 381.051025 536.895996 365.420044 535.211975 353.803955 L 536.213013 352.737 L 537.244995 353.26001 Z"/>
    <path id="path51" fill="#064534" stroke="none" d="M 535.211975 353.803955 L 536.213013 352.737 L 537.244995 353.26001 C 539.294983 363.192017 542.348022 391.177002 546.088989 398.010986 C 548.226013 401.914001 551.857971 404.954956 554.257019 408.703979 C 554.546997 409.950012 555.046021 411.205994 554.35498 412.39801 C 547.739014 404.421997 541.729004 395.884033 535.335022 387.721008 L 536.950012 386.855957 C 538.364014 388.218018 539.616028 390.421997 540.807983 392.028015 C 538.234985 381.051025 536.895996 365.420044 535.211975 353.803955 Z"/>
    <path id="path52" fill="#8dcf9e" stroke="none" d="M 743.39502 487.333984 C 757.518005 492.396973 770.213989 498.416992 782.69397 506.77301 L 779.491028 507.526001 L 780.453979 508.610962 C 779.369019 509.015015 761.226013 506.005981 757.481018 505.885986 C 751.106995 505.68103 744.817017 506.405029 738.780029 508.505981 C 734.645996 506.98999 721.171021 502.723022 718.484985 500.307007 C 717.783997 499.677979 717.955017 499.614014 717.875 498.749023 C 720.515015 495.44104 731.237 492.450989 735.411987 490.867004 L 734.335999 489.18103 C 735.885986 488.676025 737.52301 488.337036 739.106995 487.94104 C 740.538025 488.337036 742.000977 487.719971 743.39502 487.333984 Z"/>
    <path id="path53" fill="#064534" stroke="none" d="M 743.39502 487.333984 C 757.518005 492.396973 770.213989 498.416992 782.69397 506.77301 L 779.491028 507.526001 C 774.984009 506.040039 770.125 502.209961 765.945984 499.820007 C 761.912659 497.501363 757.753662 495.436361 753.468994 493.625 C 749.184326 491.813639 744.805318 490.269307 740.33197 488.992004 L 735.411987 490.867004 L 734.335999 489.18103 C 735.885986 488.676025 737.52301 488.337036 739.106995 487.94104 C 740.538025 488.337036 742.000977 487.719971 743.39502 487.333984 Z"/>
    <path id="path54" fill="#8dcf9e" stroke="none" d="M 690.255981 50.424927 C 691.38501 52.299194 691.807007 64.702576 692.340027 68.244019 C 693.299011 74.610718 694.679993 80.924011 695.976013 87.228882 C 688.060974 92.419067 676.155029 104.932007 669.427002 112.060974 C 668.39801 113.237 667.578979 114.495972 666.083984 114.992981 C 665.994019 114.674011 665.856995 114.364014 665.815002 114.035034 C 665.523987 111.778992 667.851013 105.992981 668.499023 103.653992 C 674.526978 81.88739 678.328979 70.203674 690.255981 50.424927 Z"/>
    <path id="path55" fill="#8dcf9e" stroke="none" d="M 400.697998 523.547974 C 405.050995 512.013977 412.17099 509.390015 420.962006 502.112 C 416.458008 517.935974 413.484009 533.825989 410.641998 550.018005 C 404.269012 556.278992 397.188995 561.750977 390.04599 567.096008 C 392.686005 552.383972 396.955994 538.002991 400.697998 523.547974 Z"/>
    <path id="path56" fill="#8dcf9e" stroke="none" d="M 695.14801 180.606018 C 694.642029 185.044983 692.867004 189.629028 691.307007 193.822021 C 684.327026 212.583008 673.267029 230.72998 657.898987 243.835022 C 657.671997 235.200012 658.098999 226.257996 657.122986 217.687988 C 662.715027 211.768982 669 206.406006 674.940002 200.828979 C 681.839986 194.251668 688.575989 187.510681 695.14801 180.606018 Z"/>
    <path id="path57" fill="#fefefe" stroke="none" d="M 242.460007 560.55603 C 241.990005 562.987 238.520996 566.838013 237.041 568.997009 C 232.985992 574.914978 229.084 581.677002 224.485001 587.171997 C 221.906006 590.254028 217.541 592.820007 214.421005 595.405029 C 207.339996 601.271973 200.578995 607.549988 193.309006 613.184021 C 191.884003 608.849976 195.834 592.827026 197.306 587.911011 C 207.223999 577.979004 229.173996 566.065002 242.460007 560.55603 Z"/>
    <path id="path58" fill="#8dcf9e" stroke="none" d="M 612.390991 172.384033 C 620.35199 183.896973 629.406006 194.582031 637.830994 205.738037 C 640.838013 209.719971 643.177002 215.182007 646.755981 218.565979 L 647.213989 217.684021 C 648.388977 221.380981 647.684998 237.882019 648.651978 243.964966 C 646.197021 242.794983 644.275024 241.177002 642.289001 239.348999 C 624.435974 222.924988 613.507996 196.367981 612.390991 172.384033 Z"/>
    <path id="path59" fill="#fefefe" stroke="none" d="M 280.213989 231.797974 C 290.944 233.630005 301.196991 236.89801 311.492004 240.348999 C 316.204987 256.364014 322.201996 273.536011 326.101013 289.610962 C 321.84201 285.885986 317.997009 281.488037 313.848999 277.593994 C 309.429993 273.446045 302.847992 269.122986 299.437012 264.204956 C 296.828003 260.442993 295.324005 255.636963 293.062012 251.615967 C 289.229004 244.802979 284.553009 238.30603 280.213989 231.797974 Z"/>
    <path id="path60" fill="#fefefe" stroke="none" d="M 153.947006 455.426025 C 162.080994 456.040039 170.445007 455.561035 178.606995 455.549988 C 187.970001 455.536987 197.231003 455.969971 206.572006 456.575989 C 196.50267 460.834656 186.78067 465.776652 177.406006 471.401978 C 177.291 471.471008 177.177994 471.541016 177.061996 471.608032 C 176.869003 471.718018 176.671997 471.822021 176.477997 471.93103 C 175.197006 472.653015 174.033997 473.214966 172.578003 473.506958 C 167.813004 474.463013 162.712997 474.653992 157.875 475.223999 C 149.279002 476.189982 140.753337 477.585327 132.298004 479.410034 C 138.033005 470.545044 146.565002 462.959961 153.947006 455.426025 Z"/>
    <path id="path61" fill="#8dcf9e" stroke="none" d="M 399.18399 521.630981 L 399.966003 521.98999 L 399.365997 523.72699 L 399.890991 524.400024 L 400.188995 523.359985 L 400.697998 523.547974 C 396.955994 538.002991 392.686005 552.383972 390.04599 567.096008 L 390.825989 567.393982 C 390.635986 567.48999 390.441986 567.577026 390.256989 567.68103 C 389.131989 568.312988 388.173004 569.150024 387.182007 569.968018 C 387.847992 570.434021 387.626007 570.502991 388.239014 570.367004 C 389.593994 570.065002 390.937012 569.549011 392.186005 568.955017 L 392.684998 569.375977 C 391.846008 570.010986 390.968994 570.840027 389.996002 571.234009 C 387.024994 571.314026 383.747986 572.749023 381.074005 574.026001 L 380.908997 573.369019 C 371.167999 578.969971 362.653015 585.307983 353.977997 592.392029 C 355.588013 587.638977 357.955994 582.835022 360.42099 578.461975 L 360.997986 581.573975 L 361.460999 581.591003 C 369.431 561.098022 383.729004 537.203003 399.18399 521.630981 Z"/>
    <path id="path62" fill="#064534" stroke="none" d="M 399.18399 521.630981 L 399.966003 521.98999 L 399.365997 523.72699 L 399.890991 524.400024 L 400.188995 523.359985 L 400.697998 523.547974 C 396.955994 538.002991 392.686005 552.383972 390.04599 567.096008 L 390.825989 567.393982 C 390.635986 567.48999 390.441986 567.577026 390.256989 567.68103 C 389.131989 568.312988 388.173004 569.150024 387.182007 569.968018 C 387.847992 570.434021 387.626007 570.502991 388.239014 570.367004 C 389.593994 570.065002 390.937012 569.549011 392.186005 568.955017 L 392.684998 569.375977 C 391.846008 570.010986 390.968994 570.840027 389.996002 571.234009 C 387.024994 571.314026 383.747986 572.749023 381.074005 574.026001 L 380.908997 573.369019 C 383.333008 571.673014 385.719004 569.92568 388.066986 568.127014 C 390.910004 552.278992 394.705994 537.086975 399.18399 521.630981 Z"/>
    <path id="path63" fill="#fefefe" stroke="none" d="M 372.471985 284.127991 C 372.574005 284.230957 372.678009 284.332031 372.778992 284.436035 C 377.143005 288.896973 391.42099 306.593018 391.390991 311.948975 C 388.759003 328.015991 390.80899 344.76001 389.214996 360.912964 C 384.475006 355.440002 379.527008 350.150024 374.790985 344.671997 C 373.864014 333.81897 374.09201 322.497009 373.742004 311.578003 C 373.447998 302.421997 372.567993 293.285034 372.471985 284.127991 Z"/>
    <path id="path64" fill="#8dcf9e" stroke="none" d="M 730.390015 373.709961 C 748.015991 374.103027 765.484985 380.19104 782.245972 385.190002 C 773.25 388.547974 764.23999 391.752991 755.012024 394.421021 C 749.528015 395.067993 735.447998 391.135986 729.554993 389.932983 C 720.838013 388.153992 712.244995 386.452026 703.375977 385.638 C 713.312012 377.68396 717.296997 374.528992 730.390015 373.709961 Z"/>
    <path id="path65" fill="#fefefe" stroke="none" d="M 556.853027 695.859009 C 580.328003 698.697998 605.640015 700.874023 627.908997 709.197021 C 624.138 709.614014 620.374023 710.21698 616.616028 710.741028 C 610.893005 712.536011 603.650024 712.908997 597.698975 713.784973 L 556.705994 719.866028 C 556.799337 711.863993 556.848348 703.861654 556.853027 695.859009 Z"/>
    <path id="path66" fill="#8dcf9e" stroke="none" d="M 777.950012 296.476013 L 778.591003 296.535034 C 778.393982 297.604004 769.781982 306.769043 768.38501 308.445007 C 763.297974 314.541992 758.322998 320.723022 754.155029 327.494019 C 750.271973 333.802979 745.781982 344.171997 740.942993 349.264038 C 736.357971 354.088013 723.039978 361.06604 716.786987 365.677979 L 716.424011 365.776978 L 716.067017 365.281006 C 716.44633 364.069661 716.872314 362.875 717.344971 361.697021 C 720.317017 354.359985 724.750977 347.26001 728.577026 340.327026 C 732.965027 332.375977 738.942993 321.375977 745.349976 314.973022 C 753.335022 306.993042 767.630981 300.907959 777.950012 296.476013 Z"/>
    <path id="path67" fill="#8dcf9e" stroke="none" d="M 909.052002 305.208984 C 913.093018 304.730957 917.296997 305.004028 921.343994 305.281982 C 916.557983 308.591003 911.151001 311.122009 906.210022 314.22699 C 898.445984 319.105957 891.012024 324.557983 883.518005 329.838989 C 873.997009 328.416992 864.383972 325.553955 855.041992 323.171997 L 835.343994 317.500977 C 859.299011 310.44397 884.231995 307.301025 909.052002 305.208984 Z"/>
    <path id="path68" fill="#8dcf9e" stroke="none" d="M 630.51001 98.564026 C 635.482971 89.821106 642.437988 81.026367 649.648987 74.047424 C 650.466003 80.83429 654.638 107.278992 658.838989 111.083984 C 655.320007 122.573975 654.260986 134.40802 651.655029 146.091003 C 648.409973 142.031006 646.422974 135.662964 644.286011 130.905029 C 642.442017 125.367981 639.296021 119.903015 636.905029 114.547974 C 634.557983 109.289001 632.702026 103.880005 630.51001 98.564026 Z"/>
    <path id="path69" fill="#8dcf9e" stroke="none" d="M 616.083008 134.049011 C 623.445007 152.377991 635.340027 168.757019 645.909973 185.309021 L 646.945007 185.393005 L 646.221008 185.783997 L 646.762024 186.250977 L 647.491028 183.036011 L 646.676025 212.573975 C 642.374023 207.802979 638.536011 202.203979 634.633972 197.080017 C 626.949972 187.160014 619.508647 177.061015 612.309998 166.78302 C 612.458008 155.703003 613.093994 144.778015 616.083008 134.049011 Z"/>
    <path id="path70" fill="#fefefe" stroke="none" d="M 190.195999 431.551025 C 194.977997 432.752014 200.035995 433.297974 204.908005 434.075989 C 217.089005 436.02002 229.783997 437.747009 241.567001 441.474976 C 237.994003 443.276001 233.977997 444.480957 230.272003 446.019043 C 224.947998 448.22998 219.382996 451.235962 213.850998 452.740967 C 212.194 453.19104 210.294998 453.026001 208.598999 452.946045 C 191.516998 452.130005 174.554993 451.799011 157.459 452.447021 C 167.977005 444.749023 178.597 437.547974 190.195999 431.551025 Z"/>
    <path id="path71" fill="#8dcf9e" stroke="none" d="M 699.572998 149.789978 C 699.471985 155.541992 698.721008 174.021973 695.406982 178.103027 C 687.155029 185.212036 678.877014 192.833984 671.531982 200.885986 C 668.656006 203.516968 658.64801 211.869995 656.982971 214.139038 C 656.830017 206.307007 655.963989 190.778015 657.828979 183.764038 C 657.875 184.346008 658.041016 184.84198 658.205017 185.400024 C 661.434998 184.406982 695.156982 154.311035 699.572998 149.789978 Z"/>
    <path id="path72" fill="#8dcf9e" stroke="none" d="M 664.362976 120.413025 L 664.968994 120.544006 C 665.109009 120.302002 665.245972 120.057007 665.390991 119.817017 C 666.689026 117.674988 668.994019 115.664978 670.737976 113.85199 C 678.47998 105.802979 690.044983 96.883484 696.22699 88.386597 C 697.481995 97.551514 698.815979 106.799988 699.111023 116.05603 C 694.228027 120.439026 661.825989 150.63501 660.018982 153.815979 C 660.554016 145.84198 662.083008 127.379028 664.362976 120.413025 Z"/>
    <path id="path73" fill="#fefefe" stroke="none" d="M 326.821991 479.713989 C 329.954987 479.414001 333.225006 479.480957 336.377991 479.369995 C 328.77301 484.047974 316.98999 492.833008 309.54599 496.091003 C 302.328003 499.25 291.109009 499.230957 283.066986 500.989014 C 271.587006 503.5 260.431 507.103027 249.274994 510.759033 C 246.552994 511.888 243.602005 512.687988 240.792007 513.594971 C 249.201996 504.547974 259.42099 494.796021 270.56601 489.380981 C 284.183014 482.764038 311.524994 480.807983 326.821991 479.713989 Z"/>
    <path id="path74" fill="#8dcf9e" stroke="none" d="M 829.267029 286.226013 C 839.45697 285.901978 849.724976 286.85199 859.869995 287.679993 C 850.340027 294.427002 841.749023 302.419006 833.508972 310.665039 C 824.94397 313.009033 816.330017 315.247986 807.885986 318.005981 C 800.11499 320.531982 792.757019 323.606995 785.346008 327.015015 C 792.495972 317.860962 818.487 287.768005 829.267029 286.226013 Z"/>
    <path id="path75" fill="#8dcf9e" stroke="none" d="M 829.908997 319.618042 C 832.052979 319.260986 871.981995 330.593994 881.538025 331.282959 C 874.740662 335.8243 867.904663 340.306966 861.030029 344.730957 L 849.390991 342.530029 C 837.428996 340.174683 825.497335 337.673014 813.596008 335.025024 C 807.546021 333.690002 801.16803 332.63501 795.284973 330.698975 C 806.533997 326.401978 818.200989 322.471008 829.908997 319.618042 Z"/>
    <path id="path76" fill="#8dcf9e" stroke="none" d="M 660.051025 155.476013 C 662.367981 153.11499 665.073975 151.072021 667.46698 148.761963 C 673.796997 142.648987 679.95697 136.356995 686.403992 130.365967 C 690.715027 126.361023 695.802002 122.429993 699.426025 117.830994 C 699.620972 122.948975 701.289001 145.010986 698.945984 148.169006 C 684.651978 159.062012 671.35199 170.666016 657.997986 182.69397 C 657.768982 174.031006 658.619995 163.995972 660.051025 155.476013 Z"/>
    <path id="path77" fill="#fefefe" stroke="none" d="M 315.398987 242.132996 C 323.230011 244.304993 336.723999 252.403015 343.470001 257.203003 C 343.639008 266.843994 345.776001 276.934998 347.110992 286.497986 C 348.466003 296.202026 349.31601 306.109009 351.36499 315.69104 C 348.855011 314.125 346.536011 310.971008 344.483002 308.812012 C 340.807007 304.945007 336.647003 301.051025 333.777008 296.532959 C 327.815002 287.151978 319.481995 254.65802 315.398987 242.132996 Z"/>
    <path id="path78" fill="#fefefe" stroke="none" d="M 269.839996 528.616028 L 270.217987 529.116028 C 267.671997 532.551025 264.338989 535.495972 261.481995 538.687012 C 257 543.695007 252.546005 550.52002 247.149994 554.450989 C 243.912003 556.809998 239.255005 558.205994 235.619003 560.049988 C 223.100006 566.398987 210.164001 572.703979 199.410995 581.856018 L 199.298004 581.755005 C 198.404007 577.065002 206.089005 561.307007 208.781998 556.713013 C 215.761002 544.809021 256.493988 532.143005 269.839996 528.616028 Z"/>
    <path id="path79" fill="#8dcf9e" stroke="none" d="M 819.370972 287.234009 L 820.221985 287.213989 C 819.742004 288.578003 806.674988 298.822998 804.369995 300.946045 C 794.713989 309.837036 785.328003 320 777.495972 330.533997 C 768.317993 334.957031 758.966003 339.162964 750.187012 344.346985 L 749.455994 344.307983 C 749.672974 342.281982 751.742981 339.401001 752.747009 337.565002 C 761.825012 320.974976 773.322998 307.790039 785.932983 293.910034 C 795.403992 290.205994 809.182007 288.170044 819.370972 287.234009 Z"/>
    <path id="path80" fill="#fefefe" stroke="none" d="M 346.335999 259.634033 C 352.112 262.203979 366.493011 276.526001 370.595001 281.884033 C 369.183014 300.542969 371.187012 320.184998 371.987 338.912964 L 371.322998 339.419006 C 366.976013 334.120972 357.64801 325.184998 355.06601 319.427002 C 352.994995 314.80896 350.121002 285.698975 349.191986 279.054993 C 348.290985 272.609009 346.737 266.119995 346.335999 259.634033 Z"/>
    <path id="path81" fill="#fefefe" stroke="none" d="M 299.342987 501.674011 C 300.549011 501.469971 301.14801 501.260986 302.335999 501.709961 C 297.19101 505.903015 291.846985 509.846985 286.842987 514.211975 C 284.252014 516.473022 281.660004 520.059998 278.789001 521.802002 C 272.789001 525.442993 264.722992 526.460999 258.050995 528.575989 C 244.033997 533.018005 230.606995 537.885986 217.742004 545.077026 C 216.992004 545.518005 216.552002 545.666992 215.684006 545.726013 C 216.380005 540.685974 232.104996 523.159973 235.960007 518.763977 C 257.22699 512.132996 277.233002 505.119019 299.342987 501.674011 Z"/>
    <path id="path82" fill="#fefefe" stroke="none" d="M 228.035004 320.898987 C 238.912994 322.540039 250.798996 327.067017 260.772003 331.546021 C 267.662994 341.054993 273.463989 351.617004 279.356995 361.771973 C 283.265015 368.507996 287.737 375.390015 290.653015 382.608032 C 281.906006 379.322021 273.03299 376.742004 264.04599 374.200989 C 258.614014 358.349976 239.057999 334.369019 228.035004 320.898987 Z"/>
    <path id="path83" fill="#fefefe" stroke="none" d="M 526.627014 696.734985 C 527.166016 696.723999 526.833984 696.671021 527.515015 697.213013 C 527.629028 705.585022 527.156982 714.030029 526.929016 722.403015 C 503.415985 719.427002 480.127014 714.648987 456.683014 711.164001 C 452.31367 710.455343 447.936666 709.799337 443.552002 709.195984 C 465.721008 700.492981 501.997009 699.606018 526.627014 696.734985 Z"/>
    <path id="path84" fill="#fefefe" stroke="none" d="M 142.832993 324.499023 L 144.201004 324.416992 C 159.705002 331.389038 181.832993 348.269043 194.464005 359.886963 C 185.029007 358.192017 175.666 357.013 166.121002 356.106995 C 162.132004 355.848999 157.542999 355.94397 153.709 354.817993 C 147.533997 353.002014 141.869995 348.886963 136.080002 346.101013 C 127.973 342.200989 119.363998 339.69104 110.711998 337.335999 C 121.230003 332.380005 131.828003 328.230957 142.832993 324.499023 Z"/>
    <path id="path85" fill="#8dcf9e" stroke="none" d="M 628.599976 102.195007 C 630.429993 106.981018 632.169006 112.153992 634.830994 116.542969 L 635.460999 116.515991 C 637.953003 121.085022 640.296997 125.814026 642.663025 130.455994 C 643.244995 131.596008 643.534973 132.921021 644.219971 133.983032 C 644.346008 132.921021 644.356018 131.971985 644.286011 130.905029 C 646.422974 135.662964 648.409973 142.031006 651.655029 146.091003 L 651.346008 148.547974 C 649.763977 159.780029 648.465027 170.952026 647.39502 182.244019 C 636.419983 165.075012 624.98999 148.033997 617.13501 129.155029 C 617.726318 126.774333 618.411316 124.42098 619.190002 122.094971 C 619.967997 119.769002 620.836995 117.477336 621.796997 115.219971 C 622.756999 112.962646 623.804667 110.746663 624.940002 108.572021 C 626.075989 106.39799 627.29598 104.272319 628.599976 102.195007 Z"/>
    <path id="path86" fill="#064534" stroke="none" d="M 634.830994 116.542969 L 635.460999 116.515991 C 637.953003 121.085022 640.296997 125.814026 642.663025 130.455994 C 643.244995 131.596008 643.534973 132.921021 644.219971 133.983032 C 644.346008 132.921021 644.356018 131.971985 644.286011 130.905029 C 646.422974 135.662964 648.409973 142.031006 651.655029 146.091003 L 651.346008 148.547974 C 646.870972 144.398987 637.715027 123.226013 634.830994 116.542969 Z"/>
    <path id="path87" fill="#fefefe" stroke="none" d="M 557.007996 678.388 C 567.010986 678.85498 577.627991 680.987976 587.562012 682.471008 C 618.627991 687.107971 649.994995 692.955994 680.461975 700.625977 L 674.38501 701.469971 C 663.882019 703.877991 652.914001 705.375 642.27301 707.060974 C 637.796997 705.138977 632.718018 703.843994 628.02301 702.515991 C 604.83197 695.95697 580.921997 692.911011 557.005005 690.546997 L 557.007996 678.388 Z"/>
    <path id="path88" fill="#fefefe" stroke="none" d="M 186.921005 317.119019 C 199.175995 316.697021 211.044006 318.228027 223.089005 320.243042 C 236.324997 335.703979 250.888 355.10498 260.196014 373.160034 C 252.537333 371.058675 244.83166 369.145996 237.078995 367.421997 C 234.449005 363.230957 230.787994 359.355957 227.479996 355.667969 C 214.932999 341.678955 200.882004 329.619019 186.921005 317.119019 Z"/>
    <path id="path89" fill="#8dcf9e" stroke="none" d="M 490.666992 303.764038 L 492.140015 304.799988 C 504.847992 313.786987 526.58197 331.86499 533.276001 345.714966 C 534.450012 348.144043 534.757019 351.157959 535.211975 353.803955 C 536.895996 365.420044 538.234985 381.051025 540.807983 392.028015 C 539.616028 390.421997 538.364014 388.218018 536.950012 386.855957 C 533.754028 382.132996 529.028992 377.997009 526.327026 373.046997 C 522.294983 365.661011 520.237976 356.803955 517.812012 348.781982 C 514.481018 337.765991 511.113007 326.662964 506.69101 316.028992 C 508.372986 332.791016 514.98999 349.985962 520.320007 365.940002 C 513.129028 359.479004 506.513 352.009033 500.222992 344.666992 C 498.57901 331.004028 495.315002 316.719971 490.666992 303.764038 Z"/>
    <path id="path90" fill="#fefefe" stroke="none" d="M 178.755005 317.709961 L 182.337997 317.55896 C 199.830002 332.966003 217.278 348.911987 232.522003 366.598022 C 224.207001 364.424988 215.925995 362.811035 207.425003 361.565002 L 199.660995 360.283997 C 195.847661 356.559347 191.902995 352.979696 187.826996 349.545044 C 183.750336 346.110352 179.553004 342.829997 175.235001 339.703979 C 170.917669 336.578654 166.491002 333.615662 161.955002 330.815002 C 157.419662 328.014994 152.787328 325.385335 148.057999 322.926025 C 158.240005 320.287964 168.248001 318.468018 178.755005 317.709961 Z"/>
    <path id="path91" fill="#fefefe" stroke="none" d="M 525.77301 678.203979 L 527.523987 678.049988 C 529.369019 680.129028 528.098022 687.992981 527.947021 690.877014 C 504.619995 693.549011 480.57901 694.677002 457.494995 698.887024 C 449.25 700.390015 440.036987 706.403992 432.032013 706.723022 C 424.041992 707.039978 411.563995 703.190002 403.609985 701.437988 C 400.05899 700.687988 396.56601 699.763977 393.059998 698.828003 C 419.06601 696.630005 444.928009 690.732971 470.569 686.085022 C 488.835999 682.77301 507.358002 680.507996 525.77301 678.203979 Z"/>
    <path id="path92" fill="#8dcf9e" stroke="none" d="M 788.887024 333.521973 C 793.005005 333.458984 797.737 334.946045 801.788025 335.77002 L 825.875 340.664001 C 837.033997 342.884033 848.202026 344.440002 859.437012 346.170044 C 849.906982 352.290039 840.083984 357.822021 830.174011 363.291016 C 824.343018 364.954956 771.703979 349.416992 760.203979 347.485962 C 769.478027 342.506958 778.966003 337.071045 788.887024 333.521973 Z"/>
    <path id="path93" fill="#8dcf9e" stroke="none" d="M 753.357971 351.490967 C 763.239014 351.202026 774.846008 354.877991 784.46698 357.094971 C 798.106995 360.237 811.651978 363.583984 825.489014 365.783997 C 815.987976 370.549011 806.512024 375.192017 796.796021 379.518005 C 793.385986 380.988037 789.799988 382.153015 786.307007 383.421021 C 779.856018 380.343018 772.26001 378.632996 765.396973 376.672974 C 752.861023 373.094971 740.232971 369.243042 727.296021 367.440002 C 735.538025 361.766968 744.437012 356.031982 753.357971 351.490967 Z"/>
    <path id="path94" fill="#fefefe" stroke="none" d="M 664.754028 96.607178 C 667.549988 90.070496 670.039001 82.245422 674.396973 76.589783 C 671.036011 89.915527 665.353027 106.940979 664.362976 120.413025 C 662.083008 127.379028 660.554016 145.84198 660.018982 153.815979 L 660.051025 155.476013 C 658.619995 163.995972 657.768982 174.031006 657.997986 182.69397 L 657.828979 183.764038 C 655.963989 190.778015 656.830017 206.307007 656.982971 214.139038 L 657.122986 217.687988 C 658.098999 226.257996 657.671997 235.200012 657.898987 243.835022 C 659.161987 249.110962 658.624023 255.721008 658.794983 261.187988 L 659.921997 291.390991 C 656.283997 275.737 650.859985 259.843994 648.651978 243.964966 C 647.684998 237.882019 648.388977 221.380981 647.213989 217.684021 C 647.053345 215.978658 646.874023 214.275309 646.676025 212.573975 L 647.491028 183.036011 L 647.39502 182.244019 C 648.465027 170.952026 649.763977 159.780029 651.346008 148.547974 L 651.655029 146.091003 C 654.260986 134.40802 655.320007 122.573975 658.838989 111.083984 L 659.187988 110.411987 C 661.002014 105.778992 663.093018 101.309021 664.754028 96.607178 Z"/>
    <path id="path95" fill="#fefefe" stroke="none" d="M 766.794006 806.424988 C 766.934021 810.02301 759.265015 834.669983 757.869019 839.76001 C 751.723022 862.174011 746.737 885.304016 739.120972 907.247009 C 734.859009 902.562317 730.771342 897.72998 726.857971 892.75 C 721.744995 885.948975 715.968018 879.684021 710.729004 872.981018 C 723.359985 856.979004 736.927002 841.77002 750.208008 826.317993 C 755.817993 819.791016 760.893005 812.679016 766.794006 806.424988 Z"/>
    <path id="path96" fill="#fefefe" stroke="none" d="M 310.023987 805.960999 C 316.733002 812.599976 324.127991 822.93103 330.463989 830.408997 C 343.029999 845.241028 356.057007 859.687988 368.382996 874.721985 C 362.775004 880.576681 357.304667 886.557353 351.971985 892.664001 C 347.320007 898.064026 342.773987 903.734985 337.588989 908.629028 C 335.389008 901.452026 333.747009 894.051025 331.803986 886.796997 C 328.055328 873.300334 324.397329 859.779338 320.829987 846.234009 C 317.270996 833 312.345001 819.440979 310.023987 805.960999 Z"/>
    <path id="path97" fill="#fefefe" stroke="none" d="M 707.004028 877.302002 C 710.732971 879.221008 732.129028 907.439026 737.676025 913.299011 C 727.645996 919.362 716.328979 923.791016 705.63501 928.575989 C 688.190348 936.237976 670.854004 944.138652 653.625977 952.278015 C 646.382996 955.401978 639.481018 959.317993 632.130005 962.205994 C 638.505981 955.794983 644.375 948.768005 650.380981 942.007996 C 661.644979 929.575338 672.685994 916.947998 683.504028 904.125977 C 691.202026 895.127014 699.789001 886.671021 707.004028 877.302002 Z"/>
    <path id="path98" fill="#fefefe" stroke="none" d="M 371.25 878.388977 C 375.842987 882.521973 379.942993 887.401978 384.072998 891.992981 C 393.61499 902.598999 402.744995 913.559998 411.993011 924.421021 C 422.795013 937.106018 434.859009 949.411011 444.45401 963.041016 C 436.769012 959.797974 429.247009 955.95697 421.696991 952.401978 C 394.152334 939.885335 366.708008 927.151672 339.364014 914.200989 C 349.786011 902.085999 360.864014 890.53302 371.25 878.388977 Z"/>
    <path id="path99" fill="#fefefe" stroke="none" d="M 750.755981 700.466003 C 751.380981 700.447021 751.552002 700.674988 752.075012 700.992981 C 753.91803 707.080994 754.588989 713.754028 755.968018 719.991028 C 761.125 743.325012 765.195984 766.84198 770.330017 790.184998 C 760.588013 780.064026 749.046021 770.809021 738.02301 762.11499 L 708.263977 737.479004 C 701.875977 732.280029 695.04303 727.315002 689.169006 721.541992 C 709.286987 713.405029 730.210022 707.43103 750.755981 700.466003 Z"/>
    <path id="path100" fill="#fefefe" stroke="none" d="M 323.81601 700.692993 C 334.48999 702.744019 345.174988 706.900024 355.621002 709.984985 C 371.907013 714.794983 388.303009 719.107971 404.64801 723.697998 C 388.536011 733.583008 372.932007 744.242981 357.003998 754.421021 C 340.477997 765.080994 323.906006 775.590027 307.519012 786.471008 C 312.751007 757.869019 318.011993 729.179993 323.81601 700.692993 Z"/>
    <path id="path101" fill="#8dcf9e" stroke="none" d="M 261.053009 268.942017 C 271.925995 271.703003 298.43399 275.890991 306.549011 281.356995 C 312.042999 285.057007 316.79599 290.661987 321.423004 295.380005 C 312.264008 294.453003 285.632996 287.337036 278.015991 291.139038 C 278.390015 291.546021 278.678009 292.052979 279.138 292.359009 C 280.562012 293.30603 316.515991 295.395996 327.88501 302.155029 C 334.231995 305.928955 339.897003 313.5 344.964996 318.921997 C 335.178009 316.344971 302.764008 309.358032 293.700989 309.707031 C 293.457001 310.526978 293.243988 310.432007 292.532013 310.838989 L 293.743011 309.68103 L 292.493988 310.536011 L 292.608002 311.054993 C 296.735992 314.286987 334.535004 318.052979 344.131012 321.713989 C 349.605011 323.802979 363.496002 337.295044 365.825989 342.811035 C 366.876007 343.280029 367.877014 343.661987 368.717987 344.474976 C 368.419006 345.56604 368.669006 345.127014 368.079987 345.848022 C 372.480988 347.301025 377.993988 355.891968 380.973999 359.521973 C 374.283997 358.203979 351.951996 353.749023 346.777008 355.424988 L 346.523987 356.169006 C 347.544006 357.144043 378.968994 362.144043 383.894989 363.269043 C 391.263 369.823975 397.799988 379.684998 403.609985 387.703003 C 359.846008 374.333984 322.255005 345.729004 292.244995 311.80603 C 287.792999 306.77301 283.197998 301.776001 279.122986 296.429993 C 272.549988 287.80603 266.756012 278.156006 261.053009 268.942017 Z"/>
    <path id="path102" fill="#064534" stroke="none" d="M 368.079987 345.848022 C 361.071014 344.536987 325.415985 339.26001 322.036987 336.562012 L 322.585999 336.077026 C 331.906006 335.080994 355.773987 340.563965 365.825989 342.811035 C 366.876007 343.280029 367.877014 343.661987 368.717987 344.474976 C 368.419006 345.56604 368.669006 345.127014 368.079987 345.848022 Z"/>
    <path id="path103" fill="#8dcf9e" stroke="none" d="M 291.363007 435.64801 C 294.045013 435.520996 298.940002 434.176025 301.285004 435.299988 L 301.384003 436.011963 L 299.540985 437.882996 C 299.322998 438.054993 299.10199 438.224976 298.885986 438.398987 C 294.156006 442.205994 289.875 447.85199 285.670013 452.304993 C 279.564667 458.659688 273.204325 464.748027 266.588989 470.570007 C 240.970001 493.044006 207.113007 507.859009 174.108994 515.34198 C 163.567001 517.732971 152.712006 518.736023 142.227997 521.174011 C 144.173996 516.390991 146.309006 511.712036 148.470001 507.023987 C 149.973999 504.26001 150.942001 501.005005 151.789001 497.981995 C 159.244995 492.881958 173.613007 483.104004 181.781006 480.43396 L 182.089005 481.276978 L 181.651993 483.554993 C 182.589996 482.618042 182.408997 481.291016 183.395004 480.919006 L 183.697998 481.057983 C 184.195007 479.940002 184.703995 478.776978 185.639008 477.952026 C 191.966995 472.363037 207.774994 465.765991 216.076004 461.73999 C 215.459335 463.283325 214.862 464.83433 214.283997 466.393005 C 214.319 466.593994 214.378998 466.792969 214.389008 466.995972 C 214.600006 471.307007 210.199997 477.411987 208.964996 481.756958 C 208.634003 482.919006 208.134003 483.993042 207.621994 485.083008 L 207.701996 485.817017 C 211.436996 480.27002 212.324005 472.440002 216.175003 466.841003 L 216.690002 467.052002 C 218.031331 464.61735 219.327998 462.159017 220.580002 459.677002 C 229.102005 455.120972 238.841995 451.958984 247.856003 448.452026 C 245.542999 453.64502 233.595993 484.47998 234.296005 488.269043 L 235.179993 488.596985 C 237.528 487.165039 248.481995 453.429993 251.136993 447.330994 C 257.877014 444.733032 264.756012 442.515991 271.609009 440.237 C 269.904999 444.161987 260.834015 466.252991 261.497986 469.291992 C 262.593994 469.801025 262.006989 469.72998 263.269989 469.411011 C 268.399994 460.005981 271.022003 448.804993 275.058014 438.844971 C 279.292999 437.844971 283.575012 437.018005 287.835999 436.134033 C 286.727997 440.218994 285.356995 444.309998 285.514008 448.588013 L 285.56601 448.380005 L 286.514008 448.635986 C 289.10199 444.963013 290.144989 439.93396 291.363007 435.64801 Z"/>
    <path id="path104" fill="#064534" stroke="none" d="M 181.781006 480.43396 L 182.089005 481.276978 L 181.651993 483.554993 C 182.589996 482.618042 182.408997 481.291016 183.395004 480.919006 L 183.697998 481.057983 C 181.649994 487.424011 173.932007 507.648987 170.039993 512.924988 C 169.388 513.809021 169.326996 514.046021 168.207001 514.210022 C 167.720001 511.947998 180.054001 484.583984 181.781006 480.43396 Z"/>
    <path id="path105" fill="#064534" stroke="none" d="M 214.283997 466.393005 C 214.319 466.593994 214.378998 466.792969 214.389008 466.995972 C 214.600006 471.307007 210.199997 477.411987 208.964996 481.756958 C 208.634003 482.919006 208.134003 483.993042 207.621994 485.083008 L 207.701996 485.817017 C 211.436996 480.27002 212.324005 472.440002 216.175003 466.841003 L 216.690002 467.052002 C 212.703995 476.635986 208.457001 486.146973 204.660004 495.799988 C 203.619003 498.447998 202.128998 500.911011 201.328003 503.651001 C 201.302002 503.739014 201.039993 504.695007 200.985001 504.825012 C 200.462006 506.059998 200.330002 506.162964 199.177002 506.658997 L 198.343002 506.156006 C 198.085999 504.898987 198.608002 503.747009 199.050003 502.585999 C 200.494003 498.794006 202.548996 495.238037 204.087006 491.481995 C 207.509003 483.125 210.615997 474.651978 214.283997 466.393005 Z"/>
    <path id="path106" fill="#fefefe" stroke="none" d="M 422.118011 727.327026 C 443.994995 731.333984 465.990997 734.895996 487.914001 738.651978 C 500.423004 740.794006 513.213013 742.565979 525.497986 745.762024 C 520.708008 770.088013 517.192017 794.552979 512.890015 818.950989 C 512.255981 823.215027 511.575989 827.447998 510.734985 831.676025 C 501.001007 817.924988 489.519989 804.745972 478.609985 791.900024 C 465.983337 776.91866 453.209676 762.06366 440.289001 747.335022 C 434.316986 740.598022 427.911011 734.213989 422.118011 727.327026 Z"/>
    <path id="path107" fill="#fefefe" stroke="none" d="M 687.437988 727.752991 C 692.603027 729.893005 702.745972 739.781006 707.796021 743.91803 C 728.646688 760.808695 749.27769 777.96401 769.689026 795.383972 C 766.179993 800.372986 761.695984 804.911011 757.697021 809.526978 L 736.88501 833.76001 C 727.203979 844.476013 718.343994 855.919983 708.682007 866.653015 C 707.625 853.955017 705.354004 841.335999 703.388 828.754028 L 691.815002 755.195007 C 690.408997 746.052002 688.5 736.940002 687.437988 727.752991 Z"/>
    <path id="path108" fill="#fefefe" stroke="none" d="M 526.327026 656.182007 C 527.575989 655.953003 528.309021 655.778015 529.554993 656.164978 C 530.515015 658.35199 529.723022 660.981018 529.382996 663.31897 C 508.181661 665.917643 487.046326 668.974325 465.97699 672.489014 C 453.816986 674.635986 441.747009 677.289001 429.609985 679.565002 C 415.093994 682.286987 376.05899 688.841003 364.485992 695.754028 C 370.490997 698.088989 376.924011 699.64502 383.121002 701.403992 C 405.388 707.72699 427.752014 712.08197 450.544006 715.88501 C 467.282003 718.84965 484.041331 721.685323 500.821991 724.392029 C 510.171997 725.853027 519.778992 727.551025 529.244995 727.929993 C 542.984985 728.47998 557.215027 725.208984 570.835022 723.452026 C 602.601013 719.356018 634.765015 715.56897 666.072998 708.797974 C 683.06897 705.122009 699.335999 699.280029 716.275024 695.54303 C 706.606995 693.309998 697.046997 690.60498 687.362976 688.411011 C 644.117655 678.770996 600.65566 670.236328 556.97699 662.807007 L 557.369019 656.133972 C 575.125692 658.644674 592.803345 661.623678 610.401978 665.070984 C 644.779338 671.643656 678.965678 679.093323 712.960999 687.419983 C 722.758972 689.864014 732.663025 691.916016 742.364014 694.734009 C 729.890991 699.031006 717.23999 702.739014 704.70697 706.848999 C 696.651978 709.491028 688.744995 712.823975 680.494995 714.804016 C 668.872986 717.593994 656.56897 718.924011 644.744995 720.768982 C 621.097005 724.525655 597.41333 728.04067 573.69397 731.314026 C 561.218018 733.114014 540.979004 737.901978 529.033997 737.528015 C 523.142029 737.343994 517.189026 735.901978 511.412994 734.825012 C 502.811005 733.193014 494.199341 731.613017 485.578003 730.085022 C 463.790985 726.330017 441.699005 723.401001 420.082001 718.778992 C 391.222992 712.609009 362.122009 703.822021 333.835999 695.367004 C 350.431 689.008972 370.416992 685.362 387.79599 681.473022 C 433.648 671.260335 479.825012 662.829997 526.327026 656.182007 Z"/>
    <path id="path109" fill="#fefefe" stroke="none" d="M 671.812988 724.231995 L 672.085022 724.223022 L 672.226013 724.672974 C 656.294006 733.35199 639.89801 746.504028 624.651001 756.877991 L 576.382019 790.338989 C 556.158997 804.297974 535.945984 818.130005 516.377991 833.013 C 516.117981 832.939026 515.950989 832.68103 515.752014 832.497986 C 516.687012 823.890015 518.66803 815.29303 520.125977 806.752991 C 521.742004 797.276978 522.989014 787.739014 524.58197 778.257019 C 526.40802 767.388 528.557007 756.559021 529.929993 745.619995 C 567.497009 741.073975 605.015991 734.833008 642.41803 729.086975 C 652.221985 727.580994 661.992004 725.510986 671.812988 724.231995 Z"/>
    <path id="path110" fill="#fefefe" stroke="none" d="M 407.010986 728.370972 L 407.826996 728.620972 C 407.96701 730.999023 397.753998 763.546997 396.34201 768.77002 C 387.277008 802.291016 379.618988 836.093018 370.860992 869.671021 C 361.010986 858.905029 351.697998 847.562012 342.143005 836.526978 C 330.352997 822.36499 317.130005 808.687012 306.416992 793.723022 C 319.880005 783.666016 334.085999 775.057007 348.166992 765.921997 C 367.710999 753.244019 387.075989 740.439026 407.010986 728.370972 Z"/>
    <path id="path111" fill="#8dcf9e" stroke="none" d="M 363.419006 474.020996 L 363.825012 474.540039 C 355.243011 485.854004 349.835999 499.329956 343.920013 512.13501 C 338.243988 524.419006 332.04599 536.953979 324.852997 548.41803 C 306.872009 577.073975 283.618988 598.825989 255.479004 617.53302 C 249.942001 621.213989 244.147995 624.5 238.552002 628.091003 C 225.033005 636.765991 211.876999 645.791992 199.434006 655.955017 C 204.276993 646.40802 208.468994 636.570984 213.283997 627.026001 C 220.850006 612.026978 228.947006 597.791016 237.677002 583.460022 C 236.688995 589.945007 236.548996 596.515991 235.951004 603.041992 C 235.395004 609.101013 234.212997 615.390991 234.373993 621.455994 C 234.419006 623.119019 234.457001 624.062012 235.705002 625.200012 C 237.570007 624.124023 237.737 616.387024 237.947006 613.898987 C 238.429001 608.190002 239.003006 602.437012 239.348007 596.723022 C 239.684006 591.171021 239.382004 585.380005 241.307999 580.065002 C 244.097 572.367981 255.757996 559.059998 261.199005 552.320007 C 260.557007 560.09198 259.65799 567.859985 258.881012 575.619995 C 258.488007 580.317993 254.585999 610.403015 256.389008 612.879028 L 257.332001 612.750977 C 260.57901 608.164001 263.269012 558.466003 264.088013 549.127991 C 269.825989 541.674988 281.410004 531.184021 288.546997 524.476013 C 288.527008 539.86499 286.640015 555.773987 285.10199 571.085022 C 284.665009 575.432007 282.705994 584.427979 283.276001 588.307983 C 283.442993 589.442017 283.622986 589.510986 284.497986 590.142029 L 285.575012 589.752014 C 288.519012 584.830994 291.235992 530.403992 291.989014 521.140991 C 299.72699 514.294006 307.963989 507.915039 316.027008 501.453979 C 315.858002 515.028992 314.523987 528.809998 313.300995 542.333008 C 312.834991 547.479004 311.377014 553.765015 311.704987 558.844971 C 311.755005 559.632996 312.066986 559.651978 312.625 560.13501 L 313.578003 559.887024 C 317.036987 554.947021 318.550995 508.891968 318.644012 499.282959 C 324.713999 495.379639 330.847331 491.578654 337.044006 487.880005 C 337.171997 494.431356 337.033325 500.97701 336.627991 507.516968 C 336.401001 510.799011 335.812988 514.221985 335.848999 517.502014 C 335.863007 518.763 335.872986 519.705994 336.56601 520.80603 L 337.440002 520.577026 C 337.94101 519.846008 338.46701 519.129028 338.671997 518.249023 C 339.972992 512.672974 339.865997 492.891968 340.044006 486.10199 L 363.419006 474.020996 Z"/>
    <path id="path112" fill="#fefefe" stroke="none" d="M 683.028992 734.322998 C 684.15802 737.924988 684.528992 742.265015 685.140991 746.005005 L 688.965027 769.312012 C 694.530029 803.008972 698.901001 836.958008 704.794983 870.583984 C 699.096985 879.343994 690.661011 887.245972 683.789978 895.176025 C 676.125 904.021973 668.820984 913.179993 661.161011 922.02301 C 652.752991 931.72998 644.075012 941.120972 635.851013 951.002014 C 632.22699 955.096985 628.820007 959.380005 625.370972 963.622009 C 627.473999 953.596008 630.218994 943.765015 632.565979 933.802002 L 652.491028 851.690979 L 670.721008 780.072021 C 674.677002 764.812988 678.380005 749.388 683.028992 734.322998 Z"/>
    <path id="path113" fill="#8dcf9e" stroke="none" d="M 66.529999 367.317993 C 94.7043 364.601013 123.446999 363.31897 151.753998 364.156982 C 143.029007 368.255005 134.014008 371.790039 125.114998 375.492004 C 120.739998 377.312012 115.814003 378.881958 111.852997 381.48999 L 111.809998 382.120972 C 125.191002 382.686035 146.350998 367.089966 159.824005 365.122986 C 169.173004 363.757996 183.727005 366.551025 193.326996 367.942993 C 179.755005 374.846985 166.156006 382.039001 152.313995 388.377991 C 149.503006 389.665039 137.093002 394.223022 135.677002 395.760986 C 144.639008 398.592041 181.686996 377.348022 190.809006 372.60498 C 193.481664 371.231689 196.141663 369.834696 198.789001 368.414001 C 209.029007 369.983032 219.197998 371.896973 229.423996 373.52301 C 218.054993 380.937988 205.645996 387.301025 193.733994 393.799011 C 188.186996 396.825012 173.104004 403.666992 169.395996 407.966003 L 169.382996 408.719971 C 175.809006 409.268005 225.503998 379.073975 235.817993 374.662964 C 244.171997 376.619019 255.796997 378.160034 263.424988 381.553955 C 265.098999 381.492004 265.817993 381.843018 267.22699 382.719971 C 270.165009 384.730957 288.776001 389.021973 293.584015 390.372986 C 287.334015 395.502991 250.983994 414.035034 249.528 417.513 C 252.248993 417.801025 255.766006 416.216003 258.240997 415.030029 C 262.054993 413.200989 265.606995 410.634033 269.278992 408.511963 C 278.644999 403.15332 287.95933 397.706665 297.221985 392.171997 C 301.164001 393.323975 304.950012 394.755005 308.773987 396.25 C 298.549988 402.868042 288.14801 410.380981 276.756012 414.815002 C 267.803986 418.299988 258.731995 419.514038 249.283005 420.740967 C 236.324005 422.422974 223.468994 423.532959 210.410004 422.195007 C 201.856995 421.317993 193.630005 418.823975 185.391006 416.478027 C 163.514999 410.249023 142.630997 402.686035 122.436996 392.103027 C 109.019997 385.072021 82.9142 370.046997 68.705399 368.448975 L 66.529999 367.317993 Z"/>
    <path id="path114" fill="#064534" stroke="none" d="M 263.424988 381.553955 C 265.098999 381.492004 265.817993 381.843018 267.22699 382.719971 C 256.075989 388.124023 210.787003 420.208984 203.397003 418.72699 L 203.404007 418.110962 C 209.455002 412.535034 219.953003 407.893005 227.231995 403.575989 C 239.375 396.374023 251.328995 388.838989 263.424988 381.553955 Z"/>
    <path id="path115" fill="#fefefe" stroke="none" d="M 411.328003 733.403992 C 413.979004 738.711975 419.088013 770.684998 420.720001 779.289978 C 428.273326 817.995992 435.473663 856.767334 442.321014 895.604004 L 449.308014 938.218994 C 450.723999 947.427979 451.721985 956.723022 453.725006 965.830017 C 448.835999 959.067993 443.036987 952.895996 437.632996 946.536987 C 416.890015 922.401001 395.602997 898.671997 375.171997 874.278992 C 376.30899 866.174011 378.696991 858.127014 380.640015 850.177002 C 383.803986 837.231018 386.899994 824.296021 390.316986 811.411987 C 393.984985 797.585999 397.147003 783.63501 400.815002 769.812988 C 404.158997 757.63033 407.66333 745.493998 411.328003 733.403992 Z"/>
    <path id="path116" fill="#fefefe" stroke="none" d="M 416.377991 728.262024 C 418.552002 730.203003 420.51001 732.869019 422.494995 735.036011 C 428.829987 741.948975 434.904999 749.03302 441.087006 756.078003 C 464.242004 782.468018 486.496002 809.546997 509.217987 836.296997 C 497.537323 866.576986 485.461324 896.698324 472.98999 926.661011 C 467.979004 938.801025 463.087006 950.999023 457.364014 962.827026 C 455.578003 941.580994 451.381989 920.247986 447.786987 899.252991 C 441.256999 861.367655 434.362335 823.548665 427.102997 785.796021 C 425.265004 775.748006 423.335002 765.717672 421.312988 755.705017 C 419.433014 746.72998 416.697998 737.437988 416.377991 728.262024 Z"/>
    <path id="path117" fill="#fefefe" stroke="none" d="M 513.36499 842.296997 C 516.361023 844.526978 518.919983 848.424011 521.309998 851.302979 C 529.572021 861.25 537.374023 871.471985 545.362976 881.629028 L 592.718994 940.817993 C 600.518005 950.377014 608.106018 960.148987 616.289978 969.383972 C 598.810649 969.676656 581.329997 969.796997 563.848022 969.744995 L 495.825989 969.854004 C 484.075012 969.861023 472.252991 970.130981 460.516998 969.596985 C 463.671997 961.29303 467.354004 953.192017 470.739014 944.979004 L 487.286987 904.307983 C 495.834015 883.60199 503.906006 862.603027 513.36499 842.296997 Z"/>
    <path id="path118" fill="#fefefe" stroke="none" d="M 679.405029 726.481018 L 679.757019 726.851013 C 680.145996 729.836975 671.88501 755.320007 670.419983 760.63501 C 660.981995 794.880005 652.971008 829.429016 644.262024 863.85199 L 627.848999 931.442993 C 625.072021 942.843994 621.731018 954.129028 619.357971 965.624023 C 612.271973 956.637024 604.721008 948.034973 597.508972 939.151001 C 589.742004 929.580994 582.283997 919.741028 574.588013 910.107971 C 565.445007 898.575989 555.991028 887.255981 546.984009 875.622986 C 537.346985 863.177002 527.895996 850.06897 517.262024 838.468994 C 532.401001 826.599976 548.307007 815.75 564.106995 804.789001 C 582.832987 791.644348 601.649658 778.630351 620.557007 765.747009 L 658.028992 739.98999 C 664.976013 735.312988 671.942993 730.296021 679.405029 726.481018 Z"/>
</svg>
