<?xml version="1.0" encoding="UTF-8"?>
<!-- Generated by Pixelmator Pro 2.4.7 -->
<svg width="1024" height="1024" viewBox="0 0 1024 1024" xmlns="http://www.w3.org/2000/svg" xmlns:xlink="http://www.w3.org/1999/xlink">
    <path id="Percorso" fill="#283618" stroke="none" d="M 608.961975 844.512024 C 534.461975 805.523987 516.786011 860.533997 499.641998 852.325989 C 476.329987 841.164001 517.185974 818.41803 525.609985 814.356018 C 553.942017 800.697998 589.460022 806.005981 615.671997 822.005981 C 650.890015 843.502014 641.875977 852.536011 688.414001 856.356018 C 722.067993 859.117981 742.357971 862.174011 769.814026 884.211975 C 777.468018 890.356018 796.236023 909.093994 775.280029 912.882019 C 768.05603 914.187988 763.333984 908.690002 758.76001 904.073975 C 723.440002 871.22998 685.616028 886.538025 648.429993 871.765991 C 633.903992 865.995972 620.356018 855.093994 608.961975 844.512024 Z"/>
    <path id="path1" fill="#606c38" stroke="none" d="M 431.992004 842.388 C 445.355988 851.752014 472.35199 873.890015 482.492004 851.734009 C 494.661987 851.338013 507.977997 867.697998 521.166016 867.22998 C 536.708008 866.679993 552.211975 852.213989 567.578003 847.776001 C 584.642029 842.846008 593.421997 845.687988 608.961975 844.512024 C 620.356018 855.093994 633.903992 865.995972 648.429993 871.765991 C 685.616028 886.538025 723.440002 871.22998 758.76001 904.073975 C 743.314026 919.286011 702.434021 921.028015 682.593994 918.51001 C 650.781982 914.471985 662.184021 915.356018 634.072021 924.218018 C 567.265991 945.281982 401.282013 938.797974 339.940002 916.487976 C 307.915985 925.312012 270.881989 936.846008 237.781998 922.755981 C 267.558014 883.236023 305.444 901.291992 340.828003 887.085999 C 374.149994 873.705994 390.144012 845.349976 431.992004 842.388 Z"/>
    <path id="path2" fill="#283618" stroke="none" d="M 640.890015 569.005981 C 656.14801 568.245972 732.296021 571.635986 741.297974 585.97998 C 743.395996 598.218018 731.093994 615.104004 725.814026 625.682007 C 678.98999 719.471985 617.888 764.346008 510.630005 722.85199 C 508.390015 728.307983 505.890015 733.632019 503.723999 739.127991 C 489.992004 776.719971 493.691986 797.942017 495.082001 834.523987 C 481.678009 801.872009 476.679993 761.69397 489.011993 727.953979 C 498.559998 701.830017 496.112 711.906006 498.709991 685.426025 C 506.570007 605.291992 569.596008 574.66803 640.890015 569.005981 Z M 536.414001 668.507996 C 543.866028 665.642029 550.390015 660.987976 557.340027 657.127991 C 581.159973 643.892029 638.773987 633.338013 660.426025 648.320007 L 660.44397 649.288025 C 625.52002 645.458008 551.791992 679.143982 527.825989 705.005981 L 527.794006 705.614014 C 529.19397 706.208008 530.458008 706.492004 531.955994 706.742004 C 622.797974 735.512024 677.502014 686.703979 710.955994 603.547974 C 696.783997 607.521973 699.682007 608.291992 682.757996 608.978027 C 638.481995 610.776001 596.307983 621.452026 559.72998 647.72998 C 554.440002 651.531982 538.424011 662.874023 536.414001 668.507996 Z M 520.796021 681.10199 C 525.768005 678.521973 532.632019 672.676025 536.414001 668.507996 C 538.424011 662.874023 554.440002 651.531982 559.72998 647.72998 C 596.307983 621.452026 638.481995 610.776001 682.757996 608.978027 C 699.682007 608.291992 696.783997 607.521973 710.955994 603.547974 C 712.059998 601.596008 713.142029 599.624023 714.304016 597.705994 C 661.090027 591.01001 608.219971 581.497986 561.362 618.02002 C 541.374023 633.599976 526.098022 656.117981 520.796021 681.10199 Z"/>
    <path id="path3" fill="#606c38" stroke="none" d="M 536.414001 668.507996 C 538.424011 662.874023 554.440002 651.531982 559.72998 647.72998 C 596.307983 621.452026 638.481995 610.776001 682.757996 608.978027 C 699.682007 608.291992 696.783997 607.521973 710.955994 603.547974 C 677.502014 686.703979 622.797974 735.512024 531.955994 706.742004 C 530.458008 706.492004 529.19397 706.208008 527.794006 705.614014 L 527.825989 705.005981 C 551.791992 679.143982 625.52002 645.458008 660.44397 649.288025 L 660.426025 648.320007 C 638.773987 633.338013 581.159973 643.892029 557.340027 657.127991 C 550.390015 660.987976 543.866028 665.642029 536.414001 668.507996 Z M 531.955994 706.742004 C 538.099976 703.992004 544.633972 701.955994 550.890015 699.452026 L 602.830017 678.927979 C 616.776001 673.401978 661.216003 656.018005 672.364014 649.288025 C 668.190002 648.622009 664.617981 648.486023 660.44397 649.288025 C 625.52002 645.458008 551.791992 679.143982 527.825989 705.005981 L 527.794006 705.614014 C 529.19397 706.208008 530.458008 706.492004 531.955994 706.742004 Z"/>
    <path id="path4" fill="#283618" stroke="none" d="M 581.057983 344.257996 C 533.132019 334.68396 510.652008 260.864014 519.754028 217.65802 C 539.268005 125.017395 663.364014 78.484375 747.237976 79.01178 C 739.890015 84.987793 731.65802 89.653381 724.492004 95.914795 C 639.093994 170.527222 739.046021 272.052002 595.478027 340.104004 C 594.994019 366.245972 588.552002 392.234009 581.057983 417.131958 C 599.185974 405.446045 614.742004 391.547974 636.202026 385.505981 C 639.015991 358.562012 651.97998 332.307983 673.216003 315.213989 C 726.106018 272.634033 807.374023 298.901978 856.809998 334.004028 C 876.900024 348.27002 881.414001 347.885986 862.643982 366.666016 C 818.546021 410.783997 770.98999 450.80603 705.124023 432.271973 C 685.848022 426.848022 653.882019 413.966003 640.890015 398.940002 C 619.5 406.833984 600.89801 421.559998 584.252014 436.754028 C 567.012024 452.492004 560.825989 470.349976 549.302002 489.716003 L 533.906006 515.814026 C 529.659973 522.953979 524.960022 529.830017 521.927979 537.607971 L 520.796021 540.5 C 548.107971 518.09198 565.455994 512.033997 597.10199 502.004028 C 621.302002 449.953979 669.218018 442.895996 717.997986 466.049988 C 730.041992 471.765991 743.671997 478.674011 753.330017 487.907959 C 707.166016 535.788025 659.799988 572.083984 602.987976 514.228027 C 551.755981 534.742004 518.656006 550.27002 494.553986 606.528015 C 467.100006 670.607971 465.075989 759.564026 478.385986 828.434021 C 479.803986 835.77002 482.65799 844.34198 482.492004 851.734009 C 472.35199 873.890015 445.355988 851.752014 431.992004 842.388 C 383.194 805.914001 355.928009 857.104004 320.450012 871.807983 C 287.444 885.487976 249.647995 865.140015 209.910004 901.731995 C 199.868393 910.978027 184.124405 926.677979 180.517593 901.572021 C 193.296005 869.685974 248.617996 854.606018 279.839996 853.72998 C 314.786011 852.747986 307.868011 854.892029 336.691986 832.33197 C 375.29599 802.117981 412.194 799.367981 451.589996 826.757996 C 441.906006 766.497986 443.824005 733.140015 446.817993 675.296021 C 436.799988 662.607971 425.756012 652.429993 413.484009 641.97998 C 391.902008 657.473999 355.574005 666.833984 329.109985 668.377991 C 262.302002 672.278015 214.462006 627.75 177.742599 576.429993 C 171.811005 568.140015 149.251205 536.075989 150.807205 526.892029 C 152.623001 516.174011 170.151596 512.340027 178.605606 509.589966 C 214.889999 497.783997 265.906006 489.544006 302.473999 498.322021 C 289.406006 475.563965 281.70401 450.969971 276.231995 425.424011 C 279.832001 413.612 288.171997 413.790039 299.052002 412.478027 C 358.070007 405.362 430.15799 421.469971 458.567993 479.484009 C 467.197998 497.108032 472.075989 525.987976 465.502014 544.859985 L 465.312012 545.392029 C 469.894012 551.687988 473.507996 558.435974 477.553986 565.059998 C 493.135986 533.867981 510.048004 503.369995 529.421997 474.335999 L 529.283997 473.728027 C 521.424011 437.903992 520.521973 407.427979 491.114014 378.27002 C 474.873993 387.992004 443.070007 387.401978 425.084015 382.890015 C 380.687988 371.752014 358.794006 339.820007 343.970001 299.708008 C 339.970001 288.884033 322.238007 237.309998 334.635986 230.135986 C 344.529999 224.411987 394.928009 235.213989 406.937988 238.875977 C 463.362 256.083984 516.015991 298.914001 498.493988 363.567993 C 525.112 386.761963 533.223999 415.962036 544.909973 446.578003 C 553.580017 427.812012 562.338013 408.823975 568.409973 389.028015 C 572.926025 374.303955 575.492004 358.579956 581.057983 344.257996 Z M 570.237976 312.468018 C 570.171997 306.138 568.958008 299.721985 568.695984 293.368042 C 567.304016 259.666016 582.484009 220.037964 605.34198 195.700012 C 610.02002 190.718994 625.504028 175.7854 632.421997 175.554993 C 603.682007 214.304016 590.023987 264.791992 590.494019 312.468018 C 591.052002 314.049988 590.533997 316.768005 592.450012 316.247986 C 599.802002 314.25 614.971985 304.005981 621.280029 299.127991 C 684.713989 250.075989 641.643982 178.866394 679.099976 120.765808 C 670.297974 122.336792 661.903992 127.674194 654.211975 132.018188 C 601.372009 161.852173 545.314026 213.245972 557.84198 280.666016 C 559.781982 291.10199 563.296021 304.167969 570.237976 312.468018 Z M 178.014404 534.08197 C 179.741806 537.447998 181.580795 540.661987 183.599594 543.859985 C 231.298004 533.179993 311.088013 544.583984 350.890015 569.661987 C 356.399994 573.132019 366.764008 579.625977 369.063995 585.97998 C 377.417999 588.708008 385.705994 595.112 393.058014 599.883972 C 370.488007 506.764038 250.912003 508.047974 178.014404 534.08197 Z M 570.237976 312.468018 C 563.296021 304.167969 559.781982 291.10199 557.84198 280.666016 C 545.314026 213.245972 601.372009 161.852173 654.211975 132.018188 C 661.903992 127.674194 670.297974 122.336792 679.099976 120.765808 C 681.023987 116.885376 683.476013 113.290405 685.369995 109.429626 C 633.814026 124.348816 579.133972 145.365967 551.656006 195.049622 C 528.478027 236.960022 538.104004 279.921997 569.473999 313.436035 L 570.208008 313.385986 L 570.237976 312.468018 Z M 452.761993 559.575989 C 436.149994 564.578003 419.23999 565.419983 402.298004 561.505981 C 413.088013 581.835999 419.694 602.495972 422.406006 625.312012 C 426.671997 628.742004 430.950012 632.281982 434.881989 636.096008 C 440.753998 641.926025 446.384003 647.885986 451.589996 654.328003 C 455.980011 633.666016 464.384003 613.41803 468.097992 595.374023 C 466.31601 583.788025 460.221985 569.458008 453.446014 559.77002 L 452.761993 559.575989 Z M 663.812012 363.567993 C 667.94397 362.174011 672.104004 360.245972 676.362 359.323975 C 698.124023 336.630005 737.607971 332.634033 767.494019 337.317993 C 783.208008 339.780029 826.245972 350.900024 838.328003 359.323975 L 845.09198 353.466003 C 835.288025 344.755981 821.645996 337.705994 809.773987 332.134033 C 757.682007 307.682007 691.434021 304.323975 663.812012 363.567993 Z M 302.473999 433.5 C 303.298004 438.640015 304.45401 443.557983 306.122009 448.494019 C 356.847992 447.18396 400.339996 467.242004 433.865997 504.299988 C 436.776001 507.515991 442.122009 510.667969 441.817993 515.502014 L 446.817993 519.942017 C 435.235992 460.164001 395.071991 436.761963 334.653992 433.696045 C 324.247986 433.167969 313.687988 434.544006 303.368011 433.588013 L 302.473999 433.5 Z M 247.061996 579.914001 C 233.753998 580.25 237.720001 580.916016 246.764008 585.208008 C 275.720001 598.950012 306.631989 609.869995 337.187988 619.455994 C 346.618011 622.416016 372.803986 629.19397 379.5 633.205994 L 390.299988 629.395996 L 389.700012 628.797974 C 384.231995 623.278015 376.364014 619.026001 369.779999 614.947998 C 330.321991 590.512024 291.802002 583.916016 247.061996 579.914001 Z M 354.074005 251.802002 C 355.18399 256.212036 356.470001 260.589966 357.675995 264.973999 C 387.644012 264.93396 429.890015 285.562012 450.462006 306.047974 C 456.100006 311.660034 464.522003 319.48999 466.881989 327 C 470.519989 332.276001 476.108002 337.257996 480.532013 341.924011 C 474.660004 276.825989 410.626007 257.76001 354.074005 251.802002 Z M 661.169983 388.796021 C 667.442017 391.757996 673.307983 395.118042 679.099976 398.940002 C 693.35199 386.75 766.640015 382.728027 791.442017 380.523987 L 792.453979 380.424011 C 763.963989 359.346008 691.737976 372.712036 661.169983 388.796021 Z M 339.940002 479.407959 C 346.585999 490.057983 420.385986 541.616028 431.992004 540.5 C 436.962006 540.218018 426.358002 531.317993 425.161987 530.08197 C 405.604004 509.838013 367.578003 484.916016 339.940002 479.407959 Z M 624.538025 490.877991 C 631.830017 490.401978 639.007996 488.43396 646.372009 487.907959 C 656.942017 480.01001 684.403992 485.471985 698.26001 487.018005 C 705.614014 487.838013 721.05603 487.631958 727.01001 490.877991 C 727.822021 490.381958 728.502014 489.937988 729.228027 489.31604 L 729.05603 488.364014 L 728.856018 488.734009 C 725.783997 486.664001 721.280029 485.329956 717.843994 483.894043 C 684.40802 469.924011 652.299988 461.235962 624.538025 490.877991 Z M 384.074005 303.666016 C 397.235992 321.924011 454.186005 350.966003 459.476013 363.567993 C 462.864014 363.447998 466.306 363.625977 469.708008 363.567993 C 453.850006 338.679993 412.152008 312.547974 384.074005 303.666016 Z M 622.97998 508.894043 L 627.330017 511.742004 C 632.476013 510.855957 639.271973 513.606018 644.401978 514.674011 C 654.937988 516.866028 694.536011 513.926025 698.987976 502.838013 L 697.539978 502.004028 C 677.294006 499.80603 643.367981 504.969971 622.97998 508.894043 Z"/>
    <path id="path5" fill="#606c38" stroke="none" d="M 646.372009 487.907959 C 656.942017 480.01001 684.403992 485.471985 698.26001 487.018005 C 705.614014 487.838013 721.05603 487.631958 727.01001 490.877991 C 703.416016 513.700012 656.356018 541.984009 627.330017 511.742004 C 632.476013 510.855957 639.271973 513.606018 644.401978 514.674011 C 654.937988 516.866028 694.536011 513.926025 698.987976 502.838013 L 697.539978 502.004028 C 687.72998 493.926025 658.562012 488.995972 646.372009 487.907959 Z"/>
    <path id="path6" fill="#606c38" stroke="none" d="M 357.675995 264.973999 C 387.644012 264.93396 429.890015 285.562012 450.462006 306.047974 C 456.100006 311.660034 464.522003 319.48999 466.881989 327 C 443.756012 310.864014 420.959991 300.592041 392.053986 300.726013 C 388.967987 300.73999 385.290009 300.547974 382.399994 301.75 L 382.212006 302.381958 L 384.074005 303.666016 C 397.235992 321.924011 454.186005 350.966003 459.476013 363.567993 C 395.824005 368.596008 371.194 319.374023 357.675995 264.973999 Z"/>
    <path id="path7" fill="#606c38" stroke="none" d="M 306.122009 448.494019 C 356.847992 447.18396 400.339996 467.242004 433.865997 504.299988 C 436.776001 507.515991 442.122009 510.667969 441.817993 515.502014 C 423.321991 499.738037 404.493988 485.761963 380.171997 480.342041 C 373.279999 478.80603 344.54599 475.368042 339.480011 478.573975 L 339.940002 479.407959 C 346.585999 490.057983 420.385986 541.616028 431.992004 540.5 C 399.269989 546.064026 371.906006 524.971985 344.869995 510.047974 C 325.618011 499.421997 312.108002 469.118042 306.122009 448.494019 Z"/>
    <path id="path8" fill="#606c38" stroke="none" d="M 676.362 359.323975 C 698.124023 336.630005 737.607971 332.634033 767.494019 337.317993 C 783.208008 339.780029 826.245972 350.900024 838.328003 359.323975 C 802.567993 393.497986 760.773987 425.381958 709.211975 409.167969 C 703.557983 407.390015 683.177979 398.846008 679.099976 398.940002 C 693.35199 386.75 766.640015 382.728027 791.442017 380.523987 L 792.453979 380.424011 L 794.140015 380.786011 L 794.205994 380.216003 C 791.307983 375.968018 783.312012 371.400024 778.791992 368.787964 C 746.435974 350.085999 711.23999 350.005981 676.362 359.323975 Z"/>
    <path id="path9" fill="#606c38" stroke="none" d="M 183.599594 543.859985 C 231.298004 533.179993 311.088013 544.583984 350.890015 569.661987 C 356.399994 573.132019 366.764008 579.625977 369.063995 585.97998 C 330.753998 565.642029 282.26001 564.059998 241.972 579.245972 L 242.951996 579.883972 C 244.386002 579.585999 245.630005 579.752014 247.061996 579.914001 C 233.753998 580.25 237.720001 580.916016 246.764008 585.208008 C 275.720001 598.950012 306.631989 609.869995 337.187988 619.455994 C 346.618011 622.416016 372.803986 629.19397 379.5 633.205994 C 307.888 666.208008 251.444 633.263977 206.373993 576.013977 C 198.247604 565.692017 190.259201 555.202026 183.599594 543.859985 Z"/>
    <path id="path10" fill="#606c38" stroke="none" d="M 570.237976 312.468018 C 563.296021 304.167969 559.781982 291.10199 557.84198 280.666016 C 545.314026 213.245972 601.372009 161.852173 654.211975 132.018188 C 661.903992 127.674194 670.297974 122.336792 679.099976 120.765808 C 641.643982 178.866394 684.713989 250.075989 621.280029 299.127991 C 614.971985 304.005981 599.802002 314.25 592.450012 316.247986 C 590.533997 316.768005 591.052002 314.049988 590.494019 312.468018 C 590.023987 264.791992 603.682007 214.304016 632.421997 175.554993 C 625.504028 175.7854 610.02002 190.718994 605.34198 195.700012 C 582.484009 220.037964 567.304016 259.666016 568.695984 293.368042 C 568.958008 299.721985 570.171997 306.138 570.237976 312.468018 Z M 632.421997 175.554993 C 603.682007 214.304016 590.023987 264.791992 590.494019 312.468018 C 591.471985 311.26001 604.828003 268.627991 607.018005 262.588013 C 618.656006 230.504028 634.255981 199.891968 646.372009 167.919189 C 641.262024 169.947998 636.80603 172.205566 632.421997 175.554993 Z"/>
</svg>
