<svg width="393" height="353" viewBox="0 0 393 353" fill="none" xmlns="http://www.w3.org/2000/svg">
<g clip-path="url(#clip0_62_268)">
<path d="M366.421 349.008C358.906 342.621 354.341 332.53 355.538 322.707C356.735 312.884 364.15 303.854 373.768 301.768C383.386 299.682 394.349 305.456 397.271 314.907C398.878 296.687 400.731 277.704 410.361 262.188C419.081 248.139 434.184 238.086 450.553 236.288C466.921 234.489 484.155 241.282 494.364 254.277C504.572 267.272 507.072 286.164 499.922 301.084C494.655 312.075 484.952 320.254 474.785 326.908C441.932 348.23 402.529 356.9 363.826 351.325L366.421 349.008Z" fill="#A7C5B2"/>
<path d="M105.965 347.273C116.287 338.499 122.557 324.64 120.912 311.149C119.268 297.657 109.084 285.253 95.8741 282.388C82.664 279.523 67.6053 287.454 63.593 300.434C61.3848 275.409 58.8403 249.336 45.613 228.025C33.636 208.729 12.8917 194.921 -9.59046 192.451C-32.0726 189.981 -55.7435 199.31 -69.7648 217.159C-83.7861 235.008 -87.2192 260.957 -77.399 281.449C-70.1648 296.544 -56.8369 307.779 -42.8726 316.919C1.67833 346.078 56.9438 358.239 109.53 350.455" fill="#A7C5B2"/>
<path d="M-47.5326 199.828C-28.982 215.026 -11.9638 232.024 3.27587 250.576C18.518 269.109 31.937 289.085 43.3444 310.224C49.7207 322.082 55.4486 334.282 60.5026 346.768C61.5331 349.308 57.4327 350.413 56.4137 347.902C47.4617 325.889 36.3864 304.811 23.3467 284.971C10.3702 265.203 -4.48197 246.748 -21.0014 229.865C-30.3448 220.32 -40.2029 211.299 -50.531 202.844C-52.648 201.11 -49.6321 198.108 -47.5326 199.828Z" fill="white"/>
<path d="M338.358 352.227H92.0879V98.0671C92.0879 43.9926 135.824 0 189.584 0H240.862C294.622 0 338.358 43.9926 338.358 98.0671V352.227Z" fill="#F2F2F2"/>
<path d="M287.08 352.227H92.0879V98.0671C92.0341 77.347 98.5571 57.1506 110.707 40.4184C111.155 39.8043 111.602 39.1982 112.062 38.5988C117.939 30.8457 124.933 24.0178 132.813 18.3402C133.258 18.0145 133.705 17.6944 134.158 17.3742C140.752 12.7847 147.884 9.03286 155.393 6.20409C155.839 6.03409 156.293 5.86376 156.747 5.70039C163.538 3.26267 170.578 1.59285 177.736 0.721749C178.18 0.660771 178.635 0.613055 179.091 0.565338C186.067 -0.184906 193.102 -0.184906 200.078 0.565338C200.533 0.613055 200.988 0.660765 201.437 0.722402C208.594 1.59356 215.632 3.26318 222.421 5.70042C222.875 5.86379 223.329 6.03411 223.776 6.20444C231.193 8.99753 238.241 12.6934 244.764 17.2096C245.217 17.5227 245.671 17.8428 246.118 18.1629C250.535 21.3342 254.683 24.8671 258.522 28.7257C261.6 31.8207 264.468 35.1198 267.107 38.6008C267.566 39.1983 268.013 39.8044 268.46 40.4174C280.61 57.1498 287.134 77.3466 287.08 98.0671V352.227Z" fill="#F2BA57"/>
<path d="M271.224 238.551C277.186 238.551 282.02 233.689 282.02 227.692C282.02 221.695 277.186 216.834 271.224 216.834C265.262 216.834 260.429 221.695 260.429 227.692C260.429 233.689 265.262 238.551 271.224 238.551Z" fill="#E56C1E"/>
<path d="M318.183 344.615H309.911L305.976 312.522L318.185 312.523L318.183 344.615Z" fill="#FFB8B8"/>
<path d="M304.003 342.237H319.956V352.34H293.958C293.958 351.014 294.218 349.7 294.723 348.474C295.228 347.248 295.968 346.135 296.9 345.196C297.833 344.258 298.94 343.514 300.159 343.006C301.378 342.499 302.684 342.237 304.003 342.237Z" fill="#2F2E41"/>
<path d="M359.341 344.615H351.069L347.133 312.522L359.342 312.523L359.341 344.615Z" fill="#FFB8B8"/>
<path d="M345.16 342.237H361.113V352.34H335.116C335.116 351.014 335.376 349.7 335.881 348.474C336.385 347.248 337.125 346.135 338.058 345.196C338.991 344.258 340.098 343.514 341.317 343.006C342.535 342.499 343.841 342.237 345.16 342.237Z" fill="#2F2E41"/>
<path d="M276.688 229.843C276.093 228.961 275.697 227.959 275.529 226.907C275.36 225.854 275.424 224.778 275.714 223.753C276.004 222.727 276.514 221.779 277.208 220.973C277.902 220.168 278.763 219.526 279.731 219.091L307.85 141.135L321.687 148.73L289.581 223.228C290.198 224.911 290.181 226.764 289.531 228.436C288.881 230.107 287.645 231.48 286.055 232.296C284.466 233.111 282.635 233.312 280.908 232.86C279.182 232.408 277.68 231.335 276.688 229.843Z" fill="#FFB8B8"/>
<path d="M355.115 244.492C354.196 243.962 353.404 243.235 352.794 242.364C352.184 241.492 351.771 240.496 351.585 239.447C351.399 238.398 351.444 237.32 351.717 236.29C351.989 235.26 352.483 234.303 353.164 233.486L344.452 151.022L360.199 151.745L363.819 232.86C365.108 234.1 365.9 235.773 366.045 237.562C366.189 239.351 365.676 241.13 364.604 242.564C363.531 243.998 361.972 244.986 360.224 245.341C358.475 245.697 356.657 245.394 355.115 244.492Z" fill="#FFB8B8"/>
<path d="M329.996 126.696C339.148 126.696 346.567 119.233 346.567 110.027C346.567 100.821 339.148 93.3582 329.996 93.3582C320.843 93.3582 313.424 100.821 313.424 110.027C313.424 119.233 320.843 126.696 329.996 126.696Z" fill="#FFB8B8"/>
<path d="M355.01 225.737H305.049L305.109 225.346C305.199 224.761 314.013 166.683 307.513 147.682C306.86 145.815 306.918 143.771 307.674 141.944C308.43 140.116 309.831 138.635 311.608 137.785C320.9 133.383 338.736 127.964 353.791 141.116C356.006 143.084 357.736 145.542 358.844 148.298C359.952 151.054 360.407 154.031 360.173 156.994L355.01 225.737Z" fill="#478652"/>
<path d="M314.645 175.266L292.152 170.676L302.695 145.545C303.326 143.111 304.891 141.028 307.047 139.753C309.203 138.478 311.773 138.115 314.195 138.744C316.616 139.372 318.691 140.942 319.963 143.107C321.236 145.272 321.603 147.857 320.984 150.294L314.645 175.266Z" fill="#478652"/>
<path d="M343.452 183.788L342.1 152.609C341.075 146.748 344.41 141.207 349.54 140.302C354.672 139.399 359.683 143.464 360.713 149.369L365.795 178.502L343.452 183.788Z" fill="#478652"/>
<path d="M353.348 222.004C361.386 252.8 362.263 291.954 360.095 334.662L349.299 333.305L329.733 251.865L318.937 334.662L306.792 333.984C303.164 289.172 299.632 250.701 305.443 225.397L353.348 222.004Z" fill="#2F2E41"/>
<path d="M340.915 122.909C337.823 126.221 332.082 124.443 331.679 119.918C331.647 119.567 331.65 119.213 331.686 118.862C331.894 116.858 333.045 115.038 332.769 112.921C332.707 112.395 332.512 111.893 332.202 111.463C329.739 108.145 323.956 112.947 321.631 109.943C320.205 108.101 321.881 105.201 320.787 103.143C319.343 100.426 315.066 101.766 312.384 100.278C309.4 98.6224 309.579 94.0172 311.543 91.216C313.939 87.7999 318.139 85.977 322.287 85.7143C326.435 85.4516 330.554 86.5794 334.426 88.0974C338.826 89.8221 343.189 92.2057 345.897 96.0972C349.19 100.83 349.506 107.192 347.86 112.726C346.858 116.092 343.439 120.204 340.915 122.909Z" fill="#2F2E41"/>
<path d="M483.746 352.664H-14.3901C-14.6027 352.663 -14.8065 352.578 -14.9566 352.426C-15.1068 352.275 -15.1911 352.07 -15.1911 351.856C-15.1911 351.642 -15.1068 351.437 -14.9566 351.285C-14.8065 351.134 -14.6027 351.048 -14.3901 351.048H483.746C483.959 351.048 484.163 351.134 484.313 351.285C484.463 351.437 484.547 351.642 484.547 351.856C484.547 352.07 484.463 352.275 484.313 352.426C484.163 352.578 483.959 352.663 483.746 352.664Z" fill="#3F3D56"/>
<path d="M233.44 278.592H145.728C144.572 278.598 143.462 278.143 142.64 277.327C141.818 276.511 141.351 275.4 141.342 274.238V77.3103C141.351 76.1484 141.818 75.0375 142.64 74.2213C143.462 73.4051 144.572 72.9502 145.728 72.9565H233.44C234.595 72.9502 235.706 73.4051 236.528 74.2213C237.35 75.0375 237.817 76.1484 237.826 77.3103V274.238C237.817 275.4 237.35 276.511 236.528 277.327C235.706 278.143 234.595 278.598 233.44 278.592Z" fill="white"/>
<path d="M237.826 136.676H141.342V138.033H237.826V136.676Z" fill="#CCCCCC"/>
<path d="M238.163 214.119H141.679V215.476H238.163V214.119Z" fill="#CCCCCC"/>
<path d="M173.053 72.9565H171.704V279.271H173.053V72.9565Z" fill="#CCCCCC"/>
<path d="M206.789 72.9565H205.44V279.271H206.789V72.9565Z" fill="#CCCCCC"/>
</g>
<defs>
<clipPath id="clip0_62_268">
<rect width="587" height="353" fill="white" transform="translate(-83)"/>
</clipPath>
</defs>
</svg>
